M48
; DRILL file {KiCad 9.0.1} date 2026-01-18T13:51:56+0100
; FORMAT={-:-/ absolute / inch / decimal}
; #@! TF.CreationDate,2026-01-18T13:51:56+01:00
; #@! TF.GenerationSoftware,Kicad,Pcbnew,9.0.1
; #@! TF.FileFunction,Plated,1,2,PTH
FMAT,2
INCH
; #@! TA.AperFunction,Plated,PTH,ViaDrill
T1C0.0118
; #@! TA.AperFunction,Plated,PTH,ComponentDrill
T2C0.0276
; #@! TA.AperFunction,Plated,PTH,ComponentDrill
T3C0.0315
; #@! TA.AperFunction,Plated,PTH,ComponentDrill
T4C0.0354
; #@! TA.AperFunction,Plated,PTH,ComponentDrill
T5C0.0394
; #@! TA.AperFunction,Plated,PTH,ComponentDrill
T6C0.0450
%
G90
G05
T1
X4.8364Y-2.1983
X5.0175Y-2.1418
X5.0335Y-3.7161
X5.1133Y-2.7201
X5.1355Y-1.945
X5.168Y-3.4198
X5.4896Y-1.9005
X5.5706Y-2.2983
X5.6028Y-3.7916
X5.9373Y-2.1238
X5.9617Y-3.0656
X6.0789Y-2.9503
X6.3419Y-2.1466
T2
X6.1Y-3.2109
X6.1Y-3.3349
X6.1Y-3.4589
X6.1Y-3.583
X6.1Y-3.707
X6.1Y-3.831
X6.1Y-3.955
X6.4Y-3.2109
X6.4Y-3.3349
X6.4Y-3.4589
X6.4Y-3.583
X6.4Y-3.707
X6.4Y-3.831
X6.4Y-3.955
T3
X4.4713Y-3.905
X4.55Y-3.905
X4.81Y-3.22
X4.81Y-3.32
X4.81Y-3.42
X4.81Y-3.52
X4.81Y-3.62
X4.81Y-3.72
X4.81Y-3.82
X4.81Y-3.92
X4.815Y-2.8
X4.9134Y-2.8
X5.11Y-3.22
X5.11Y-3.32
X5.11Y-3.42
X5.11Y-3.52
X5.11Y-3.62
X5.11Y-3.72
X5.11Y-3.82
X5.11Y-3.92
X5.465Y-3.225
X5.465Y-3.325
X5.465Y-3.425
X5.465Y-3.525
X5.465Y-3.625
X5.465Y-3.725
X5.465Y-3.825
X5.465Y-3.925
X5.765Y-3.225
X5.765Y-3.325
X5.765Y-3.425
X5.765Y-3.525
X5.765Y-3.625
X5.765Y-3.725
X5.765Y-3.825
X5.765Y-3.925
X6.56Y-2.865
X6.56Y-2.965
X6.56Y-3.065
X6.56Y-3.165
X6.86Y-2.865
X6.86Y-2.965
X6.86Y-3.065
X6.86Y-3.165
T4
X3.5201Y-1.8549
X3.5201Y-1.9549
X3.5201Y-2.0549
X3.5201Y-2.1549
X3.5201Y-2.2549
X3.5201Y-2.3549
X3.5201Y-2.4549
X3.5201Y-2.5549
X4.4201Y-1.8549
X4.4201Y-1.9549
X4.4201Y-2.0549
X4.4201Y-2.1549
X4.4201Y-2.2549
X4.4201Y-2.3549
X4.4201Y-2.4549
X4.4201Y-2.5549
X4.47Y-3.44
X4.57Y-3.44
T5
X6.205Y-1.6849
X6.305Y-1.6849
X6.405Y-1.6849
X6.505Y-1.6849
X6.605Y-1.6849
X6.705Y-1.6849
X6.805Y-1.6849
X6.905Y-1.6849
T6
X3.565Y-3.56
X3.565Y-3.86
X3.665Y-3.86
X3.765Y-3.56
X3.765Y-3.86
X3.975Y-3.56
X3.975Y-3.86
X4.075Y-3.86
X4.175Y-3.56
X4.175Y-3.86
T5
G00X6.665Y-3.6047
M15
G01X6.665Y-3.5653
M16
G05
G00X6.7634Y-3.6716
M15
G01X6.7634Y-3.6322
M16
G05
G00X6.8422Y-3.9118
M15
G01X6.8815Y-3.9118
M16
G05
G00X7.0469Y-3.4748
M15
G01X7.0075Y-3.4748
M16
G05
G00X7.039Y-3.7937
M15
G01X7.039Y-3.7543
M16
G05
M30
