%TF.GenerationSoftware,KiCad,Pcbnew,9.0.1*%
%TF.CreationDate,2026-01-18T13:51:58+01:00*%
%TF.ProjectId,SN76489 synth midi,534e3736-3438-4392-9073-796e7468206d,rev?*%
%TF.SameCoordinates,Original*%
%TF.FileFunction,Copper,L1,Top*%
%TF.FilePolarity,Positive*%
%FSLAX46Y46*%
G04 Gerber Fmt 4.6, Leading zero omitted, Abs format (unit mm)*
G04 Created by KiCad (PCBNEW 9.0.1) date 2026-01-18 13:51:58*
%MOMM*%
%LPD*%
G01*
G04 APERTURE LIST*
G04 Aperture macros list*
%AMRoundRect*
0 Rectangle with rounded corners*
0 $1 Rounding radius*
0 $2 $3 $4 $5 $6 $7 $8 $9 X,Y pos of 4 corners*
0 Add a 4 corners polygon primitive as box body*
4,1,4,$2,$3,$4,$5,$6,$7,$8,$9,$2,$3,0*
0 Add four circle primitives for the rounded corners*
1,1,$1+$1,$2,$3*
1,1,$1+$1,$4,$5*
1,1,$1+$1,$6,$7*
1,1,$1+$1,$8,$9*
0 Add four rect primitives between the rounded corners*
20,1,$1+$1,$2,$3,$4,$5,0*
20,1,$1+$1,$4,$5,$6,$7,0*
20,1,$1+$1,$6,$7,$8,$9,0*
20,1,$1+$1,$8,$9,$2,$3,0*%
G04 Aperture macros list end*
%TA.AperFunction,ComponentPad*%
%ADD10R,1.800000X1.800000*%
%TD*%
%TA.AperFunction,ComponentPad*%
%ADD11C,1.800000*%
%TD*%
%TA.AperFunction,ComponentPad*%
%ADD12C,1.400000*%
%TD*%
%TA.AperFunction,ComponentPad*%
%ADD13O,1.400000X1.400000*%
%TD*%
%TA.AperFunction,ComponentPad*%
%ADD14RoundRect,0.250000X-0.550000X-0.550000X0.550000X-0.550000X0.550000X0.550000X-0.550000X0.550000X0*%
%TD*%
%TA.AperFunction,ComponentPad*%
%ADD15C,1.600000*%
%TD*%
%TA.AperFunction,ComponentPad*%
%ADD16C,1.778000*%
%TD*%
%TA.AperFunction,ComponentPad*%
%ADD17O,1.500000X3.000000*%
%TD*%
%TA.AperFunction,ComponentPad*%
%ADD18O,2.500000X3.500000*%
%TD*%
%TA.AperFunction,ComponentPad*%
%ADD19O,3.500000X2.500000*%
%TD*%
%TA.AperFunction,ComponentPad*%
%ADD20O,3.100000X2.100000*%
%TD*%
%TA.AperFunction,ComponentPad*%
%ADD21R,1.700000X1.700000*%
%TD*%
%TA.AperFunction,ComponentPad*%
%ADD22C,1.700000*%
%TD*%
%TA.AperFunction,ComponentPad*%
%ADD23R,1.350000X1.350000*%
%TD*%
%TA.AperFunction,ComponentPad*%
%ADD24C,1.350000*%
%TD*%
%TA.AperFunction,ComponentPad*%
%ADD25R,2.000000X2.000000*%
%TD*%
%TA.AperFunction,ComponentPad*%
%ADD26O,2.000000X1.600000*%
%TD*%
%TA.AperFunction,ViaPad*%
%ADD27C,0.600000*%
%TD*%
%TA.AperFunction,Conductor*%
%ADD28C,0.200000*%
%TD*%
G04 APERTURE END LIST*
D10*
%TO.P,D1,1,K*%
%TO.N,GND*%
X113538000Y-87376000D03*
D11*
%TO.P,D1,2,A*%
%TO.N,Net-(D1-A)*%
X116078000Y-87376000D03*
%TD*%
D12*
%TO.P,R2,1*%
%TO.N,GND*%
X154940000Y-84707000D03*
D13*
%TO.P,R2,2*%
%TO.N,/LM_AUDIO*%
X162560000Y-84707000D03*
%TD*%
D14*
%TO.P,U2,1,A0*%
%TO.N,GND*%
X122174000Y-81788000D03*
D15*
%TO.P,U2,2,A1*%
X122174000Y-84328000D03*
%TO.P,U2,3,A2*%
X122174000Y-86868000D03*
%TO.P,U2,4,P0*%
%TO.N,/P0*%
X122174000Y-89408000D03*
%TO.P,U2,5,P1*%
%TO.N,/P1*%
X122174000Y-91948000D03*
%TO.P,U2,6,P2*%
%TO.N,/P2*%
X122174000Y-94488000D03*
%TO.P,U2,7,P3*%
%TO.N,/P3*%
X122174000Y-97028000D03*
%TO.P,U2,8,GND*%
%TO.N,GND*%
X122174000Y-99568000D03*
%TO.P,U2,9,P4*%
%TO.N,/P4*%
X129794000Y-99568000D03*
%TO.P,U2,10,P5*%
%TO.N,/P5*%
X129794000Y-97028000D03*
%TO.P,U2,11,P6*%
%TO.N,/P6*%
X129794000Y-94488000D03*
%TO.P,U2,12,P7*%
%TO.N,/P7*%
X129794000Y-91948000D03*
%TO.P,U2,13,~{INT}*%
%TO.N,unconnected-(U2-~{INT}-Pad13)*%
X129794000Y-89408000D03*
%TO.P,U2,14,SCL*%
%TO.N,/SCL*%
X129794000Y-86868000D03*
%TO.P,U2,15,SDA*%
%TO.N,/SDA*%
X129794000Y-84328000D03*
%TO.P,U2,16,VDD*%
%TO.N,+3.3V*%
X129794000Y-81788000D03*
%TD*%
D12*
%TO.P,R1,1*%
%TO.N,Net-(R1-Pad1)*%
X154940000Y-81557000D03*
D13*
%TO.P,R1,2*%
%TO.N,Net-(R1-Pad2)*%
X162560000Y-81557000D03*
%TD*%
D16*
%TO.P,SW0\u002C9,1,A*%
%TO.N,Net-(SW0\u002C9-A)*%
X90551000Y-90424000D03*
%TO.P,SW0\u002C9,2,B*%
%TO.N,Net-(SW0\u002C9-B)*%
X95631000Y-90424000D03*
%TO.P,SW0\u002C9,3*%
%TO.N,N/C*%
X95631000Y-98044000D03*
%TO.P,SW0\u002C9,4*%
X93091000Y-98044000D03*
%TO.P,SW0\u002C9,5*%
X90551000Y-98044000D03*
%TD*%
D12*
%TO.P,R3,1*%
%TO.N,Net-(SW0\u002C9-B)*%
X154940000Y-87857000D03*
D13*
%TO.P,R3,2*%
%TO.N,GND*%
X162560000Y-87857000D03*
%TD*%
D17*
%TO.P,J1,R*%
%TO.N,/LM_AUDIO*%
X169291000Y-91059000D03*
D18*
%TO.P,J1,RN*%
%TO.N,N/C*%
X171791000Y-92759000D03*
D19*
%TO.P,J1,S*%
%TO.N,GND*%
X174291000Y-99359000D03*
D18*
%TO.P,J1,T*%
%TO.N,/LM_AUDIO*%
X178791000Y-95859000D03*
D20*
%TO.P,J1,TN*%
%TO.N,N/C*%
X178491000Y-88259000D03*
%TD*%
D14*
%TO.P,U4,1,D2*%
%TO.N,/P5*%
X138811000Y-81915000D03*
D15*
%TO.P,U4,2,D1*%
%TO.N,/P6*%
X138811000Y-84455000D03*
%TO.P,U4,3,D0*%
%TO.N,/P7*%
X138811000Y-86995000D03*
%TO.P,U4,4,READY*%
%TO.N,unconnected-(U4-READY-Pad4)*%
X138811000Y-89535000D03*
%TO.P,U4,5,~{WE}*%
%TO.N,/~{WE}*%
X138811000Y-92075000D03*
%TO.P,U4,6,~{OE}*%
%TO.N,GND*%
X138811000Y-94615000D03*
%TO.P,U4,7,AUDIO_OUT*%
%TO.N,/SN_AUDIO*%
X138811000Y-97155000D03*
%TO.P,U4,8,GND*%
%TO.N,GND*%
X138811000Y-99695000D03*
%TO.P,U4,9,N.C.*%
%TO.N,unconnected-(U4-N.C.-Pad9)*%
X146431000Y-99695000D03*
%TO.P,U4,10,D7*%
%TO.N,/P0*%
X146431000Y-97155000D03*
%TO.P,U4,11,D6*%
%TO.N,/P1*%
X146431000Y-94615000D03*
%TO.P,U4,12,D5*%
%TO.N,/P2*%
X146431000Y-92075000D03*
%TO.P,U4,13,D4*%
%TO.N,/P3*%
X146431000Y-89535000D03*
%TO.P,U4,14,CLOCK*%
%TO.N,/SN76489_CLK*%
X146431000Y-86995000D03*
%TO.P,U4,15,D3*%
%TO.N,/P4*%
X146431000Y-84455000D03*
%TO.P,U4,16,VCC*%
%TO.N,+3.3V*%
X146431000Y-81915000D03*
%TD*%
%TO.P,C1,1*%
%TO.N,Net-(U3-BYPASS)*%
X124801000Y-71120000D03*
%TO.P,C1,2*%
%TO.N,GND*%
X122301000Y-71120000D03*
%TD*%
D12*
%TO.P,R6,1*%
%TO.N,Net-(U5-D3)*%
X154940000Y-97307000D03*
D13*
%TO.P,R6,2*%
%TO.N,/~{WE}*%
X162560000Y-97307000D03*
%TD*%
D12*
%TO.P,R4,1*%
%TO.N,Net-(U5-D10)*%
X154940000Y-91007000D03*
D13*
%TO.P,R4,2*%
%TO.N,Net-(D1-A)*%
X162560000Y-91007000D03*
%TD*%
D21*
%TO.P,J2,1,Pin_1*%
%TO.N,GND*%
X157607000Y-42796000D03*
D22*
%TO.P,J2,2,Pin_2*%
%TO.N,+3.3V*%
X160147000Y-42796000D03*
%TO.P,J2,3,Pin_3*%
%TO.N,/SCL*%
X162687000Y-42796000D03*
%TO.P,J2,4,Pin_4*%
%TO.N,/SDA*%
X165227000Y-42796000D03*
%TO.P,J2,5*%
%TO.N,N/C*%
X167767000Y-42796000D03*
%TO.P,J2,6*%
X170307000Y-42796000D03*
%TO.P,J2,7*%
X172847000Y-42796000D03*
%TO.P,J2,8*%
X175387000Y-42796000D03*
%TD*%
D23*
%TO.P,J4,1,Pin_1*%
%TO.N,/SN_AUDIO*%
X115570000Y-99187000D03*
D24*
%TO.P,J4,2,Pin_2*%
%TO.N,GND*%
X113570000Y-99187000D03*
%TD*%
D25*
%TO.P,U5,1,EN*%
%TO.N,unconnected-(U5-EN-Pad1)*%
X89411000Y-47115000D03*
D26*
%TO.P,U5,2,D3*%
%TO.N,Net-(U5-D3)*%
X89411000Y-49655000D03*
%TO.P,U5,3,D2*%
%TO.N,/SDA*%
X89411000Y-52195000D03*
%TO.P,U5,4,D1*%
%TO.N,/SCL*%
X89411000Y-54735000D03*
%TO.P,U5,5,D0*%
%TO.N,/SN76489_CLK*%
X89411000Y-57275000D03*
%TO.P,U5,6,D4*%
%TO.N,unconnected-(U5-D4-Pad6)*%
X89411000Y-59815000D03*
%TO.P,U5,7,D5*%
%TO.N,unconnected-(U5-D5-Pad7)*%
X89411000Y-62355000D03*
%TO.P,U5,8,3V3*%
%TO.N,+3.3V*%
X89411000Y-64895000D03*
%TO.P,U5,9,VBus*%
%TO.N,unconnected-(U5-VBus-Pad9)*%
X112271000Y-64895000D03*
%TO.P,U5,10,GND*%
%TO.N,GND*%
X112271000Y-62355000D03*
%TO.P,U5,11,D6*%
%TO.N,Net-(SW0\u002C10-A)*%
X112271000Y-59815000D03*
%TO.P,U5,12,D7*%
%TO.N,unconnected-(U5-D7-Pad12)*%
X112271000Y-57275000D03*
%TO.P,U5,13,D8*%
%TO.N,Net-(SW0\u002C9-A)*%
X112271000Y-54735000D03*
%TO.P,U5,14,D10*%
%TO.N,Net-(U5-D10)*%
X112271000Y-52195000D03*
%TO.P,U5,15,RX*%
%TO.N,unconnected-(U5-RX-Pad15)*%
X112271000Y-49655000D03*
%TO.P,U5,16,TX*%
%TO.N,unconnected-(U5-TX-Pad16)*%
X112271000Y-47115000D03*
%TD*%
D16*
%TO.P,SW0\u002C10,1,A*%
%TO.N,Net-(SW0\u002C10-A)*%
X100965000Y-90424000D03*
%TO.P,SW0\u002C10,2,B*%
%TO.N,Net-(SW0\u002C10-B)*%
X106045000Y-90424000D03*
%TO.P,SW0\u002C10,3*%
%TO.N,N/C*%
X106045000Y-98044000D03*
%TO.P,SW0\u002C10,4*%
X103505000Y-98044000D03*
%TO.P,SW0\u002C10,5*%
X100965000Y-98044000D03*
%TD*%
D12*
%TO.P,R5,1*%
%TO.N,Net-(SW0\u002C10-B)*%
X154940000Y-94157000D03*
D13*
%TO.P,R5,2*%
%TO.N,GND*%
X162560000Y-94157000D03*
%TD*%
D12*
%TO.P,RV1,1,1*%
%TO.N,/SN_AUDIO*%
X154940000Y-100457000D03*
D13*
%TO.P,RV1,2,2*%
%TO.N,Net-(U3-+)*%
X162560000Y-100457000D03*
%TD*%
D14*
%TO.P,U3,1,GAIN*%
%TO.N,Net-(R1-Pad1)*%
X166624000Y-72771000D03*
D15*
%TO.P,U3,2,-*%
%TO.N,GND*%
X166624000Y-75311000D03*
%TO.P,U3,3,+*%
%TO.N,Net-(U3-+)*%
X166624000Y-77851000D03*
%TO.P,U3,4,GND*%
%TO.N,GND*%
X166624000Y-80391000D03*
%TO.P,U3,5*%
%TO.N,/LM_AUDIO*%
X174244000Y-80391000D03*
%TO.P,U3,6,V+*%
%TO.N,+3.3V*%
X174244000Y-77851000D03*
%TO.P,U3,7,BYPASS*%
%TO.N,Net-(U3-BYPASS)*%
X174244000Y-75311000D03*
%TO.P,U3,8,GAIN*%
%TO.N,Net-(R1-Pad2)*%
X174244000Y-72771000D03*
%TD*%
D27*
%TO.N,Net-(R1-Pad1)*%
X154404500Y-74937600D03*
%TO.N,Net-(SW0\u002C9-B)*%
X151426800Y-77866300D03*
%TO.N,Net-(U5-D10)*%
X150807900Y-53945400D03*
%TO.N,Net-(U5-D3)*%
X139435200Y-48271700D03*
%TO.N,/SN76489_CLK*%
X141493600Y-58376700D03*
%TO.N,/SCL*%
X122845200Y-55836700D03*
X161083200Y-54523700D03*
%TO.N,/SDA*%
X127443600Y-54401800D03*
X130441500Y-49403400D03*
%TO.N,+3.3V*%
X129877300Y-69091200D03*
%TO.N,/P2*%
X127850500Y-94389000D03*
%TO.N,/P7*%
X131267200Y-86863500D03*
%TO.N,/P3*%
X142311000Y-96306500D03*
%TD*%
D28*
%TO.N,Net-(R1-Pad2)*%
X175373000Y-78284600D02*
X174414500Y-79243100D01*
X175373000Y-73900000D02*
X175373000Y-78284600D01*
X174414500Y-79243100D02*
X173833900Y-79243100D01*
X173833900Y-79243100D02*
X171520000Y-81557000D01*
X171520000Y-81557000D02*
X162560000Y-81557000D01*
X174244000Y-72771000D02*
X175373000Y-73900000D01*
%TO.N,Net-(R1-Pad1)*%
X156571100Y-72771000D02*
X154404500Y-74937600D01*
X166624000Y-72771000D02*
X156571100Y-72771000D01*
%TO.N,/LM_AUDIO*%
X162560000Y-84707000D02*
X163561700Y-84707000D01*
X169291000Y-91059000D02*
X169291000Y-89257300D01*
X168112000Y-89257300D02*
X169291000Y-89257300D01*
X163561700Y-84707000D02*
X168112000Y-89257300D01*
%TO.N,GND*%
X114546700Y-100163700D02*
X113570000Y-99187000D01*
X174291000Y-99359000D02*
X174291000Y-97807300D01*
X123284900Y-100678900D02*
X122174000Y-99568000D01*
X161558300Y-87857000D02*
X158408300Y-84707000D01*
X162560000Y-87857000D02*
X161558300Y-87857000D01*
X154049000Y-85598000D02*
X123444000Y-85598000D01*
X114739700Y-87000400D02*
X115565800Y-86174300D01*
X158408300Y-84707000D02*
X154940000Y-84707000D01*
X154940000Y-84707000D02*
X154049000Y-85598000D01*
X114739700Y-87376000D02*
X114739700Y-87000400D01*
X121480300Y-86174300D02*
X122174000Y-86868000D01*
X123444000Y-85598000D02*
X122174000Y-84328000D01*
X138811000Y-99695000D02*
X137827100Y-100678900D01*
X121578300Y-100163700D02*
X114546700Y-100163700D01*
X167212000Y-97807300D02*
X163561700Y-94157000D01*
X113538000Y-87376000D02*
X114739700Y-87376000D01*
X162560000Y-94157000D02*
X163561700Y-94157000D01*
X115565800Y-86174300D02*
X121480300Y-86174300D01*
X137827100Y-100678900D02*
X123284900Y-100678900D01*
X174291000Y-97807300D02*
X167212000Y-97807300D01*
X122174000Y-99568000D02*
X121578300Y-100163700D01*
%TO.N,Net-(SW0\u002C9-B)*%
X108188700Y-77866300D02*
X151426800Y-77866300D01*
X95631000Y-90424000D02*
X108188700Y-77866300D01*
%TO.N,Net-(U5-D10)*%
X112271000Y-52195000D02*
X149057500Y-52195000D01*
X149057500Y-52195000D02*
X150807900Y-53945400D01*
%TO.N,Net-(D1-A)*%
X160556600Y-90005300D02*
X149567200Y-90005300D01*
X116967000Y-88265000D02*
X116078000Y-87376000D01*
X149567200Y-90005300D02*
X147826900Y-88265000D01*
X162560000Y-91007000D02*
X161558300Y-91007000D01*
X147826900Y-88265000D02*
X116967000Y-88265000D01*
X161558300Y-91007000D02*
X160556600Y-90005300D01*
%TO.N,Net-(SW0\u002C10-B)*%
X151461000Y-90678000D02*
X106299000Y-90678000D01*
X154940000Y-94157000D02*
X151461000Y-90678000D01*
X106299000Y-90678000D02*
X106045000Y-90424000D01*
%TO.N,Net-(U5-D3)*%
X139435200Y-48271700D02*
X139153600Y-48553300D01*
X89411000Y-49655000D02*
X89411000Y-48553300D01*
X139153600Y-48553300D02*
X89411000Y-48553300D01*
%TO.N,/~{WE}*%
X146284500Y-93486500D02*
X144873000Y-92075000D01*
X144873000Y-92075000D02*
X138811000Y-92075000D01*
X160556600Y-96305300D02*
X151547300Y-96305300D01*
X161558300Y-97307000D02*
X160556600Y-96305300D01*
X151547300Y-96305300D02*
X148728500Y-93486500D01*
X148728500Y-93486500D02*
X146284500Y-93486500D01*
X162560000Y-97307000D02*
X161558300Y-97307000D01*
%TO.N,/SN_AUDIO*%
X117435700Y-98298000D02*
X137668000Y-98298000D01*
X116546700Y-99187000D02*
X117435700Y-98298000D01*
X137668000Y-98298000D02*
X138811000Y-97155000D01*
X115570000Y-99187000D02*
X116546700Y-99187000D01*
X140123800Y-98467800D02*
X138811000Y-97155000D01*
X152950800Y-98467800D02*
X140123800Y-98467800D01*
X154940000Y-100457000D02*
X152950800Y-98467800D01*
%TO.N,/SN76489_CLK*%
X89411000Y-57275000D02*
X89411000Y-58376700D01*
X89411000Y-58376700D02*
X141493600Y-58376700D01*
%TO.N,/SCL*%
X89411000Y-54735000D02*
X89411000Y-55836700D01*
X89411000Y-55836700D02*
X122845200Y-55836700D01*
X159770200Y-55836700D02*
X122845200Y-55836700D01*
X161083200Y-54523700D02*
X159770200Y-55836700D01*
%TO.N,/SDA*%
X126338500Y-53296700D02*
X89411000Y-53296700D01*
X127443600Y-54401800D02*
X126338500Y-53296700D01*
X158619600Y-49403400D02*
X165227000Y-42796000D01*
X89411000Y-52195000D02*
X89411000Y-53296700D01*
X130441500Y-49403400D02*
X158619600Y-49403400D01*
%TO.N,+3.3V*%
X174244000Y-77851000D02*
X173009200Y-79085800D01*
X171744400Y-79085800D02*
X171578100Y-79252100D01*
X131069700Y-83063700D02*
X129794000Y-81788000D01*
X92505500Y-69091200D02*
X89411000Y-65996700D01*
X89411000Y-64895000D02*
X89411000Y-65996700D01*
X129877300Y-69091200D02*
X92505500Y-69091200D01*
X173009200Y-79085800D02*
X171744400Y-79085800D01*
X149093900Y-79252100D02*
X171578100Y-79252100D01*
X146431000Y-81915000D02*
X145282300Y-83063700D01*
X171744400Y-79085800D02*
X171578100Y-79252100D01*
X146431000Y-81915000D02*
X149093900Y-79252100D01*
X145282300Y-83063700D02*
X131069700Y-83063700D01*
%TO.N,Net-(U3-BYPASS)*%
X130161500Y-76480500D02*
X124801000Y-71120000D01*
X174244000Y-75311000D02*
X173074500Y-76480500D01*
X173074500Y-76480500D02*
X130161500Y-76480500D01*
%TO.N,/P1*%
X122174000Y-91948000D02*
X123447000Y-93221000D01*
X145037000Y-93221000D02*
X146431000Y-94615000D01*
X123447000Y-93221000D02*
X145037000Y-93221000D01*
%TO.N,/P2*%
X127850500Y-94389000D02*
X122273000Y-94389000D01*
X122273000Y-94389000D02*
X122174000Y-94488000D01*
%TO.N,/P7*%
X138679500Y-86863500D02*
X138811000Y-86995000D01*
X131267200Y-86863500D02*
X138679500Y-86863500D01*
%TO.N,/P3*%
X141923000Y-95918500D02*
X142311000Y-96306500D01*
X123283500Y-95918500D02*
X122174000Y-97028000D01*
X142311000Y-96306500D02*
X141923000Y-95918500D01*
X141923000Y-95918500D02*
X123283500Y-95918500D01*
X142311000Y-96306500D02*
X141923000Y-95918500D01*
%TD*%
M02*
