%TF.GenerationSoftware,KiCad,Pcbnew,9.0.1*%
%TF.CreationDate,2026-01-18T13:51:58+01:00*%
%TF.ProjectId,SN76489 synth midi,534e3736-3438-4392-9073-796e7468206d,rev?*%
%TF.SameCoordinates,Original*%
%TF.FileFunction,Legend,Top*%
%TF.FilePolarity,Positive*%
%FSLAX46Y46*%
G04 Gerber Fmt 4.6, Leading zero omitted, Abs format (unit mm)*
G04 Created by KiCad (PCBNEW 9.0.1) date 2026-01-18 13:51:58*
%MOMM*%
%LPD*%
G01*
G04 APERTURE LIST*
%ADD10C,0.100000*%
%ADD11C,0.150000*%
%ADD12C,0.120000*%
G04 APERTURE END LIST*
D10*
X171449419Y-89421687D02*
X170973228Y-89755020D01*
X171449419Y-89993115D02*
X170449419Y-89993115D01*
X170449419Y-89993115D02*
X170449419Y-89612163D01*
X170449419Y-89612163D02*
X170497038Y-89516925D01*
X170497038Y-89516925D02*
X170544657Y-89469306D01*
X170544657Y-89469306D02*
X170639895Y-89421687D01*
X170639895Y-89421687D02*
X170782752Y-89421687D01*
X170782752Y-89421687D02*
X170877990Y-89469306D01*
X170877990Y-89469306D02*
X170925609Y-89516925D01*
X170925609Y-89516925D02*
X170973228Y-89612163D01*
X170973228Y-89612163D02*
X170973228Y-89993115D01*
X176164419Y-95977972D02*
X176164419Y-95406544D01*
X177164419Y-95692258D02*
X176164419Y-95692258D01*
G36*
X119197687Y-46762000D02*
G01*
X119197687Y-46748017D01*
X119165339Y-46744534D01*
X119138885Y-46737514D01*
X119096936Y-46716509D01*
X119071047Y-46694100D01*
X119060544Y-46680789D01*
X119053746Y-46663694D01*
X119048637Y-46638107D01*
X119045157Y-46584130D01*
X119043752Y-46427326D01*
X119043752Y-46276078D01*
X119043752Y-46148645D01*
X119045157Y-46018402D01*
X119049370Y-45919056D01*
X119054077Y-45872017D01*
X119060544Y-45844807D01*
X119076139Y-45816521D01*
X119101821Y-45791562D01*
X119136308Y-45775086D01*
X119189260Y-45767748D01*
X119189260Y-45753765D01*
X118891284Y-45753765D01*
X118856968Y-45835709D01*
X118780031Y-46012846D01*
X118674396Y-46250921D01*
X118554107Y-46515558D01*
X118219738Y-45753765D01*
X117921762Y-45753765D01*
X117921762Y-45767748D01*
X117962306Y-45776907D01*
X117985343Y-45785093D01*
X118007064Y-45797179D01*
X118026352Y-45813474D01*
X118043456Y-45835709D01*
X118055012Y-45862625D01*
X118060248Y-45899395D01*
X118061652Y-45968027D01*
X118061652Y-46022615D01*
X118061652Y-46075860D01*
X118061652Y-46144431D01*
X118060248Y-46320225D01*
X118056034Y-46462314D01*
X118052696Y-46531048D01*
X118046265Y-46583458D01*
X118034962Y-46630638D01*
X118019703Y-46666806D01*
X117998194Y-46696906D01*
X117970733Y-46719318D01*
X117937099Y-46735311D01*
X117890987Y-46748017D01*
X117890987Y-46762000D01*
X118256130Y-46762000D01*
X118256130Y-46748017D01*
X118199715Y-46736177D01*
X118161669Y-46720722D01*
X118131597Y-46698112D01*
X118110623Y-46668882D01*
X118097348Y-46633543D01*
X118089618Y-46587671D01*
X118085466Y-46473549D01*
X118085466Y-46294274D01*
X118086137Y-46147973D01*
X118087481Y-46007961D01*
X118088213Y-45844807D01*
X118114103Y-45903608D01*
X118162402Y-46011441D01*
X118228103Y-46158475D01*
X118306444Y-46335613D01*
X118392479Y-46532350D01*
X118481383Y-46738186D01*
X118489749Y-46738186D01*
X118503732Y-46703870D01*
X118527545Y-46646473D01*
X118552702Y-46584862D01*
X118572303Y-46540715D01*
X118656933Y-46351000D01*
X118733137Y-46182289D01*
X118809401Y-46012846D01*
X118894093Y-45822397D01*
X118894093Y-46218681D01*
X118894093Y-46392338D01*
X118891284Y-46568742D01*
X118885666Y-46624063D01*
X118873088Y-46669554D01*
X118853693Y-46696031D01*
X118818500Y-46721394D01*
X118774740Y-46738474D01*
X118717810Y-46746612D01*
X118717810Y-46762000D01*
X119197687Y-46762000D01*
G37*
G36*
X119490900Y-45866422D02*
G01*
X119485395Y-45837058D01*
X119469224Y-45813666D01*
X119445157Y-45798141D01*
X119415368Y-45792844D01*
X119385579Y-45798141D01*
X119361512Y-45813666D01*
X119345340Y-45837058D01*
X119339836Y-45866422D01*
X119345377Y-45894768D01*
X119362184Y-45919178D01*
X119386767Y-45935836D01*
X119415368Y-45941344D01*
X119445104Y-45935897D01*
X119469224Y-45919850D01*
X119485422Y-45895860D01*
X119490900Y-45866422D01*
G37*
G36*
X119569241Y-46762000D02*
G01*
X119569241Y-46748017D01*
X119540542Y-46744536D01*
X119513309Y-46740995D01*
X119491633Y-46731897D01*
X119484307Y-46724019D01*
X119479726Y-46711624D01*
X119479726Y-46086302D01*
X119471361Y-46086302D01*
X119282500Y-46147851D01*
X119282500Y-46156216D01*
X119319503Y-46171665D01*
X119349606Y-46188395D01*
X119361512Y-46203844D01*
X119363588Y-46223383D01*
X119363588Y-46703259D01*
X119361306Y-46714819D01*
X119354490Y-46724264D01*
X119332142Y-46737514D01*
X119302039Y-46744536D01*
X119268456Y-46748017D01*
X119268456Y-46762000D01*
X119569241Y-46762000D01*
G37*
G36*
X120215874Y-46560499D02*
G01*
X120204700Y-46554882D01*
X120166302Y-46604624D01*
X120120741Y-46639512D01*
X120085924Y-46654577D01*
X120041042Y-46664538D01*
X119983660Y-46668210D01*
X119930978Y-46663009D01*
X119884986Y-46647999D01*
X119844242Y-46623520D01*
X119810187Y-46590724D01*
X119783299Y-46550622D01*
X119762620Y-46501392D01*
X119750166Y-46447341D01*
X119745829Y-46386171D01*
X119749757Y-46330087D01*
X119761216Y-46278643D01*
X119779738Y-46230820D01*
X119803165Y-46190715D01*
X119832520Y-46156535D01*
X119866118Y-46130632D01*
X119904176Y-46113891D01*
X119945863Y-46108284D01*
X119983457Y-46112555D01*
X120011327Y-46124168D01*
X120031898Y-46142478D01*
X120046767Y-46166577D01*
X120055958Y-46194862D01*
X120059192Y-46228390D01*
X120057299Y-46255115D01*
X120052170Y-46275834D01*
X120060977Y-46294861D01*
X120076655Y-46310761D01*
X120096761Y-46321193D01*
X120119337Y-46324683D01*
X120146647Y-46319336D01*
X120170384Y-46303067D01*
X120186747Y-46279372D01*
X120192121Y-46252081D01*
X120186601Y-46213711D01*
X120170445Y-46180885D01*
X120145722Y-46152871D01*
X120113780Y-46129227D01*
X120076959Y-46110972D01*
X120034035Y-46097109D01*
X119988922Y-46088730D01*
X119943055Y-46085935D01*
X119876685Y-46093046D01*
X119816476Y-46113962D01*
X119762227Y-46146621D01*
X119716397Y-46188090D01*
X119679169Y-46237627D01*
X119650635Y-46295129D01*
X119632861Y-46357314D01*
X119626882Y-46423113D01*
X119632740Y-46492896D01*
X119649963Y-46557446D01*
X119677715Y-46616910D01*
X119713588Y-46667294D01*
X119758288Y-46708826D01*
X119811530Y-46740018D01*
X119870878Y-46759332D01*
X119936094Y-46765907D01*
X119987911Y-46761919D01*
X120034707Y-46750337D01*
X120078074Y-46731317D01*
X120116528Y-46705763D01*
X120150252Y-46674532D01*
X120178077Y-46639573D01*
X120200191Y-46601125D01*
X120215874Y-46560499D01*
G37*
G36*
X120922774Y-46762000D02*
G01*
X120922774Y-46749421D01*
X120896151Y-46745941D01*
X120869590Y-46740323D01*
X120848585Y-46729821D01*
X120842250Y-46721988D01*
X120840220Y-46713029D01*
X120840220Y-46300075D01*
X120838224Y-46254863D01*
X120832526Y-46214712D01*
X120821774Y-46177504D01*
X120805904Y-46146813D01*
X120783966Y-46121355D01*
X120755528Y-46102055D01*
X120721728Y-46090246D01*
X120677920Y-46085935D01*
X120631737Y-46090066D01*
X120590481Y-46102055D01*
X120552349Y-46119993D01*
X120519834Y-46140524D01*
X120491148Y-46164122D01*
X120468726Y-46188151D01*
X120438684Y-46232969D01*
X120435876Y-46231565D01*
X120440089Y-45745949D01*
X120428915Y-45745949D01*
X120241458Y-45831312D01*
X120241458Y-45839739D01*
X120278461Y-45860011D01*
X120308564Y-45878939D01*
X120320471Y-45891518D01*
X120322608Y-45908310D01*
X120322608Y-46703198D01*
X120316163Y-46725052D01*
X120296718Y-46737514D01*
X120238650Y-46748017D01*
X120238650Y-46762000D01*
X120517025Y-46762000D01*
X120517025Y-46747956D01*
X120489060Y-46743742D01*
X120463841Y-46738857D01*
X120445645Y-46728294D01*
X120440538Y-46720182D01*
X120438684Y-46708632D01*
X120438684Y-46277544D01*
X120443569Y-46252997D01*
X120451263Y-46235412D01*
X120475565Y-46207837D01*
X120507195Y-46186258D01*
X120544705Y-46172854D01*
X120592557Y-46168001D01*
X120629522Y-46171797D01*
X120656915Y-46182045D01*
X120679463Y-46198868D01*
X120696788Y-46221368D01*
X120708963Y-46248363D01*
X120717060Y-46281757D01*
X120722678Y-46357594D01*
X120722678Y-46708632D01*
X120716657Y-46726760D01*
X120697521Y-46737453D01*
X120634567Y-46746551D01*
X120634567Y-46762000D01*
X120922774Y-46762000D01*
G37*
G36*
X121183991Y-45866422D02*
G01*
X121178487Y-45837058D01*
X121162315Y-45813666D01*
X121138249Y-45798141D01*
X121108459Y-45792844D01*
X121078670Y-45798141D01*
X121054604Y-45813666D01*
X121038432Y-45837058D01*
X121032927Y-45866422D01*
X121038468Y-45894768D01*
X121055275Y-45919178D01*
X121079858Y-45935836D01*
X121108459Y-45941344D01*
X121138196Y-45935897D01*
X121162315Y-45919850D01*
X121178514Y-45895860D01*
X121183991Y-45866422D01*
G37*
G36*
X121262332Y-46762000D02*
G01*
X121262332Y-46748017D01*
X121233634Y-46744536D01*
X121206401Y-46740995D01*
X121184724Y-46731897D01*
X121177398Y-46724019D01*
X121172817Y-46711624D01*
X121172817Y-46086302D01*
X121164452Y-46086302D01*
X120975591Y-46147851D01*
X120975591Y-46156216D01*
X121012594Y-46171665D01*
X121042697Y-46188395D01*
X121054604Y-46203844D01*
X121056680Y-46223383D01*
X121056680Y-46703259D01*
X121054397Y-46714819D01*
X121047582Y-46724264D01*
X121025234Y-46737514D01*
X120995131Y-46744536D01*
X120961547Y-46748017D01*
X120961547Y-46762000D01*
X121262332Y-46762000D01*
G37*
G36*
X121668672Y-46089501D02*
G01*
X121717967Y-46099918D01*
X121763594Y-46117813D01*
X121801926Y-46142539D01*
X121834079Y-46174577D01*
X121859995Y-46214529D01*
X121877538Y-46260465D01*
X121886617Y-46316501D01*
X121437516Y-46316501D01*
X121436111Y-46342329D01*
X121434707Y-46372310D01*
X121438946Y-46429981D01*
X121451498Y-46484662D01*
X121472357Y-46535692D01*
X121500469Y-46579611D01*
X121536643Y-46616253D01*
X121581619Y-46644519D01*
X121633247Y-46662036D01*
X121694948Y-46668210D01*
X121740490Y-46664091D01*
X121780969Y-46652153D01*
X121817374Y-46632551D01*
X121849192Y-46606133D01*
X121871881Y-46577130D01*
X121886617Y-46545112D01*
X121897791Y-46547860D01*
X121889210Y-46579097D01*
X121872573Y-46617163D01*
X121849765Y-46653737D01*
X121819450Y-46687811D01*
X121783030Y-46716871D01*
X121738972Y-46740995D01*
X121690223Y-46756604D01*
X121634803Y-46762000D01*
X121565757Y-46755208D01*
X121504621Y-46735499D01*
X121450149Y-46703461D01*
X121404604Y-46660761D01*
X121368349Y-46608896D01*
X121340918Y-46547615D01*
X121324232Y-46481190D01*
X121318569Y-46409984D01*
X121323744Y-46351833D01*
X121338393Y-46297511D01*
X121440324Y-46297511D01*
X121497660Y-46297511D01*
X121547303Y-46296839D01*
X121598349Y-46295435D01*
X121657151Y-46294702D01*
X121696291Y-46293359D01*
X121728470Y-46286337D01*
X121743185Y-46265393D01*
X121748070Y-46235961D01*
X121744056Y-46202871D01*
X121732290Y-46173583D01*
X121712411Y-46147118D01*
X121686529Y-46126875D01*
X121655131Y-46114451D01*
X121616607Y-46110054D01*
X121579313Y-46115830D01*
X121545898Y-46133135D01*
X121516498Y-46158185D01*
X121491371Y-46186991D01*
X121470637Y-46218436D01*
X121455712Y-46249273D01*
X121440324Y-46297511D01*
X121338393Y-46297511D01*
X121339513Y-46293359D01*
X121364978Y-46238209D01*
X121398986Y-46189311D01*
X121441497Y-46147736D01*
X121492775Y-46114573D01*
X121550439Y-46093229D01*
X121615202Y-46085935D01*
X121668672Y-46089501D01*
G37*
G36*
X122236434Y-46762000D02*
G01*
X122236434Y-46746612D01*
X122190272Y-46743132D01*
X122158093Y-46739590D01*
X122139164Y-46729821D01*
X122134616Y-46721602D01*
X122132875Y-46708816D01*
X122132875Y-45749857D01*
X122123105Y-45749857D01*
X121923070Y-45815620D01*
X121923070Y-45824046D01*
X121965019Y-45845784D01*
X122002816Y-45867460D01*
X122014661Y-45880039D01*
X122016799Y-45896830D01*
X122016799Y-46701794D01*
X122011579Y-46720827D01*
X121995794Y-46733301D01*
X121969314Y-46740292D01*
X121910431Y-46746612D01*
X121910431Y-46762000D01*
X122236434Y-46762000D01*
G37*
G36*
X123521151Y-46494554D02*
G01*
X123505764Y-46490340D01*
X123470159Y-46547899D01*
X123437864Y-46593289D01*
X123403765Y-46633415D01*
X123370026Y-46665401D01*
X123333913Y-46691752D01*
X123297303Y-46710892D01*
X123258281Y-46724243D01*
X123214749Y-46732568D01*
X123137140Y-46739590D01*
X123076263Y-46740995D01*
X123021441Y-46738823D01*
X122972765Y-46732629D01*
X122931023Y-46719988D01*
X122912559Y-46704602D01*
X122902848Y-46682044D01*
X122896500Y-46645068D01*
X122891615Y-46560377D01*
X122890883Y-46526061D01*
X122890211Y-46483318D01*
X122890211Y-46435752D01*
X122890211Y-46393742D01*
X122890211Y-46315279D01*
X122893020Y-46257882D01*
X122929351Y-46257882D01*
X122957378Y-46257882D01*
X122985344Y-46258615D01*
X123020331Y-46260691D01*
X123060666Y-46266173D01*
X123093726Y-46276139D01*
X123123394Y-46290734D01*
X123147643Y-46308318D01*
X123170920Y-46336047D01*
X123195881Y-46379698D01*
X123216280Y-46427422D01*
X123230136Y-46472144D01*
X123246928Y-46472144D01*
X123246928Y-46031042D01*
X123230136Y-46031042D01*
X123211268Y-46101750D01*
X123198809Y-46131730D01*
X123183241Y-46157071D01*
X123163429Y-46178881D01*
X123137812Y-46197676D01*
X123107617Y-46212242D01*
X123067898Y-46224299D01*
X123022407Y-46230588D01*
X122967819Y-46234069D01*
X122919581Y-46235473D01*
X122891615Y-46235473D01*
X122891615Y-46220086D01*
X122890883Y-46184365D01*
X122890211Y-46124831D01*
X122890211Y-46035255D01*
X122892287Y-45872833D01*
X122897172Y-45780387D01*
X122942662Y-45775503D01*
X123003540Y-45773366D01*
X123092397Y-45775667D01*
X123160221Y-45781792D01*
X123219328Y-45792003D01*
X123248332Y-45801392D01*
X123310219Y-45839859D01*
X123380564Y-45901309D01*
X123461006Y-45991841D01*
X123474989Y-45984819D01*
X123379857Y-45753765D01*
X122607622Y-45753765D01*
X122607622Y-45767748D01*
X122669110Y-45779655D01*
X122691592Y-45789575D01*
X122713929Y-45808353D01*
X122720981Y-45818511D01*
X122727179Y-45835709D01*
X122734201Y-45878390D01*
X122737010Y-45928826D01*
X122737681Y-45980606D01*
X122737681Y-46253669D01*
X122737681Y-46334880D01*
X122737010Y-46416823D01*
X122735605Y-46490340D01*
X122734934Y-46543524D01*
X122733529Y-46589076D01*
X122728583Y-46633161D01*
X122720890Y-46670286D01*
X122709715Y-46694772D01*
X122687771Y-46714539D01*
X122660012Y-46729821D01*
X122629069Y-46740565D01*
X122594982Y-46748017D01*
X122594982Y-46762000D01*
X123451237Y-46762000D01*
X123521151Y-46494554D01*
G37*
G36*
X124045663Y-46159636D02*
G01*
X124039549Y-46130449D01*
X124021177Y-46106818D01*
X123994383Y-46091268D01*
X123961704Y-46085935D01*
X123920545Y-46091966D01*
X123884768Y-46109749D01*
X123853584Y-46135834D01*
X123827371Y-46166413D01*
X123788231Y-46231504D01*
X123765822Y-46280475D01*
X123763013Y-46280475D01*
X123765822Y-46085935D01*
X123757456Y-46085935D01*
X123574152Y-46156277D01*
X123574152Y-46164581D01*
X123607735Y-46182106D01*
X123637106Y-46199630D01*
X123649012Y-46212270D01*
X123651150Y-46229062D01*
X123651150Y-46703076D01*
X123645548Y-46722127D01*
X123628008Y-46735377D01*
X123603559Y-46743198D01*
X123572748Y-46747956D01*
X123572748Y-46762000D01*
X123886172Y-46762000D01*
X123886172Y-46747956D01*
X123853260Y-46744475D01*
X123816868Y-46740934D01*
X123785422Y-46731164D01*
X123773693Y-46722532D01*
X123767226Y-46711502D01*
X123767226Y-46307403D01*
X123786826Y-46263195D01*
X123811983Y-46221856D01*
X123842086Y-46191692D01*
X123858697Y-46182584D01*
X123874937Y-46179725D01*
X123893161Y-46181853D01*
X123905712Y-46187479D01*
X123926717Y-46205126D01*
X123949797Y-46222772D01*
X123964506Y-46228395D01*
X123985457Y-46230527D01*
X124007505Y-46225661D01*
X124027467Y-46210377D01*
X124040973Y-46188004D01*
X124045663Y-46159636D01*
G37*
G36*
X124448601Y-46090638D02*
G01*
X124481942Y-46104864D01*
X124510083Y-46126529D01*
X124528103Y-46151698D01*
X124532253Y-46163424D01*
X124535064Y-46185953D01*
X124536469Y-46234252D01*
X124535736Y-46325171D01*
X124535064Y-46403512D01*
X124534332Y-46481181D01*
X124533660Y-46568620D01*
X124536806Y-46610392D01*
X124544585Y-46636495D01*
X124555337Y-46651846D01*
X124578826Y-46667129D01*
X124605040Y-46672118D01*
X124634439Y-46668326D01*
X124652606Y-46658624D01*
X124665453Y-46643277D01*
X124673611Y-46623697D01*
X124681976Y-46623697D01*
X124678156Y-46649800D01*
X124669398Y-46675415D01*
X124656453Y-46699328D01*
X124640028Y-46720784D01*
X124620202Y-46738655D01*
X124597346Y-46751558D01*
X124571965Y-46759326D01*
X124543491Y-46762000D01*
X124498408Y-46754981D01*
X124458800Y-46734095D01*
X124439304Y-46712606D01*
X124426559Y-46681222D01*
X124421736Y-46636275D01*
X124418988Y-46634871D01*
X124388885Y-46675843D01*
X124344128Y-46718219D01*
X124316952Y-46735998D01*
X124286730Y-46750032D01*
X124254192Y-46758921D01*
X124217488Y-46762000D01*
X124171997Y-46755710D01*
X124150062Y-46746967D01*
X124130049Y-46733240D01*
X124113144Y-46715083D01*
X124099274Y-46691780D01*
X124090551Y-46664757D01*
X124087367Y-46630047D01*
X124094822Y-46592420D01*
X124102098Y-46580832D01*
X124197948Y-46580832D01*
X124204139Y-46615225D01*
X124223105Y-46646656D01*
X124241599Y-46662959D01*
X124263186Y-46672664D01*
X124288868Y-46676026D01*
X124324012Y-46673815D01*
X124353165Y-46667661D01*
X124379674Y-46655665D01*
X124404944Y-46635421D01*
X124417489Y-46618040D01*
X124421736Y-46596220D01*
X124421736Y-46380675D01*
X124358782Y-46419205D01*
X124285387Y-46463290D01*
X124251779Y-46488613D01*
X124223838Y-46515742D01*
X124204321Y-46546614D01*
X124197948Y-46580832D01*
X124102098Y-46580832D01*
X124118814Y-46554210D01*
X124153371Y-46519973D01*
X124196483Y-46488203D01*
X124278304Y-46437706D01*
X124340586Y-46401924D01*
X124387420Y-46376645D01*
X124421736Y-46357655D01*
X124421736Y-46213064D01*
X124416851Y-46199752D01*
X124400059Y-46177954D01*
X124367147Y-46157621D01*
X124344417Y-46150989D01*
X124312620Y-46148461D01*
X124268595Y-46156155D01*
X124230127Y-46175756D01*
X124203505Y-46199569D01*
X124195799Y-46211372D01*
X124193735Y-46219841D01*
X124193735Y-46282795D01*
X124189005Y-46300721D01*
X124173402Y-46317783D01*
X124152068Y-46329390D01*
X124129377Y-46333170D01*
X124108578Y-46329171D01*
X124090848Y-46317111D01*
X124078721Y-46299578D01*
X124074789Y-46279986D01*
X124076896Y-46263840D01*
X124083154Y-46249212D01*
X124104159Y-46224055D01*
X124131453Y-46204454D01*
X124157343Y-46189067D01*
X124231471Y-46148767D01*
X124303522Y-46115855D01*
X124366476Y-46094117D01*
X124413370Y-46085935D01*
X124448601Y-46090638D01*
G37*
G36*
X125174920Y-46558423D02*
G01*
X125169836Y-46512452D01*
X125155153Y-46472742D01*
X125130834Y-46437889D01*
X125099139Y-46408743D01*
X125063679Y-46387391D01*
X125023794Y-46373348D01*
X124960841Y-46358632D01*
X124893735Y-46343917D01*
X124851727Y-46329408D01*
X124819546Y-46310272D01*
X124803923Y-46293148D01*
X124793904Y-46269173D01*
X124790176Y-46235961D01*
X124793096Y-46205011D01*
X124801350Y-46179175D01*
X124814321Y-46156418D01*
X124829988Y-46138509D01*
X124848824Y-46124359D01*
X124870593Y-46113962D01*
X124893946Y-46107626D01*
X124917488Y-46105536D01*
X124955068Y-46109194D01*
X124986669Y-46119580D01*
X125014997Y-46136461D01*
X125040525Y-46159575D01*
X125062878Y-46187360D01*
X125083939Y-46221246D01*
X125123140Y-46299037D01*
X125134314Y-46296228D01*
X125117523Y-46122389D01*
X125032160Y-46096438D01*
X124985571Y-46088733D01*
X124928662Y-46085935D01*
X124883481Y-46089326D01*
X124841894Y-46099247D01*
X124803493Y-46115712D01*
X124770576Y-46137837D01*
X124742923Y-46165540D01*
X124721605Y-46198104D01*
X124708066Y-46234794D01*
X124703409Y-46276628D01*
X124707242Y-46317598D01*
X124718265Y-46353233D01*
X124736259Y-46384583D01*
X124760492Y-46411547D01*
X124788991Y-46432442D01*
X124822355Y-46447659D01*
X124885309Y-46465916D01*
X124958032Y-46481303D01*
X125001493Y-46496367D01*
X125032892Y-46519894D01*
X125053198Y-46551854D01*
X125060187Y-46592068D01*
X125055106Y-46643857D01*
X125041416Y-46682260D01*
X125020314Y-46710525D01*
X124991596Y-46731456D01*
X124956512Y-46744436D01*
X124913274Y-46749055D01*
X124869444Y-46743777D01*
X124833529Y-46728782D01*
X124802413Y-46705663D01*
X124776132Y-46676881D01*
X124754195Y-46644051D01*
X124735588Y-46608188D01*
X124707622Y-46537357D01*
X124696448Y-46537357D01*
X124696448Y-46722432D01*
X124744126Y-46740856D01*
X124797137Y-46754733D01*
X124852747Y-46763044D01*
X124913274Y-46765907D01*
X124964254Y-46763064D01*
X125011887Y-46754733D01*
X125056590Y-46739812D01*
X125095174Y-46718280D01*
X125127798Y-46689437D01*
X125153243Y-46653067D01*
X125169248Y-46610497D01*
X125174920Y-46558423D01*
G37*
G36*
X126287079Y-46762000D02*
G01*
X126287079Y-46749421D01*
X126260518Y-46745941D01*
X126234628Y-46740323D01*
X126214295Y-46729821D01*
X126207960Y-46721988D01*
X126205930Y-46713029D01*
X126205930Y-46295923D01*
X126200907Y-46235556D01*
X126186856Y-46185839D01*
X126164653Y-46144737D01*
X126133174Y-46112408D01*
X126093276Y-46092875D01*
X126042226Y-46085935D01*
X126005129Y-46089754D01*
X125968770Y-46101323D01*
X125934626Y-46119035D01*
X125903740Y-46141256D01*
X125875957Y-46166952D01*
X125851961Y-46194440D01*
X125817034Y-46248296D01*
X125812821Y-46248296D01*
X125802260Y-46200475D01*
X125785116Y-46161579D01*
X125761774Y-46130021D01*
X125731782Y-46105767D01*
X125696193Y-46091079D01*
X125653330Y-46085935D01*
X125616359Y-46089626D01*
X125581279Y-46100651D01*
X125548160Y-46117116D01*
X125517592Y-46137043D01*
X125489860Y-46160221D01*
X125465813Y-46186014D01*
X125429482Y-46238526D01*
X125426673Y-46237122D01*
X125426673Y-46085935D01*
X125418308Y-46085935D01*
X125235003Y-46151698D01*
X125235003Y-46162933D01*
X125268587Y-46178992D01*
X125297957Y-46195112D01*
X125309864Y-46207751D01*
X125312001Y-46224482D01*
X125312001Y-46703198D01*
X125306404Y-46722197D01*
X125288859Y-46735438D01*
X125264410Y-46743259D01*
X125233599Y-46748017D01*
X125233599Y-46762000D01*
X125505014Y-46762000D01*
X125505014Y-46748017D01*
X125478452Y-46744597D01*
X125455371Y-46741056D01*
X125437847Y-46732019D01*
X125428077Y-46711747D01*
X125428077Y-46253974D01*
X125464505Y-46218194D01*
X125493840Y-46195356D01*
X125526108Y-46181045D01*
X125569372Y-46175817D01*
X125615369Y-46181678D01*
X125647987Y-46197476D01*
X125670794Y-46222589D01*
X125685853Y-46255047D01*
X125695812Y-46297251D01*
X125699492Y-46351672D01*
X125699492Y-46708938D01*
X125693957Y-46727185D01*
X125677083Y-46737575D01*
X125616938Y-46746673D01*
X125616938Y-46762000D01*
X125892566Y-46762000D01*
X125892566Y-46749421D01*
X125866676Y-46745941D01*
X125842191Y-46740384D01*
X125823995Y-46729943D01*
X125817034Y-46713151D01*
X125817034Y-46262340D01*
X125850981Y-46226952D01*
X125881392Y-46200241D01*
X125915225Y-46182176D01*
X125958329Y-46175817D01*
X126004189Y-46181813D01*
X126036826Y-46198036D01*
X126059750Y-46223994D01*
X126074902Y-46257326D01*
X126084819Y-46299640D01*
X126088449Y-46353076D01*
X126088449Y-46708938D01*
X126083430Y-46727443D01*
X126068848Y-46737575D01*
X126011512Y-46746673D01*
X126011512Y-46762000D01*
X126287079Y-46762000D01*
G37*
G36*
X127011748Y-46726645D02*
G01*
X127011748Y-46718463D01*
X126970532Y-46700328D01*
X126933407Y-46682193D01*
X126921500Y-46669615D01*
X126919424Y-46652884D01*
X126919424Y-46101567D01*
X126684401Y-46101567D01*
X126684401Y-46116893D01*
X126743875Y-46123915D01*
X126789304Y-46135089D01*
X126795987Y-46147878D01*
X126800539Y-46167879D01*
X126803348Y-46203477D01*
X126803348Y-46601227D01*
X126776054Y-46633345D01*
X126743875Y-46660578D01*
X126704674Y-46680117D01*
X126681879Y-46685719D01*
X126653627Y-46687750D01*
X126604524Y-46682039D01*
X126570990Y-46666993D01*
X126548663Y-46643786D01*
X126534376Y-46612997D01*
X126524489Y-46568999D01*
X126520698Y-46507682D01*
X126520698Y-46101567D01*
X126303871Y-46101567D01*
X126303871Y-46116893D01*
X126330433Y-46119030D01*
X126356994Y-46122511D01*
X126380136Y-46130876D01*
X126389252Y-46138020D01*
X126396195Y-46149011D01*
X126399675Y-46162322D01*
X126401812Y-46181862D01*
X126403217Y-46202073D01*
X126403217Y-46217399D01*
X126403217Y-46557935D01*
X126408700Y-46624712D01*
X126423463Y-46675142D01*
X126445898Y-46712907D01*
X126477970Y-46741375D01*
X126520857Y-46759335D01*
X126578095Y-46765907D01*
X126616382Y-46762723D01*
X126651551Y-46753390D01*
X126684353Y-46738486D01*
X126713772Y-46719196D01*
X126764147Y-46671019D01*
X126801943Y-46620766D01*
X126803348Y-46622170D01*
X126803348Y-46762000D01*
X126813117Y-46762000D01*
X127011748Y-46726645D01*
G37*
G36*
X127551891Y-46558423D02*
G01*
X127546807Y-46512452D01*
X127532124Y-46472742D01*
X127507805Y-46437889D01*
X127476110Y-46408743D01*
X127440650Y-46387391D01*
X127400766Y-46373348D01*
X127337812Y-46358632D01*
X127270706Y-46343917D01*
X127228698Y-46329408D01*
X127196518Y-46310272D01*
X127180894Y-46293148D01*
X127170876Y-46269173D01*
X127167147Y-46235961D01*
X127170067Y-46205011D01*
X127178322Y-46179175D01*
X127191292Y-46156418D01*
X127206959Y-46138509D01*
X127225795Y-46124359D01*
X127247564Y-46113962D01*
X127270917Y-46107626D01*
X127294459Y-46105536D01*
X127332040Y-46109194D01*
X127363641Y-46119580D01*
X127391968Y-46136461D01*
X127417496Y-46159575D01*
X127439849Y-46187360D01*
X127460911Y-46221246D01*
X127500112Y-46299037D01*
X127511286Y-46296228D01*
X127494494Y-46122389D01*
X127409131Y-46096438D01*
X127362542Y-46088733D01*
X127305633Y-46085935D01*
X127260453Y-46089326D01*
X127218866Y-46099247D01*
X127180464Y-46115712D01*
X127147547Y-46137837D01*
X127119895Y-46165540D01*
X127098576Y-46198104D01*
X127085038Y-46234794D01*
X127080380Y-46276628D01*
X127084214Y-46317598D01*
X127095236Y-46353233D01*
X127113231Y-46384583D01*
X127137464Y-46411547D01*
X127165962Y-46432442D01*
X127199326Y-46447659D01*
X127262280Y-46465916D01*
X127335003Y-46481303D01*
X127378464Y-46496367D01*
X127409864Y-46519894D01*
X127430170Y-46551854D01*
X127437158Y-46592068D01*
X127432077Y-46643857D01*
X127418387Y-46682260D01*
X127397285Y-46710525D01*
X127368567Y-46731456D01*
X127333484Y-46744436D01*
X127290246Y-46749055D01*
X127246415Y-46743777D01*
X127210501Y-46728782D01*
X127179385Y-46705663D01*
X127153103Y-46676881D01*
X127131166Y-46644051D01*
X127112559Y-46608188D01*
X127084593Y-46537357D01*
X127073419Y-46537357D01*
X127073419Y-46722432D01*
X127121097Y-46740856D01*
X127174108Y-46754733D01*
X127229719Y-46763044D01*
X127290246Y-46765907D01*
X127341225Y-46763064D01*
X127388859Y-46754733D01*
X127433562Y-46739812D01*
X127472146Y-46718280D01*
X127504770Y-46689437D01*
X127530214Y-46653067D01*
X127546219Y-46610497D01*
X127551891Y-46558423D01*
G37*
G36*
X118372268Y-48238423D02*
G01*
X118367184Y-48192452D01*
X118352501Y-48152742D01*
X118328182Y-48117889D01*
X118296487Y-48088743D01*
X118261027Y-48067391D01*
X118221143Y-48053348D01*
X118158189Y-48038632D01*
X118091083Y-48023917D01*
X118049075Y-48009408D01*
X118016894Y-47990272D01*
X118001271Y-47973148D01*
X117991252Y-47949173D01*
X117987524Y-47915961D01*
X117990444Y-47885011D01*
X117998698Y-47859175D01*
X118011669Y-47836418D01*
X118027336Y-47818509D01*
X118046172Y-47804359D01*
X118067941Y-47793962D01*
X118091294Y-47787626D01*
X118114836Y-47785536D01*
X118152416Y-47789194D01*
X118184018Y-47799580D01*
X118212345Y-47816461D01*
X118237873Y-47839575D01*
X118260226Y-47867360D01*
X118281287Y-47901246D01*
X118320488Y-47979037D01*
X118331662Y-47976228D01*
X118314871Y-47802389D01*
X118229508Y-47776438D01*
X118182919Y-47768733D01*
X118126010Y-47765935D01*
X118080830Y-47769326D01*
X118039243Y-47779247D01*
X118000841Y-47795712D01*
X117967924Y-47817837D01*
X117940272Y-47845540D01*
X117918953Y-47878104D01*
X117905415Y-47914794D01*
X117900757Y-47956628D01*
X117904590Y-47997598D01*
X117915613Y-48033233D01*
X117933608Y-48064583D01*
X117957841Y-48091547D01*
X117986339Y-48112442D01*
X118019703Y-48127659D01*
X118082657Y-48145916D01*
X118155380Y-48161303D01*
X118198841Y-48176367D01*
X118230241Y-48199894D01*
X118250547Y-48231854D01*
X118257535Y-48272068D01*
X118252454Y-48323857D01*
X118238764Y-48362260D01*
X118217662Y-48390525D01*
X118188944Y-48411456D01*
X118153861Y-48424436D01*
X118110623Y-48429055D01*
X118066792Y-48423777D01*
X118030877Y-48408782D01*
X117999761Y-48385663D01*
X117973480Y-48356881D01*
X117951543Y-48324051D01*
X117932936Y-48288188D01*
X117904970Y-48217357D01*
X117893796Y-48217357D01*
X117893796Y-48402432D01*
X117941474Y-48420856D01*
X117994485Y-48434733D01*
X118050096Y-48443044D01*
X118110623Y-48445907D01*
X118161602Y-48443064D01*
X118209236Y-48434733D01*
X118253939Y-48419812D01*
X118292523Y-48398280D01*
X118325147Y-48369437D01*
X118350591Y-48333067D01*
X118366596Y-48290497D01*
X118372268Y-48238423D01*
G37*
G36*
X119460675Y-47796954D02*
G01*
X119460675Y-47781567D01*
X119204647Y-47781567D01*
X119204647Y-47796954D01*
X119232613Y-47799763D01*
X119261251Y-47806052D01*
X119283660Y-47821439D01*
X119290275Y-47833534D01*
X119292758Y-47851481D01*
X119282927Y-47896239D01*
X119258442Y-47969695D01*
X119224920Y-48057806D01*
X119188527Y-48148725D01*
X119155677Y-48228409D01*
X119131863Y-48282265D01*
X119103165Y-48204657D01*
X119070314Y-48114470D01*
X119037402Y-48022146D01*
X119008765Y-47938249D01*
X118988493Y-47874562D01*
X118980799Y-47841712D01*
X118983830Y-47828114D01*
X118992645Y-47818631D01*
X119020610Y-47806785D01*
X119053522Y-47800496D01*
X119081549Y-47796954D01*
X119081549Y-47781567D01*
X118762568Y-47781567D01*
X118762568Y-47796954D01*
X118801708Y-47801839D01*
X118823384Y-47810265D01*
X118834558Y-47820035D01*
X118842313Y-47829133D01*
X118867470Y-47880180D01*
X118888475Y-47934035D01*
X118851350Y-48036129D01*
X118814286Y-48135414D01*
X118780703Y-48222181D01*
X118754142Y-48289287D01*
X118695401Y-48148053D01*
X118635195Y-48002607D01*
X118588362Y-47884393D01*
X118566685Y-47823516D01*
X118585553Y-47812341D01*
X118610710Y-47804648D01*
X118637332Y-47799763D01*
X118660413Y-47796954D01*
X118660413Y-47781567D01*
X118345645Y-47781567D01*
X118345645Y-47796893D01*
X118387795Y-47801294D01*
X118407866Y-47808800D01*
X118432352Y-47826202D01*
X118454028Y-47867357D01*
X118472957Y-47909855D01*
X118583477Y-48176202D01*
X118689784Y-48434184D01*
X118696302Y-48443477D01*
X118702362Y-48445907D01*
X118709949Y-48444021D01*
X118716345Y-48438092D01*
X118740159Y-48380695D01*
X118769529Y-48316275D01*
X118902458Y-47968962D01*
X118951368Y-48112455D01*
X118990569Y-48228043D01*
X119025556Y-48330442D01*
X119060544Y-48434184D01*
X119064025Y-48442549D01*
X119073123Y-48445907D01*
X119085701Y-48438092D01*
X119100417Y-48407317D01*
X119113667Y-48378618D01*
X119129054Y-48345035D01*
X119150059Y-48299484D01*
X119194145Y-48193849D01*
X119243116Y-48079726D01*
X119290682Y-47969878D01*
X119330555Y-47878165D01*
X119344649Y-47851060D01*
X119359192Y-47832675D01*
X119392104Y-47808861D01*
X119426359Y-47799763D01*
X119460675Y-47796954D01*
G37*
G36*
X119842181Y-47770638D02*
G01*
X119875521Y-47784864D01*
X119903663Y-47806529D01*
X119921683Y-47831698D01*
X119925833Y-47843424D01*
X119928644Y-47865953D01*
X119930049Y-47914252D01*
X119929316Y-48005171D01*
X119928644Y-48083512D01*
X119927912Y-48161181D01*
X119927240Y-48248620D01*
X119930386Y-48290392D01*
X119938165Y-48316495D01*
X119948916Y-48331846D01*
X119972405Y-48347129D01*
X119998620Y-48352118D01*
X120028018Y-48348326D01*
X120046186Y-48338624D01*
X120059033Y-48323277D01*
X120067191Y-48303697D01*
X120075556Y-48303697D01*
X120071736Y-48329800D01*
X120062978Y-48355415D01*
X120050033Y-48379328D01*
X120033608Y-48400784D01*
X120013782Y-48418655D01*
X119990926Y-48431558D01*
X119965544Y-48439326D01*
X119937071Y-48442000D01*
X119891988Y-48434981D01*
X119852379Y-48414095D01*
X119832884Y-48392606D01*
X119820139Y-48361222D01*
X119815316Y-48316275D01*
X119812568Y-48314871D01*
X119782465Y-48355843D01*
X119737707Y-48398219D01*
X119710532Y-48415998D01*
X119680310Y-48430032D01*
X119647772Y-48438921D01*
X119611068Y-48442000D01*
X119565577Y-48435710D01*
X119543642Y-48426967D01*
X119523629Y-48413240D01*
X119506724Y-48395083D01*
X119492854Y-48371780D01*
X119484130Y-48344757D01*
X119480947Y-48310047D01*
X119488402Y-48272420D01*
X119495678Y-48260832D01*
X119591528Y-48260832D01*
X119597719Y-48295225D01*
X119616685Y-48326656D01*
X119635178Y-48342959D01*
X119656766Y-48352664D01*
X119682448Y-48356026D01*
X119717592Y-48353815D01*
X119746744Y-48347661D01*
X119773254Y-48335665D01*
X119798524Y-48315421D01*
X119811069Y-48298040D01*
X119815316Y-48276220D01*
X119815316Y-48060675D01*
X119752362Y-48099205D01*
X119678967Y-48143290D01*
X119645359Y-48168613D01*
X119617418Y-48195742D01*
X119597901Y-48226614D01*
X119591528Y-48260832D01*
X119495678Y-48260832D01*
X119512393Y-48234210D01*
X119546951Y-48199973D01*
X119590063Y-48168203D01*
X119671884Y-48117706D01*
X119734166Y-48081924D01*
X119781000Y-48056645D01*
X119815316Y-48037655D01*
X119815316Y-47893064D01*
X119810431Y-47879752D01*
X119793639Y-47857954D01*
X119760727Y-47837621D01*
X119737997Y-47830989D01*
X119706200Y-47828461D01*
X119662175Y-47836155D01*
X119623707Y-47855756D01*
X119597085Y-47879569D01*
X119589379Y-47891372D01*
X119587315Y-47899841D01*
X119587315Y-47962795D01*
X119582585Y-47980721D01*
X119566982Y-47997783D01*
X119545648Y-48009390D01*
X119522957Y-48013170D01*
X119502158Y-48009171D01*
X119484428Y-47997111D01*
X119472301Y-47979578D01*
X119468369Y-47959986D01*
X119470476Y-47943840D01*
X119476734Y-47929212D01*
X119497739Y-47904055D01*
X119525033Y-47884454D01*
X119550923Y-47869067D01*
X119625050Y-47828767D01*
X119697102Y-47795855D01*
X119760056Y-47774117D01*
X119806950Y-47765935D01*
X119842181Y-47770638D01*
G37*
G36*
X120565691Y-47839636D02*
G01*
X120559577Y-47810449D01*
X120541205Y-47786818D01*
X120514411Y-47771268D01*
X120481732Y-47765935D01*
X120440573Y-47771966D01*
X120404796Y-47789749D01*
X120373612Y-47815834D01*
X120347399Y-47846413D01*
X120308259Y-47911504D01*
X120285849Y-47960475D01*
X120283041Y-47960475D01*
X120285849Y-47765935D01*
X120277484Y-47765935D01*
X120094180Y-47836277D01*
X120094180Y-47844581D01*
X120127763Y-47862106D01*
X120157133Y-47879630D01*
X120169040Y-47892270D01*
X120171177Y-47909062D01*
X120171177Y-48383076D01*
X120165576Y-48402127D01*
X120148035Y-48415377D01*
X120123587Y-48423198D01*
X120092775Y-48427956D01*
X120092775Y-48442000D01*
X120406200Y-48442000D01*
X120406200Y-48427956D01*
X120373288Y-48424475D01*
X120336896Y-48420934D01*
X120305450Y-48411164D01*
X120293721Y-48402532D01*
X120287254Y-48391502D01*
X120287254Y-47987403D01*
X120306854Y-47943195D01*
X120332011Y-47901856D01*
X120362114Y-47871692D01*
X120378724Y-47862584D01*
X120394965Y-47859725D01*
X120413189Y-47861853D01*
X120425740Y-47867479D01*
X120446744Y-47885126D01*
X120469825Y-47902772D01*
X120484534Y-47908395D01*
X120505485Y-47910527D01*
X120527533Y-47905661D01*
X120547495Y-47890377D01*
X120561001Y-47868004D01*
X120565691Y-47839636D01*
G37*
G36*
X121042514Y-47781567D02*
G01*
X120783677Y-47781567D01*
X120783677Y-47660422D01*
X120772503Y-47660422D01*
X120569660Y-47852153D01*
X120569660Y-47867540D01*
X120671753Y-47867540D01*
X120670349Y-48077833D01*
X120669005Y-48327144D01*
X120672213Y-48348972D01*
X120682256Y-48371169D01*
X120697330Y-48391627D01*
X120716511Y-48410309D01*
X120738936Y-48425597D01*
X120764810Y-48436870D01*
X120792550Y-48443637D01*
X120821474Y-48445907D01*
X120864577Y-48443148D01*
X120899082Y-48435588D01*
X120930295Y-48423002D01*
X120956479Y-48406706D01*
X120978797Y-48386736D01*
X120995619Y-48365185D01*
X121018761Y-48321282D01*
X121010335Y-48317069D01*
X120988593Y-48341728D01*
X120964173Y-48358346D01*
X120935454Y-48368055D01*
X120897006Y-48371658D01*
X120865737Y-48367919D01*
X120839546Y-48357208D01*
X120817261Y-48339479D01*
X120801255Y-48315965D01*
X120790546Y-48282524D01*
X120786486Y-48235797D01*
X120786486Y-47867540D01*
X120999161Y-47867540D01*
X121042514Y-47781567D01*
G37*
G36*
X121521047Y-48238423D02*
G01*
X121515963Y-48192452D01*
X121501280Y-48152742D01*
X121476961Y-48117889D01*
X121445266Y-48088743D01*
X121409806Y-48067391D01*
X121369921Y-48053348D01*
X121306968Y-48038632D01*
X121239862Y-48023917D01*
X121197854Y-48009408D01*
X121165673Y-47990272D01*
X121150050Y-47973148D01*
X121140031Y-47949173D01*
X121136303Y-47915961D01*
X121139223Y-47885011D01*
X121147477Y-47859175D01*
X121160448Y-47836418D01*
X121176115Y-47818509D01*
X121194951Y-47804359D01*
X121216720Y-47793962D01*
X121240073Y-47787626D01*
X121263615Y-47785536D01*
X121301195Y-47789194D01*
X121332796Y-47799580D01*
X121361124Y-47816461D01*
X121386652Y-47839575D01*
X121409005Y-47867360D01*
X121430066Y-47901246D01*
X121469267Y-47979037D01*
X121480441Y-47976228D01*
X121463650Y-47802389D01*
X121378287Y-47776438D01*
X121331698Y-47768733D01*
X121274789Y-47765935D01*
X121229609Y-47769326D01*
X121188021Y-47779247D01*
X121149620Y-47795712D01*
X121116703Y-47817837D01*
X121089050Y-47845540D01*
X121067732Y-47878104D01*
X121054193Y-47914794D01*
X121049536Y-47956628D01*
X121053369Y-47997598D01*
X121064392Y-48033233D01*
X121082386Y-48064583D01*
X121106619Y-48091547D01*
X121135118Y-48112442D01*
X121168482Y-48127659D01*
X121231436Y-48145916D01*
X121304159Y-48161303D01*
X121347620Y-48176367D01*
X121379019Y-48199894D01*
X121399325Y-48231854D01*
X121406314Y-48272068D01*
X121401233Y-48323857D01*
X121387543Y-48362260D01*
X121366441Y-48390525D01*
X121337723Y-48411456D01*
X121302639Y-48424436D01*
X121259401Y-48429055D01*
X121215571Y-48423777D01*
X121179656Y-48408782D01*
X121148540Y-48385663D01*
X121122259Y-48356881D01*
X121100322Y-48324051D01*
X121081715Y-48288188D01*
X121053749Y-48217357D01*
X121042575Y-48217357D01*
X121042575Y-48402432D01*
X121090253Y-48420856D01*
X121143264Y-48434733D01*
X121198874Y-48443044D01*
X121259401Y-48445907D01*
X121310381Y-48443064D01*
X121358015Y-48434733D01*
X121402717Y-48419812D01*
X121441301Y-48398280D01*
X121473925Y-48369437D01*
X121499370Y-48333067D01*
X121515375Y-48290497D01*
X121521047Y-48238423D01*
G37*
G36*
X122277894Y-48442000D02*
G01*
X122277894Y-48428017D01*
X122227458Y-48425208D01*
X122192531Y-48419590D01*
X122158563Y-48388303D01*
X122109977Y-48330014D01*
X122014845Y-48194948D01*
X121898707Y-48019276D01*
X121979857Y-47944416D01*
X122068028Y-47866747D01*
X122098790Y-47844279D01*
X122131654Y-47827607D01*
X122196012Y-47805930D01*
X122248463Y-47796099D01*
X122275085Y-47794023D01*
X122275085Y-47780040D01*
X121932290Y-47780040D01*
X121932290Y-47794023D01*
X121968683Y-47796832D01*
X122005075Y-47803793D01*
X122033041Y-47814295D01*
X122041628Y-47821759D01*
X122044215Y-47830354D01*
X122039769Y-47841792D01*
X122017653Y-47870288D01*
X121950487Y-47940203D01*
X121862376Y-48022757D01*
X121774204Y-48099021D01*
X121774204Y-47429857D01*
X121763030Y-47429857D01*
X121576978Y-47515220D01*
X121576978Y-47523646D01*
X121615385Y-47543919D01*
X121645488Y-47561443D01*
X121656724Y-47574754D01*
X121658128Y-47592218D01*
X121658128Y-48383198D01*
X121651683Y-48405052D01*
X121632238Y-48417514D01*
X121574169Y-48428017D01*
X121574169Y-48442000D01*
X121852545Y-48442000D01*
X121852545Y-48428017D01*
X121824579Y-48423803D01*
X121799361Y-48418919D01*
X121781165Y-48408477D01*
X121776058Y-48400365D01*
X121774204Y-48388816D01*
X121774204Y-48114653D01*
X121784707Y-48111173D01*
X121796614Y-48110440D01*
X121813786Y-48116641D01*
X121837158Y-48141214D01*
X121886800Y-48210457D01*
X121941389Y-48290935D01*
X121986146Y-48360178D01*
X122001897Y-48388112D01*
X122005075Y-48398646D01*
X122000332Y-48414368D01*
X121986146Y-48422399D01*
X121939312Y-48428017D01*
X121939312Y-48442000D01*
X122277894Y-48442000D01*
G37*
G36*
X122639250Y-47770638D02*
G01*
X122672591Y-47784864D01*
X122700732Y-47806529D01*
X122718752Y-47831698D01*
X122722902Y-47843424D01*
X122725713Y-47865953D01*
X122727118Y-47914252D01*
X122726385Y-48005171D01*
X122725713Y-48083512D01*
X122724981Y-48161181D01*
X122724309Y-48248620D01*
X122727455Y-48290392D01*
X122735234Y-48316495D01*
X122745986Y-48331846D01*
X122769474Y-48347129D01*
X122795689Y-48352118D01*
X122825088Y-48348326D01*
X122843255Y-48338624D01*
X122856102Y-48323277D01*
X122864260Y-48303697D01*
X122872625Y-48303697D01*
X122868805Y-48329800D01*
X122860047Y-48355415D01*
X122847102Y-48379328D01*
X122830677Y-48400784D01*
X122810851Y-48418655D01*
X122787995Y-48431558D01*
X122762614Y-48439326D01*
X122734140Y-48442000D01*
X122689057Y-48434981D01*
X122649449Y-48414095D01*
X122629953Y-48392606D01*
X122617208Y-48361222D01*
X122612385Y-48316275D01*
X122609637Y-48314871D01*
X122579534Y-48355843D01*
X122534777Y-48398219D01*
X122507601Y-48415998D01*
X122477379Y-48430032D01*
X122444841Y-48438921D01*
X122408137Y-48442000D01*
X122362646Y-48435710D01*
X122340711Y-48426967D01*
X122320698Y-48413240D01*
X122303793Y-48395083D01*
X122289923Y-48371780D01*
X122281199Y-48344757D01*
X122278016Y-48310047D01*
X122285471Y-48272420D01*
X122292747Y-48260832D01*
X122388597Y-48260832D01*
X122394788Y-48295225D01*
X122413754Y-48326656D01*
X122432248Y-48342959D01*
X122453835Y-48352664D01*
X122479517Y-48356026D01*
X122514661Y-48353815D01*
X122543814Y-48347661D01*
X122570323Y-48335665D01*
X122595593Y-48315421D01*
X122608138Y-48298040D01*
X122612385Y-48276220D01*
X122612385Y-48060675D01*
X122549431Y-48099205D01*
X122476036Y-48143290D01*
X122442428Y-48168613D01*
X122414487Y-48195742D01*
X122394970Y-48226614D01*
X122388597Y-48260832D01*
X122292747Y-48260832D01*
X122309463Y-48234210D01*
X122344020Y-48199973D01*
X122387132Y-48168203D01*
X122468953Y-48117706D01*
X122531235Y-48081924D01*
X122578069Y-48056645D01*
X122612385Y-48037655D01*
X122612385Y-47893064D01*
X122607500Y-47879752D01*
X122590708Y-47857954D01*
X122557796Y-47837621D01*
X122535066Y-47830989D01*
X122503269Y-47828461D01*
X122459244Y-47836155D01*
X122420776Y-47855756D01*
X122394154Y-47879569D01*
X122386448Y-47891372D01*
X122384384Y-47899841D01*
X122384384Y-47962795D01*
X122379654Y-47980721D01*
X122364051Y-47997783D01*
X122342717Y-48009390D01*
X122320026Y-48013170D01*
X122299227Y-48009171D01*
X122281497Y-47997111D01*
X122269370Y-47979578D01*
X122265438Y-47959986D01*
X122267545Y-47943840D01*
X122273803Y-47929212D01*
X122294808Y-47904055D01*
X122322102Y-47884454D01*
X122347992Y-47869067D01*
X122422120Y-47828767D01*
X122494171Y-47795855D01*
X122557125Y-47774117D01*
X122604019Y-47765935D01*
X122639250Y-47770638D01*
G37*
G36*
X123266466Y-47770638D02*
G01*
X123299806Y-47784864D01*
X123327948Y-47806529D01*
X123345968Y-47831698D01*
X123350118Y-47843424D01*
X123352929Y-47865953D01*
X123354333Y-47914252D01*
X123353601Y-48005171D01*
X123352929Y-48083512D01*
X123352196Y-48161181D01*
X123351525Y-48248620D01*
X123354671Y-48290392D01*
X123362450Y-48316495D01*
X123373201Y-48331846D01*
X123396690Y-48347129D01*
X123422905Y-48352118D01*
X123452303Y-48348326D01*
X123470471Y-48338624D01*
X123483318Y-48323277D01*
X123491476Y-48303697D01*
X123499841Y-48303697D01*
X123496020Y-48329800D01*
X123487263Y-48355415D01*
X123474318Y-48379328D01*
X123457892Y-48400784D01*
X123438066Y-48418655D01*
X123415211Y-48431558D01*
X123389829Y-48439326D01*
X123361355Y-48442000D01*
X123316272Y-48434981D01*
X123276664Y-48414095D01*
X123257169Y-48392606D01*
X123244423Y-48361222D01*
X123239600Y-48316275D01*
X123236853Y-48314871D01*
X123206750Y-48355843D01*
X123161992Y-48398219D01*
X123134817Y-48415998D01*
X123104595Y-48430032D01*
X123072057Y-48438921D01*
X123035352Y-48442000D01*
X122989862Y-48435710D01*
X122967926Y-48426967D01*
X122947913Y-48413240D01*
X122931008Y-48395083D01*
X122917139Y-48371780D01*
X122908415Y-48344757D01*
X122905232Y-48310047D01*
X122912687Y-48272420D01*
X122919963Y-48260832D01*
X123015813Y-48260832D01*
X123022003Y-48295225D01*
X123040970Y-48326656D01*
X123059463Y-48342959D01*
X123081050Y-48352664D01*
X123106732Y-48356026D01*
X123141877Y-48353815D01*
X123171029Y-48347661D01*
X123197539Y-48335665D01*
X123222809Y-48315421D01*
X123235354Y-48298040D01*
X123239600Y-48276220D01*
X123239600Y-48060675D01*
X123176647Y-48099205D01*
X123103252Y-48143290D01*
X123069644Y-48168613D01*
X123041703Y-48195742D01*
X123022186Y-48226614D01*
X123015813Y-48260832D01*
X122919963Y-48260832D01*
X122936678Y-48234210D01*
X122971236Y-48199973D01*
X123014347Y-48168203D01*
X123096169Y-48117706D01*
X123158451Y-48081924D01*
X123205284Y-48056645D01*
X123239600Y-48037655D01*
X123239600Y-47893064D01*
X123234715Y-47879752D01*
X123217924Y-47857954D01*
X123185012Y-47837621D01*
X123162282Y-47830989D01*
X123130485Y-47828461D01*
X123086460Y-47836155D01*
X123047992Y-47855756D01*
X123021369Y-47879569D01*
X123013664Y-47891372D01*
X123011600Y-47899841D01*
X123011600Y-47962795D01*
X123006870Y-47980721D01*
X122991266Y-47997783D01*
X122969933Y-48009390D01*
X122947242Y-48013170D01*
X122926443Y-48009171D01*
X122908712Y-47997111D01*
X122896586Y-47979578D01*
X122892653Y-47959986D01*
X122894760Y-47943840D01*
X122901019Y-47929212D01*
X122922024Y-47904055D01*
X122949318Y-47884454D01*
X122975207Y-47869067D01*
X123049335Y-47828767D01*
X123121387Y-47795855D01*
X123184340Y-47774117D01*
X123231235Y-47765935D01*
X123266466Y-47770638D01*
G37*
G36*
X123703173Y-47922495D02*
G01*
X123704578Y-47925243D01*
X123747931Y-47870777D01*
X123801115Y-47819791D01*
X123831686Y-47798645D01*
X123864740Y-47781323D01*
X123900269Y-47769853D01*
X123939600Y-47765935D01*
X124002249Y-47772875D01*
X124053601Y-47792497D01*
X124097826Y-47823379D01*
X124133346Y-47862411D01*
X124160662Y-47908177D01*
X124180241Y-47960230D01*
X124191792Y-48015141D01*
X124195628Y-48070628D01*
X124188675Y-48146801D01*
X124168334Y-48216014D01*
X124135094Y-48278617D01*
X124090665Y-48331296D01*
X124035562Y-48373743D01*
X123967566Y-48406767D01*
X123891903Y-48426922D01*
X123803923Y-48434001D01*
X123754220Y-48432596D01*
X123703173Y-48425635D01*
X123703845Y-48482910D01*
X123705249Y-48562594D01*
X123705982Y-48645026D01*
X123705982Y-48710728D01*
X123711098Y-48721623D01*
X123721308Y-48729595D01*
X123751411Y-48739365D01*
X123787803Y-48744250D01*
X123820654Y-48747059D01*
X123820654Y-48762446D01*
X123476516Y-48762446D01*
X123476516Y-48747059D01*
X123510099Y-48742113D01*
X123547163Y-48733015D01*
X123576533Y-48719032D01*
X123585673Y-48709613D01*
X123588440Y-48699493D01*
X123588440Y-48076856D01*
X123703173Y-48076856D01*
X123703173Y-48166371D01*
X123704578Y-48230729D01*
X123714347Y-48291607D01*
X123723874Y-48321814D01*
X123738161Y-48348943D01*
X123757864Y-48372177D01*
X123784323Y-48390953D01*
X123816325Y-48402656D01*
X123859855Y-48407012D01*
X123899369Y-48401531D01*
X123938196Y-48384663D01*
X123973441Y-48358478D01*
X124005363Y-48323114D01*
X124031298Y-48280995D01*
X124052196Y-48229386D01*
X124065214Y-48173203D01*
X124069721Y-48110440D01*
X124066494Y-48058364D01*
X124057142Y-48011094D01*
X124040980Y-47967375D01*
X124018674Y-47930677D01*
X123989448Y-47900005D01*
X123952912Y-47876089D01*
X123910718Y-47861107D01*
X123859855Y-47855817D01*
X123824874Y-47859260D01*
X123794825Y-47869128D01*
X123767723Y-47883768D01*
X123745855Y-47899903D01*
X123727548Y-47918105D01*
X123715080Y-47935562D01*
X123704578Y-47962123D01*
X123703845Y-48021596D01*
X123703173Y-48076856D01*
X123588440Y-48076856D01*
X123588440Y-47924388D01*
X123586303Y-47907596D01*
X123574457Y-47894957D01*
X123533852Y-47874745D01*
X123489094Y-47854412D01*
X123489094Y-47846108D01*
X123694747Y-47765935D01*
X123703173Y-47765935D01*
X123703173Y-47922495D01*
G37*
G36*
X125019143Y-47577867D02*
G01*
X125103112Y-47599301D01*
X125156042Y-47621420D01*
X125203429Y-47648507D01*
X125245811Y-47680572D01*
X125283509Y-47717939D01*
X125315613Y-47760087D01*
X125342348Y-47807457D01*
X125362001Y-47858035D01*
X125373974Y-47912437D01*
X125378069Y-47971405D01*
X125374455Y-48030582D01*
X125363727Y-48087441D01*
X125345890Y-48142436D01*
X125321414Y-48194770D01*
X125291593Y-48242042D01*
X125256314Y-48284707D01*
X125215894Y-48322432D01*
X125170575Y-48354845D01*
X125119904Y-48382099D01*
X125066162Y-48402141D01*
X125008363Y-48414369D01*
X124945759Y-48418552D01*
X124888409Y-48412071D01*
X124840856Y-48393639D01*
X124940202Y-48164234D01*
X124931776Y-48161426D01*
X124853435Y-48248864D01*
X124808886Y-48292316D01*
X124763187Y-48330686D01*
X124715417Y-48364294D01*
X124668055Y-48390892D01*
X124619617Y-48408976D01*
X124575059Y-48414644D01*
X124539335Y-48408694D01*
X124520471Y-48393700D01*
X124510074Y-48371270D01*
X124506488Y-48344730D01*
X124511990Y-48296553D01*
X124619817Y-48296553D01*
X124623003Y-48316228D01*
X124632395Y-48332884D01*
X124647573Y-48344134D01*
X124670192Y-48348210D01*
X124694618Y-48343569D01*
X124728932Y-48326595D01*
X124763727Y-48302386D01*
X124803060Y-48269320D01*
X124841564Y-48231805D01*
X124881401Y-48187621D01*
X124918606Y-48140328D01*
X124951376Y-48091267D01*
X124979674Y-48040554D01*
X125001751Y-47991433D01*
X125016707Y-47942198D01*
X125021352Y-47898559D01*
X125017568Y-47872951D01*
X125005965Y-47848306D01*
X124986993Y-47830628D01*
X124959803Y-47824554D01*
X124934241Y-47829833D01*
X124899597Y-47848978D01*
X124865169Y-47876178D01*
X124826874Y-47913214D01*
X124789939Y-47954997D01*
X124752013Y-48004011D01*
X124685579Y-48107326D01*
X124658609Y-48159858D01*
X124638013Y-48209297D01*
X124623974Y-48257786D01*
X124619817Y-48296553D01*
X124511990Y-48296553D01*
X124512172Y-48294962D01*
X124530973Y-48235675D01*
X124558990Y-48176263D01*
X124596003Y-48114714D01*
X124639084Y-48055110D01*
X124688327Y-47996501D01*
X124741285Y-47941672D01*
X124793962Y-47894407D01*
X124848607Y-47853338D01*
X124899597Y-47823088D01*
X124950749Y-47802557D01*
X124991982Y-47796527D01*
X125014636Y-47799708D01*
X125034602Y-47809105D01*
X125067514Y-47838475D01*
X125102502Y-47789505D01*
X125185056Y-47789505D01*
X124947224Y-48359934D01*
X124967496Y-48362560D01*
X124987769Y-48363842D01*
X125042933Y-48359952D01*
X125092786Y-48348675D01*
X125138161Y-48330319D01*
X125199840Y-48291111D01*
X125251429Y-48240988D01*
X125292738Y-48181551D01*
X125323480Y-48113920D01*
X125342368Y-48041469D01*
X125348698Y-47965909D01*
X125345225Y-47912595D01*
X125335108Y-47863722D01*
X125318595Y-47818631D01*
X125282661Y-47756889D01*
X125235370Y-47704875D01*
X125177949Y-47663149D01*
X125109463Y-47631541D01*
X125034735Y-47612303D01*
X124952781Y-47605712D01*
X124870163Y-47611875D01*
X124792856Y-47630031D01*
X124719834Y-47660117D01*
X124651448Y-47700323D01*
X124590079Y-47747655D01*
X124535187Y-47802389D01*
X124487332Y-47863482D01*
X124446796Y-47930267D01*
X124413431Y-48003278D01*
X124388842Y-48079568D01*
X124374257Y-48156096D01*
X124369407Y-48233416D01*
X124373349Y-48299712D01*
X124384706Y-48359161D01*
X124402990Y-48412690D01*
X124428626Y-48463047D01*
X124460027Y-48507729D01*
X124497390Y-48547268D01*
X124540015Y-48581298D01*
X124587858Y-48609877D01*
X124641493Y-48633058D01*
X124697702Y-48649541D01*
X124757904Y-48659643D01*
X124822660Y-48663100D01*
X124903033Y-48658329D01*
X124974689Y-48644623D01*
X125038815Y-48622617D01*
X125100038Y-48592611D01*
X125161291Y-48554698D01*
X125222791Y-48508250D01*
X125233965Y-48520829D01*
X125160836Y-48580918D01*
X125081784Y-48627284D01*
X124995943Y-48660659D01*
X124902131Y-48681144D01*
X124798908Y-48688196D01*
X124724961Y-48684063D01*
X124657116Y-48672047D01*
X124594599Y-48652537D01*
X124535208Y-48625270D01*
X124482741Y-48592232D01*
X124436512Y-48553374D01*
X124396175Y-48508529D01*
X124362438Y-48458416D01*
X124335091Y-48402493D01*
X124315567Y-48343313D01*
X124303560Y-48279073D01*
X124299431Y-48208992D01*
X124305007Y-48123389D01*
X124321551Y-48041451D01*
X124349073Y-47962429D01*
X124386499Y-47887404D01*
X124431441Y-47819863D01*
X124484079Y-47759158D01*
X124543978Y-47705507D01*
X124610242Y-47659709D01*
X124683442Y-47621527D01*
X124760868Y-47593313D01*
X124841961Y-47576298D01*
X124927563Y-47570541D01*
X125019143Y-47577867D01*
G37*
G36*
X125838226Y-47768540D02*
G01*
X125881087Y-47775766D01*
X125922250Y-47788679D01*
X125967121Y-47809411D01*
X125995759Y-47816371D01*
X126024457Y-47817776D01*
X126054499Y-47812891D01*
X126078984Y-47801717D01*
X126102798Y-47790482D01*
X126132168Y-47785536D01*
X126153984Y-47789796D01*
X126171369Y-47802389D01*
X126182866Y-47820820D01*
X126186757Y-47842994D01*
X126183116Y-47862634D01*
X126172041Y-47880058D01*
X126155719Y-47892138D01*
X126136382Y-47896117D01*
X126111225Y-47889156D01*
X126074100Y-47872364D01*
X126032823Y-47850688D01*
X125995087Y-47829011D01*
X125989469Y-47834629D01*
X126025129Y-47894834D01*
X126035825Y-47925417D01*
X126039845Y-47967680D01*
X126034590Y-48021703D01*
X126019804Y-48066162D01*
X125996096Y-48103030D01*
X125962908Y-48133582D01*
X125923668Y-48156450D01*
X125876233Y-48173743D01*
X125819039Y-48184896D01*
X125750234Y-48188903D01*
X125710361Y-48186155D01*
X125662123Y-48183346D01*
X125620386Y-48190426D01*
X125590743Y-48204351D01*
X125570572Y-48225430D01*
X125564182Y-48250513D01*
X125567767Y-48271235D01*
X125578165Y-48287638D01*
X125593669Y-48300626D01*
X125613152Y-48310780D01*
X125659314Y-48321954D01*
X125708285Y-48324763D01*
X125932133Y-48324763D01*
X125979478Y-48328772D01*
X126020244Y-48340211D01*
X126056990Y-48358691D01*
X126087411Y-48382343D01*
X126112185Y-48411080D01*
X126130092Y-48443404D01*
X126141020Y-48479157D01*
X126144808Y-48519913D01*
X126138046Y-48573213D01*
X126117514Y-48624510D01*
X126085196Y-48670934D01*
X126041249Y-48712254D01*
X125988815Y-48745675D01*
X125925844Y-48771911D01*
X125857273Y-48788080D01*
X125779665Y-48793709D01*
X125678321Y-48787741D01*
X125600882Y-48771750D01*
X125542505Y-48747975D01*
X125503699Y-48721409D01*
X125477973Y-48692029D01*
X125462972Y-48659343D01*
X125457875Y-48622068D01*
X125461915Y-48593835D01*
X125468239Y-48580546D01*
X125562777Y-48580546D01*
X125569018Y-48623230D01*
X125587263Y-48659498D01*
X125614590Y-48690572D01*
X125648079Y-48716590D01*
X125685736Y-48736881D01*
X125725748Y-48751150D01*
X125766441Y-48759767D01*
X125802013Y-48762446D01*
X125874004Y-48758172D01*
X125927920Y-48745532D01*
X125973478Y-48720131D01*
X126013955Y-48682090D01*
X126034461Y-48651226D01*
X126046782Y-48616775D01*
X126051019Y-48577676D01*
X126046626Y-48538830D01*
X126034227Y-48507212D01*
X126015022Y-48481505D01*
X125993683Y-48466302D01*
X125960567Y-48453519D01*
X125916685Y-48444442D01*
X125866130Y-48439905D01*
X125789435Y-48438092D01*
X125729229Y-48440900D01*
X125678915Y-48446579D01*
X125636832Y-48461308D01*
X125607477Y-48479301D01*
X125587934Y-48500129D01*
X125569039Y-48538670D01*
X125562777Y-48580546D01*
X125468239Y-48580546D01*
X125473934Y-48568578D01*
X125491818Y-48545592D01*
X125514539Y-48522905D01*
X125569066Y-48482116D01*
X125628540Y-48444808D01*
X125628540Y-48442000D01*
X125581970Y-48433056D01*
X125546051Y-48419323D01*
X125518691Y-48401516D01*
X125497367Y-48377849D01*
X125484646Y-48349913D01*
X125480223Y-48316337D01*
X125483357Y-48290567D01*
X125492802Y-48266084D01*
X125507622Y-48243652D01*
X125527789Y-48222792D01*
X125551788Y-48205024D01*
X125580241Y-48190002D01*
X125611292Y-48179084D01*
X125645331Y-48172539D01*
X125645331Y-48168325D01*
X125606432Y-48149418D01*
X125574801Y-48126077D01*
X125549466Y-48098228D01*
X125530942Y-48065769D01*
X125519333Y-48027013D01*
X125515324Y-47981724D01*
X125627135Y-47981724D01*
X125632309Y-48036198D01*
X125646780Y-48080496D01*
X125669817Y-48116729D01*
X125701050Y-48145560D01*
X125735347Y-48162176D01*
X125774047Y-48167776D01*
X125810047Y-48163445D01*
X125840481Y-48150984D01*
X125866815Y-48131469D01*
X125888719Y-48106227D01*
X125905720Y-48076645D01*
X125918090Y-48042601D01*
X125925430Y-48006274D01*
X125927920Y-47967741D01*
X125925415Y-47932075D01*
X125918090Y-47899170D01*
X125905898Y-47868623D01*
X125889452Y-47842505D01*
X125868247Y-47820577D01*
X125841886Y-47803366D01*
X125811578Y-47792474D01*
X125775452Y-47788650D01*
X125741897Y-47792759D01*
X125712437Y-47804770D01*
X125686827Y-47823562D01*
X125665603Y-47848123D01*
X125649155Y-47876994D01*
X125636905Y-47910405D01*
X125629580Y-47945683D01*
X125627135Y-47981724D01*
X125515324Y-47981724D01*
X125515211Y-47980442D01*
X125520300Y-47936895D01*
X125535483Y-47896361D01*
X125559618Y-47859926D01*
X125592147Y-47828339D01*
X125631205Y-47802915D01*
X125678182Y-47782788D01*
X125729393Y-47770266D01*
X125786626Y-47765935D01*
X125838226Y-47768540D01*
G37*
G36*
X127266982Y-48442000D02*
G01*
X127266982Y-48429421D01*
X127240420Y-48425941D01*
X127214531Y-48420323D01*
X127194197Y-48409821D01*
X127187862Y-48401988D01*
X127185832Y-48393029D01*
X127185832Y-47975923D01*
X127180809Y-47915556D01*
X127166758Y-47865839D01*
X127144555Y-47824737D01*
X127113076Y-47792408D01*
X127073178Y-47772875D01*
X127022128Y-47765935D01*
X126985031Y-47769754D01*
X126948672Y-47781323D01*
X126914528Y-47799035D01*
X126883643Y-47821256D01*
X126855860Y-47846952D01*
X126831863Y-47874440D01*
X126796936Y-47928296D01*
X126792723Y-47928296D01*
X126782163Y-47880475D01*
X126765018Y-47841579D01*
X126741676Y-47810021D01*
X126711684Y-47785767D01*
X126676096Y-47771079D01*
X126633233Y-47765935D01*
X126596261Y-47769626D01*
X126561181Y-47780651D01*
X126528063Y-47797116D01*
X126497495Y-47817043D01*
X126469762Y-47840221D01*
X126445715Y-47866014D01*
X126409384Y-47918526D01*
X126406575Y-47917122D01*
X126406575Y-47765935D01*
X126398210Y-47765935D01*
X126214906Y-47831698D01*
X126214906Y-47842933D01*
X126248489Y-47858992D01*
X126277859Y-47875112D01*
X126289766Y-47887751D01*
X126291903Y-47904482D01*
X126291903Y-48383198D01*
X126286306Y-48402197D01*
X126268761Y-48415438D01*
X126244313Y-48423259D01*
X126213501Y-48428017D01*
X126213501Y-48442000D01*
X126484916Y-48442000D01*
X126484916Y-48428017D01*
X126458355Y-48424597D01*
X126435274Y-48421056D01*
X126417749Y-48412019D01*
X126407980Y-48391747D01*
X126407980Y-47933974D01*
X126444407Y-47898194D01*
X126473742Y-47875356D01*
X126506011Y-47861045D01*
X126549274Y-47855817D01*
X126595272Y-47861678D01*
X126627890Y-47877476D01*
X126650696Y-47902589D01*
X126665755Y-47935047D01*
X126675714Y-47977251D01*
X126679394Y-48031672D01*
X126679394Y-48388938D01*
X126673860Y-48407185D01*
X126656985Y-48417575D01*
X126596840Y-48426673D01*
X126596840Y-48442000D01*
X126872468Y-48442000D01*
X126872468Y-48429421D01*
X126846579Y-48425941D01*
X126822093Y-48420384D01*
X126803897Y-48409943D01*
X126796936Y-48393151D01*
X126796936Y-47942340D01*
X126830884Y-47906952D01*
X126861294Y-47880241D01*
X126895127Y-47862176D01*
X126938231Y-47855817D01*
X126984091Y-47861813D01*
X127016728Y-47878036D01*
X127039653Y-47903994D01*
X127054804Y-47937326D01*
X127064721Y-47979640D01*
X127068351Y-48033076D01*
X127068351Y-48388938D01*
X127063332Y-48407443D01*
X127048751Y-48417575D01*
X126991415Y-48426673D01*
X126991415Y-48442000D01*
X127266982Y-48442000D01*
G37*
G36*
X127700939Y-47770638D02*
G01*
X127734279Y-47784864D01*
X127762421Y-47806529D01*
X127780441Y-47831698D01*
X127784591Y-47843424D01*
X127787402Y-47865953D01*
X127788807Y-47914252D01*
X127788074Y-48005171D01*
X127787402Y-48083512D01*
X127786669Y-48161181D01*
X127785998Y-48248620D01*
X127789144Y-48290392D01*
X127796923Y-48316495D01*
X127807674Y-48331846D01*
X127831163Y-48347129D01*
X127857378Y-48352118D01*
X127886776Y-48348326D01*
X127904944Y-48338624D01*
X127917791Y-48323277D01*
X127925949Y-48303697D01*
X127934314Y-48303697D01*
X127930493Y-48329800D01*
X127921736Y-48355415D01*
X127908791Y-48379328D01*
X127892366Y-48400784D01*
X127872539Y-48418655D01*
X127849684Y-48431558D01*
X127824302Y-48439326D01*
X127795829Y-48442000D01*
X127750746Y-48434981D01*
X127711137Y-48414095D01*
X127691642Y-48392606D01*
X127678897Y-48361222D01*
X127674073Y-48316275D01*
X127671326Y-48314871D01*
X127641223Y-48355843D01*
X127596465Y-48398219D01*
X127569290Y-48415998D01*
X127539068Y-48430032D01*
X127506530Y-48438921D01*
X127469825Y-48442000D01*
X127424335Y-48435710D01*
X127402400Y-48426967D01*
X127382386Y-48413240D01*
X127365481Y-48395083D01*
X127351612Y-48371780D01*
X127342888Y-48344757D01*
X127339705Y-48310047D01*
X127347160Y-48272420D01*
X127354436Y-48260832D01*
X127450286Y-48260832D01*
X127456477Y-48295225D01*
X127475443Y-48326656D01*
X127493936Y-48342959D01*
X127515523Y-48352664D01*
X127541205Y-48356026D01*
X127576350Y-48353815D01*
X127605502Y-48347661D01*
X127632012Y-48335665D01*
X127657282Y-48315421D01*
X127669827Y-48298040D01*
X127674073Y-48276220D01*
X127674073Y-48060675D01*
X127611120Y-48099205D01*
X127537725Y-48143290D01*
X127504117Y-48168613D01*
X127476176Y-48195742D01*
X127456659Y-48226614D01*
X127450286Y-48260832D01*
X127354436Y-48260832D01*
X127371151Y-48234210D01*
X127405709Y-48199973D01*
X127448821Y-48168203D01*
X127530642Y-48117706D01*
X127592924Y-48081924D01*
X127639757Y-48056645D01*
X127674073Y-48037655D01*
X127674073Y-47893064D01*
X127669189Y-47879752D01*
X127652397Y-47857954D01*
X127619485Y-47837621D01*
X127596755Y-47830989D01*
X127564958Y-47828461D01*
X127520933Y-47836155D01*
X127482465Y-47855756D01*
X127455842Y-47879569D01*
X127448137Y-47891372D01*
X127446073Y-47899841D01*
X127446073Y-47962795D01*
X127441343Y-47980721D01*
X127425740Y-47997783D01*
X127404406Y-48009390D01*
X127381715Y-48013170D01*
X127360916Y-48009171D01*
X127343185Y-47997111D01*
X127331059Y-47979578D01*
X127327127Y-47959986D01*
X127329233Y-47943840D01*
X127335492Y-47929212D01*
X127356497Y-47904055D01*
X127383791Y-47884454D01*
X127409681Y-47869067D01*
X127483808Y-47828767D01*
X127555860Y-47795855D01*
X127618814Y-47774117D01*
X127665708Y-47765935D01*
X127700939Y-47770638D01*
G37*
G36*
X128158590Y-47546422D02*
G01*
X128153086Y-47517058D01*
X128136914Y-47493666D01*
X128112848Y-47478141D01*
X128083058Y-47472844D01*
X128053269Y-47478141D01*
X128029203Y-47493666D01*
X128013031Y-47517058D01*
X128007526Y-47546422D01*
X128013067Y-47574768D01*
X128029874Y-47599178D01*
X128054457Y-47615836D01*
X128083058Y-47621344D01*
X128112795Y-47615897D01*
X128136914Y-47599850D01*
X128153112Y-47575860D01*
X128158590Y-47546422D01*
G37*
G36*
X128236931Y-48442000D02*
G01*
X128236931Y-48428017D01*
X128208233Y-48424536D01*
X128181000Y-48420995D01*
X128159323Y-48411897D01*
X128151997Y-48404019D01*
X128147416Y-48391624D01*
X128147416Y-47766302D01*
X128139051Y-47766302D01*
X127950190Y-47827851D01*
X127950190Y-47836216D01*
X127987193Y-47851665D01*
X128017296Y-47868395D01*
X128029203Y-47883844D01*
X128031279Y-47903383D01*
X128031279Y-48383259D01*
X128028996Y-48394819D01*
X128022181Y-48404264D01*
X127999832Y-48417514D01*
X127969729Y-48424536D01*
X127936146Y-48428017D01*
X127936146Y-48442000D01*
X128236931Y-48442000D01*
G37*
G36*
X128602379Y-48442000D02*
G01*
X128602379Y-48426612D01*
X128556218Y-48423132D01*
X128524039Y-48419590D01*
X128505110Y-48409821D01*
X128500561Y-48401602D01*
X128498821Y-48388816D01*
X128498821Y-47429857D01*
X128489051Y-47429857D01*
X128289016Y-47495620D01*
X128289016Y-47504046D01*
X128330965Y-47525784D01*
X128368761Y-47547460D01*
X128380607Y-47560039D01*
X128382744Y-47576830D01*
X128382744Y-48381794D01*
X128377525Y-48400827D01*
X128361739Y-48413301D01*
X128335259Y-48420292D01*
X128276376Y-48426612D01*
X128276376Y-48442000D01*
X128602379Y-48442000D01*
G37*
G36*
X128865124Y-48365490D02*
G01*
X128859438Y-48331724D01*
X128842714Y-48303636D01*
X128817105Y-48284420D01*
X128783974Y-48277868D01*
X128750470Y-48284064D01*
X128723768Y-48302232D01*
X128706051Y-48329263D01*
X128700016Y-48362743D01*
X128706141Y-48395693D01*
X128723768Y-48420445D01*
X128750245Y-48436437D01*
X128783974Y-48442000D01*
X128817574Y-48436712D01*
X128842714Y-48421849D01*
X128859252Y-48398320D01*
X128865124Y-48365490D01*
G37*
G36*
X129567444Y-48240499D02*
G01*
X129556270Y-48234882D01*
X129517872Y-48284624D01*
X129472311Y-48319512D01*
X129437494Y-48334577D01*
X129392612Y-48344538D01*
X129335230Y-48348210D01*
X129282548Y-48343009D01*
X129236556Y-48327999D01*
X129195812Y-48303520D01*
X129161757Y-48270724D01*
X129134869Y-48230622D01*
X129114190Y-48181392D01*
X129101736Y-48127341D01*
X129097399Y-48066171D01*
X129101327Y-48010087D01*
X129112786Y-47958643D01*
X129131309Y-47910820D01*
X129154735Y-47870715D01*
X129184090Y-47836535D01*
X129217688Y-47810632D01*
X129255747Y-47793891D01*
X129297434Y-47788284D01*
X129335027Y-47792555D01*
X129362897Y-47804168D01*
X129383468Y-47822478D01*
X129398337Y-47846577D01*
X129407528Y-47874862D01*
X129410762Y-47908390D01*
X129408869Y-47935115D01*
X129403740Y-47955834D01*
X129412547Y-47974861D01*
X129428226Y-47990761D01*
X129448331Y-48001193D01*
X129470907Y-48004683D01*
X129498217Y-47999336D01*
X129521954Y-47983067D01*
X129538317Y-47959372D01*
X129543691Y-47932081D01*
X129538171Y-47893711D01*
X129522015Y-47860885D01*
X129497292Y-47832871D01*
X129465351Y-47809227D01*
X129428529Y-47790972D01*
X129385605Y-47777109D01*
X129340492Y-47768730D01*
X129294625Y-47765935D01*
X129228255Y-47773046D01*
X129168046Y-47793962D01*
X129113797Y-47826621D01*
X129067967Y-47868090D01*
X129030739Y-47917627D01*
X129002205Y-47975129D01*
X128984431Y-48037314D01*
X128978452Y-48103113D01*
X128984311Y-48172896D01*
X129001533Y-48237446D01*
X129029285Y-48296910D01*
X129065159Y-48347294D01*
X129109858Y-48388826D01*
X129163100Y-48420018D01*
X129222448Y-48439332D01*
X129287664Y-48445907D01*
X129339481Y-48441919D01*
X129386277Y-48430337D01*
X129429644Y-48411317D01*
X129468098Y-48385763D01*
X129501822Y-48354532D01*
X129529647Y-48319573D01*
X129551761Y-48281125D01*
X129567444Y-48240499D01*
G37*
G36*
X129974699Y-47771076D02*
G01*
X130032299Y-47786940D01*
X130086920Y-47812886D01*
X130136530Y-47849161D01*
X130178731Y-47895045D01*
X130213466Y-47952720D01*
X130229780Y-47995237D01*
X130239991Y-48043621D01*
X130243569Y-48098899D01*
X130236859Y-48168631D01*
X130216947Y-48233966D01*
X130185602Y-48293941D01*
X130145628Y-48345157D01*
X130097177Y-48387498D01*
X130041397Y-48419346D01*
X129980425Y-48439252D01*
X129916162Y-48445907D01*
X129861465Y-48441162D01*
X129802833Y-48426307D01*
X129746719Y-48401162D01*
X129694389Y-48364086D01*
X129649862Y-48316246D01*
X129613240Y-48254971D01*
X129596209Y-48209617D01*
X129585536Y-48157955D01*
X129582346Y-48107631D01*
X129711914Y-48107631D01*
X129714774Y-48170974D01*
X129723088Y-48229386D01*
X129738123Y-48284296D01*
X129759480Y-48330808D01*
X129788450Y-48370626D01*
X129823838Y-48400722D01*
X129865994Y-48419895D01*
X129917566Y-48426612D01*
X129952706Y-48422804D01*
X129982895Y-48411841D01*
X130009218Y-48393762D01*
X130042419Y-48357170D01*
X130069363Y-48311207D01*
X130089174Y-48259996D01*
X130102946Y-48204168D01*
X130110941Y-48147715D01*
X130113449Y-48097861D01*
X130110927Y-48049574D01*
X130102946Y-47995768D01*
X130088975Y-47942872D01*
X130068630Y-47895018D01*
X130040820Y-47852603D01*
X130005677Y-47818753D01*
X129978201Y-47802315D01*
X129946401Y-47792193D01*
X129909201Y-47788650D01*
X129865456Y-47795665D01*
X129826647Y-47816677D01*
X129793387Y-47848428D01*
X129764365Y-47890133D01*
X129741879Y-47937697D01*
X129725164Y-47992226D01*
X129715234Y-48049345D01*
X129711914Y-48107631D01*
X129582346Y-48107631D01*
X129581793Y-48098899D01*
X129587901Y-48035662D01*
X129606279Y-47974397D01*
X129635735Y-47917637D01*
X129674850Y-47868090D01*
X129723040Y-47826777D01*
X129781157Y-47793962D01*
X129845899Y-47773116D01*
X129918971Y-47765935D01*
X129974699Y-47771076D01*
G37*
G36*
X131364400Y-48442000D02*
G01*
X131364400Y-48429421D01*
X131337838Y-48425941D01*
X131311949Y-48420323D01*
X131291615Y-48409821D01*
X131285280Y-48401988D01*
X131283250Y-48393029D01*
X131283250Y-47975923D01*
X131278227Y-47915556D01*
X131264176Y-47865839D01*
X131241973Y-47824737D01*
X131210494Y-47792408D01*
X131170596Y-47772875D01*
X131119546Y-47765935D01*
X131082449Y-47769754D01*
X131046090Y-47781323D01*
X131011946Y-47799035D01*
X130981061Y-47821256D01*
X130953278Y-47846952D01*
X130929281Y-47874440D01*
X130894354Y-47928296D01*
X130890141Y-47928296D01*
X130879581Y-47880475D01*
X130862436Y-47841579D01*
X130839094Y-47810021D01*
X130809102Y-47785767D01*
X130773514Y-47771079D01*
X130730651Y-47765935D01*
X130693680Y-47769626D01*
X130658599Y-47780651D01*
X130625481Y-47797116D01*
X130594913Y-47817043D01*
X130567180Y-47840221D01*
X130543133Y-47866014D01*
X130506802Y-47918526D01*
X130503993Y-47917122D01*
X130503993Y-47765935D01*
X130495628Y-47765935D01*
X130312324Y-47831698D01*
X130312324Y-47842933D01*
X130345907Y-47858992D01*
X130375277Y-47875112D01*
X130387184Y-47887751D01*
X130389321Y-47904482D01*
X130389321Y-48383198D01*
X130383724Y-48402197D01*
X130366179Y-48415438D01*
X130341731Y-48423259D01*
X130310919Y-48428017D01*
X130310919Y-48442000D01*
X130582334Y-48442000D01*
X130582334Y-48428017D01*
X130555773Y-48424597D01*
X130532692Y-48421056D01*
X130515167Y-48412019D01*
X130505398Y-48391747D01*
X130505398Y-47933974D01*
X130541825Y-47898194D01*
X130571160Y-47875356D01*
X130603429Y-47861045D01*
X130646692Y-47855817D01*
X130692690Y-47861678D01*
X130725308Y-47877476D01*
X130748114Y-47902589D01*
X130763173Y-47935047D01*
X130773132Y-47977251D01*
X130776812Y-48031672D01*
X130776812Y-48388938D01*
X130771278Y-48407185D01*
X130754403Y-48417575D01*
X130694258Y-48426673D01*
X130694258Y-48442000D01*
X130969886Y-48442000D01*
X130969886Y-48429421D01*
X130943997Y-48425941D01*
X130919511Y-48420384D01*
X130901315Y-48409943D01*
X130894354Y-48393151D01*
X130894354Y-47942340D01*
X130928302Y-47906952D01*
X130958712Y-47880241D01*
X130992545Y-47862176D01*
X131035649Y-47855817D01*
X131081509Y-47861813D01*
X131114146Y-47878036D01*
X131137071Y-47903994D01*
X131152222Y-47937326D01*
X131162139Y-47979640D01*
X131165769Y-48033076D01*
X131165769Y-48388938D01*
X131160750Y-48407443D01*
X131146169Y-48417575D01*
X131088833Y-48426673D01*
X131088833Y-48442000D01*
X131364400Y-48442000D01*
G37*
G36*
X118575112Y-50122000D02*
G01*
X118575112Y-50109421D01*
X118548489Y-50105941D01*
X118521928Y-50100323D01*
X118500923Y-50089821D01*
X118494588Y-50081988D01*
X118492557Y-50073029D01*
X118492557Y-49660075D01*
X118490562Y-49614863D01*
X118484864Y-49574712D01*
X118474112Y-49537504D01*
X118458241Y-49506813D01*
X118436304Y-49481355D01*
X118407866Y-49462055D01*
X118374066Y-49450246D01*
X118330258Y-49445935D01*
X118284075Y-49450066D01*
X118242819Y-49462055D01*
X118204687Y-49479993D01*
X118172172Y-49500524D01*
X118143486Y-49524122D01*
X118121064Y-49548151D01*
X118091022Y-49592969D01*
X118088213Y-49591565D01*
X118092427Y-49105949D01*
X118081252Y-49105949D01*
X117893796Y-49191312D01*
X117893796Y-49199739D01*
X117930799Y-49220011D01*
X117960902Y-49238939D01*
X117972809Y-49251518D01*
X117974946Y-49268310D01*
X117974946Y-50063198D01*
X117968501Y-50085052D01*
X117949056Y-50097514D01*
X117890987Y-50108017D01*
X117890987Y-50122000D01*
X118169363Y-50122000D01*
X118169363Y-50107956D01*
X118141397Y-50103742D01*
X118116179Y-50098857D01*
X118097983Y-50088294D01*
X118092876Y-50080182D01*
X118091022Y-50068632D01*
X118091022Y-49637544D01*
X118095907Y-49612997D01*
X118103601Y-49595412D01*
X118127903Y-49567837D01*
X118159532Y-49546258D01*
X118197043Y-49532854D01*
X118244895Y-49528001D01*
X118281860Y-49531797D01*
X118309253Y-49542045D01*
X118331800Y-49558868D01*
X118349126Y-49581368D01*
X118361301Y-49608363D01*
X118369398Y-49641757D01*
X118375016Y-49717594D01*
X118375016Y-50068632D01*
X118368995Y-50086760D01*
X118349859Y-50097453D01*
X118286905Y-50106551D01*
X118286905Y-50122000D01*
X118575112Y-50122000D01*
G37*
G36*
X119079778Y-49461567D02*
G01*
X118820942Y-49461567D01*
X118820942Y-49340422D01*
X118809768Y-49340422D01*
X118606924Y-49532153D01*
X118606924Y-49547540D01*
X118709018Y-49547540D01*
X118707613Y-49757833D01*
X118706270Y-50007144D01*
X118709477Y-50028972D01*
X118719520Y-50051169D01*
X118734595Y-50071627D01*
X118753775Y-50090309D01*
X118776200Y-50105597D01*
X118802074Y-50116870D01*
X118829815Y-50123637D01*
X118858739Y-50125907D01*
X118901841Y-50123148D01*
X118936347Y-50115588D01*
X118967560Y-50103002D01*
X118993744Y-50086706D01*
X119016062Y-50066736D01*
X119032884Y-50045185D01*
X119056026Y-50001282D01*
X119047599Y-49997069D01*
X119025858Y-50021728D01*
X119001437Y-50038346D01*
X118972718Y-50048055D01*
X118934271Y-50051658D01*
X118903001Y-50047919D01*
X118876811Y-50037208D01*
X118854525Y-50019479D01*
X118838519Y-49995965D01*
X118827811Y-49962524D01*
X118823751Y-49915797D01*
X118823751Y-49547540D01*
X119036425Y-49547540D01*
X119079778Y-49461567D01*
G37*
G36*
X119533093Y-49461567D02*
G01*
X119274257Y-49461567D01*
X119274257Y-49340422D01*
X119263083Y-49340422D01*
X119060239Y-49532153D01*
X119060239Y-49547540D01*
X119162332Y-49547540D01*
X119160928Y-49757833D01*
X119159585Y-50007144D01*
X119162792Y-50028972D01*
X119172835Y-50051169D01*
X119187910Y-50071627D01*
X119207090Y-50090309D01*
X119229515Y-50105597D01*
X119255389Y-50116870D01*
X119283129Y-50123637D01*
X119312053Y-50125907D01*
X119355156Y-50123148D01*
X119389661Y-50115588D01*
X119420875Y-50103002D01*
X119447058Y-50086706D01*
X119469376Y-50066736D01*
X119486198Y-50045185D01*
X119509340Y-50001282D01*
X119500914Y-49997069D01*
X119479173Y-50021728D01*
X119454752Y-50038346D01*
X119426033Y-50048055D01*
X119387585Y-50051658D01*
X119356316Y-50047919D01*
X119330125Y-50037208D01*
X119307840Y-50019479D01*
X119291834Y-49995965D01*
X119281126Y-49962524D01*
X119277065Y-49915797D01*
X119277065Y-49547540D01*
X119489740Y-49547540D01*
X119533093Y-49461567D01*
G37*
G36*
X119722015Y-49602495D02*
G01*
X119723419Y-49605243D01*
X119766772Y-49550777D01*
X119819956Y-49499791D01*
X119850528Y-49478645D01*
X119883581Y-49461323D01*
X119919111Y-49449853D01*
X119958442Y-49445935D01*
X120021091Y-49452875D01*
X120072442Y-49472497D01*
X120116668Y-49503379D01*
X120152188Y-49542411D01*
X120179504Y-49588177D01*
X120199082Y-49640230D01*
X120210634Y-49695141D01*
X120214469Y-49750628D01*
X120207516Y-49826801D01*
X120187175Y-49896014D01*
X120153935Y-49958617D01*
X120109506Y-50011296D01*
X120054404Y-50053743D01*
X119986408Y-50086767D01*
X119910744Y-50106922D01*
X119822765Y-50114001D01*
X119773062Y-50112596D01*
X119722015Y-50105635D01*
X119722687Y-50162910D01*
X119724091Y-50242594D01*
X119724824Y-50325026D01*
X119724824Y-50390728D01*
X119729940Y-50401623D01*
X119740150Y-50409595D01*
X119770253Y-50419365D01*
X119806645Y-50424250D01*
X119839496Y-50427059D01*
X119839496Y-50442446D01*
X119495357Y-50442446D01*
X119495357Y-50427059D01*
X119528941Y-50422113D01*
X119566005Y-50413015D01*
X119595375Y-50399032D01*
X119604515Y-50389613D01*
X119607282Y-50379493D01*
X119607282Y-49756856D01*
X119722015Y-49756856D01*
X119722015Y-49846371D01*
X119723419Y-49910729D01*
X119733189Y-49971607D01*
X119742716Y-50001814D01*
X119757003Y-50028943D01*
X119776705Y-50052177D01*
X119803165Y-50070953D01*
X119835167Y-50082656D01*
X119878697Y-50087012D01*
X119918211Y-50081531D01*
X119957038Y-50064663D01*
X119992283Y-50038478D01*
X120024204Y-50003114D01*
X120050140Y-49960995D01*
X120071038Y-49909386D01*
X120084055Y-49853203D01*
X120088562Y-49790440D01*
X120085335Y-49738364D01*
X120075984Y-49691094D01*
X120059821Y-49647375D01*
X120037516Y-49610677D01*
X120008290Y-49580005D01*
X119971753Y-49556089D01*
X119929560Y-49541107D01*
X119878697Y-49535817D01*
X119843716Y-49539260D01*
X119813667Y-49549128D01*
X119786565Y-49563768D01*
X119764696Y-49579903D01*
X119746390Y-49598105D01*
X119733922Y-49615562D01*
X119723419Y-49642123D01*
X119722687Y-49701596D01*
X119722015Y-49756856D01*
X119607282Y-49756856D01*
X119607282Y-49604388D01*
X119605145Y-49587596D01*
X119593299Y-49574957D01*
X119552693Y-49554745D01*
X119507936Y-49534412D01*
X119507936Y-49526108D01*
X119713588Y-49445935D01*
X119722015Y-49445935D01*
X119722015Y-49602495D01*
G37*
G36*
X120759009Y-49918423D02*
G01*
X120753925Y-49872452D01*
X120739242Y-49832742D01*
X120714923Y-49797889D01*
X120683228Y-49768743D01*
X120647768Y-49747391D01*
X120607884Y-49733348D01*
X120544930Y-49718632D01*
X120477824Y-49703917D01*
X120435816Y-49689408D01*
X120403636Y-49670272D01*
X120388012Y-49653148D01*
X120377994Y-49629173D01*
X120374265Y-49595961D01*
X120377185Y-49565011D01*
X120385439Y-49539175D01*
X120398410Y-49516418D01*
X120414077Y-49498509D01*
X120432913Y-49484359D01*
X120454682Y-49473962D01*
X120478035Y-49467626D01*
X120501577Y-49465536D01*
X120539157Y-49469194D01*
X120570759Y-49479580D01*
X120599086Y-49496461D01*
X120624614Y-49519575D01*
X120646967Y-49547360D01*
X120668028Y-49581246D01*
X120707229Y-49659037D01*
X120718404Y-49656228D01*
X120701612Y-49482389D01*
X120616249Y-49456438D01*
X120569660Y-49448733D01*
X120512751Y-49445935D01*
X120467571Y-49449326D01*
X120425984Y-49459247D01*
X120387582Y-49475712D01*
X120354665Y-49497837D01*
X120327013Y-49525540D01*
X120305694Y-49558104D01*
X120292156Y-49594794D01*
X120287498Y-49636628D01*
X120291332Y-49677598D01*
X120302354Y-49713233D01*
X120320349Y-49744583D01*
X120344582Y-49771547D01*
X120373080Y-49792442D01*
X120406444Y-49807659D01*
X120469398Y-49825916D01*
X120542121Y-49841303D01*
X120585582Y-49856367D01*
X120616982Y-49879894D01*
X120637288Y-49911854D01*
X120644276Y-49952068D01*
X120639195Y-50003857D01*
X120625505Y-50042260D01*
X120604403Y-50070525D01*
X120575685Y-50091456D01*
X120540602Y-50104436D01*
X120497364Y-50109055D01*
X120453533Y-50103777D01*
X120417618Y-50088782D01*
X120386503Y-50065663D01*
X120360221Y-50036881D01*
X120338284Y-50004051D01*
X120319677Y-49968188D01*
X120291711Y-49897357D01*
X120280537Y-49897357D01*
X120280537Y-50082432D01*
X120328215Y-50100856D01*
X120381226Y-50114733D01*
X120436837Y-50123044D01*
X120497364Y-50125907D01*
X120548343Y-50123064D01*
X120595977Y-50114733D01*
X120640680Y-50099812D01*
X120679264Y-50078280D01*
X120711888Y-50049437D01*
X120737332Y-50013067D01*
X120753337Y-49970497D01*
X120759009Y-49918423D01*
G37*
G36*
X121045750Y-49612020D02*
G01*
X121039719Y-49582034D01*
X121021265Y-49555845D01*
X120994629Y-49537797D01*
X120964600Y-49531909D01*
X120934290Y-49537310D01*
X120907203Y-49553707D01*
X120888489Y-49578831D01*
X120882046Y-49612020D01*
X120888489Y-49645209D01*
X120907203Y-49670333D01*
X120934290Y-49686731D01*
X120964600Y-49692132D01*
X120994739Y-49686561D01*
X121021265Y-49669662D01*
X121039543Y-49644187D01*
X121045750Y-49612020D01*
G37*
G36*
X121045750Y-50045246D02*
G01*
X121039722Y-50015448D01*
X121021265Y-49989437D01*
X120994643Y-49971533D01*
X120964600Y-49965684D01*
X120934281Y-49971058D01*
X120907203Y-49987361D01*
X120888484Y-50012300D01*
X120882046Y-50045246D01*
X120888620Y-50079025D01*
X120907203Y-50102460D01*
X120934130Y-50117104D01*
X120964600Y-50122000D01*
X120994851Y-50116765D01*
X121021265Y-50101056D01*
X121039501Y-50076920D01*
X121045750Y-50045246D01*
G37*
G36*
X121638344Y-49077251D02*
G01*
X121592182Y-49059055D01*
X121074510Y-50304510D01*
X121120672Y-50321302D01*
X121638344Y-49077251D01*
G37*
G36*
X122073096Y-49077251D02*
G01*
X122026935Y-49059055D01*
X121509262Y-50304510D01*
X121555424Y-50321302D01*
X122073096Y-49077251D01*
G37*
G36*
X122413941Y-49448540D02*
G01*
X122456802Y-49455766D01*
X122497966Y-49468679D01*
X122542837Y-49489411D01*
X122571474Y-49496371D01*
X122600173Y-49497776D01*
X122630214Y-49492891D01*
X122654700Y-49481717D01*
X122678513Y-49470482D01*
X122707884Y-49465536D01*
X122729699Y-49469796D01*
X122747085Y-49482389D01*
X122758581Y-49500820D01*
X122762472Y-49522994D01*
X122758832Y-49542634D01*
X122747756Y-49560058D01*
X122731434Y-49572138D01*
X122712097Y-49576117D01*
X122686940Y-49569156D01*
X122649815Y-49552364D01*
X122608538Y-49530688D01*
X122570802Y-49509011D01*
X122565185Y-49514629D01*
X122600844Y-49574834D01*
X122611540Y-49605417D01*
X122615560Y-49647680D01*
X122610305Y-49701703D01*
X122595519Y-49746162D01*
X122571812Y-49783030D01*
X122538623Y-49813582D01*
X122499383Y-49836450D01*
X122451949Y-49853743D01*
X122394754Y-49864896D01*
X122325949Y-49868903D01*
X122286076Y-49866155D01*
X122237838Y-49863346D01*
X122196101Y-49870426D01*
X122166458Y-49884351D01*
X122146287Y-49905430D01*
X122139897Y-49930513D01*
X122143482Y-49951235D01*
X122153880Y-49967638D01*
X122169384Y-49980626D01*
X122188868Y-49990780D01*
X122235030Y-50001954D01*
X122284000Y-50004763D01*
X122507849Y-50004763D01*
X122555193Y-50008772D01*
X122595959Y-50020211D01*
X122632705Y-50038691D01*
X122663126Y-50062343D01*
X122687900Y-50091080D01*
X122705808Y-50123404D01*
X122716735Y-50159157D01*
X122720523Y-50199913D01*
X122713761Y-50253213D01*
X122693229Y-50304510D01*
X122660911Y-50350934D01*
X122616964Y-50392254D01*
X122564530Y-50425675D01*
X122501560Y-50451911D01*
X122432989Y-50468080D01*
X122355380Y-50473709D01*
X122254036Y-50467741D01*
X122176598Y-50451750D01*
X122118220Y-50427975D01*
X122079414Y-50401409D01*
X122053689Y-50372029D01*
X122038687Y-50339343D01*
X122033590Y-50302068D01*
X122037630Y-50273835D01*
X122043954Y-50260546D01*
X122138493Y-50260546D01*
X122144733Y-50303230D01*
X122162978Y-50339498D01*
X122190305Y-50370572D01*
X122223794Y-50396590D01*
X122261451Y-50416881D01*
X122301464Y-50431150D01*
X122342156Y-50439767D01*
X122377728Y-50442446D01*
X122449719Y-50438172D01*
X122503636Y-50425532D01*
X122549194Y-50400131D01*
X122589670Y-50362090D01*
X122610177Y-50331226D01*
X122622498Y-50296775D01*
X122626734Y-50257676D01*
X122622341Y-50218830D01*
X122609942Y-50187212D01*
X122590737Y-50161505D01*
X122569398Y-50146302D01*
X122536283Y-50133519D01*
X122492400Y-50124442D01*
X122441845Y-50119905D01*
X122365150Y-50118092D01*
X122304944Y-50120900D01*
X122254630Y-50126579D01*
X122212547Y-50141308D01*
X122183192Y-50159301D01*
X122163650Y-50180129D01*
X122144754Y-50218670D01*
X122138493Y-50260546D01*
X122043954Y-50260546D01*
X122049649Y-50248578D01*
X122067533Y-50225592D01*
X122090255Y-50202905D01*
X122144782Y-50162116D01*
X122204255Y-50124808D01*
X122204255Y-50122000D01*
X122157685Y-50113056D01*
X122121767Y-50099323D01*
X122094407Y-50081516D01*
X122073083Y-50057849D01*
X122060361Y-50029913D01*
X122055938Y-49996337D01*
X122059072Y-49970567D01*
X122068517Y-49946084D01*
X122083337Y-49923652D01*
X122103505Y-49902792D01*
X122127503Y-49885024D01*
X122155956Y-49870002D01*
X122187007Y-49859084D01*
X122221047Y-49852539D01*
X122221047Y-49848325D01*
X122182148Y-49829418D01*
X122150516Y-49806077D01*
X122125181Y-49778228D01*
X122106657Y-49745769D01*
X122095048Y-49707013D01*
X122091039Y-49661724D01*
X122202851Y-49661724D01*
X122208024Y-49716198D01*
X122222496Y-49760496D01*
X122245532Y-49796729D01*
X122276765Y-49825560D01*
X122311062Y-49842176D01*
X122349763Y-49847776D01*
X122385762Y-49843445D01*
X122416197Y-49830984D01*
X122442530Y-49811469D01*
X122464435Y-49786227D01*
X122481435Y-49756645D01*
X122493805Y-49722601D01*
X122501145Y-49686274D01*
X122503636Y-49647741D01*
X122501131Y-49612075D01*
X122493805Y-49579170D01*
X122481613Y-49548623D01*
X122465167Y-49522505D01*
X122443962Y-49500577D01*
X122417601Y-49483366D01*
X122387293Y-49472474D01*
X122351167Y-49468650D01*
X122317612Y-49472759D01*
X122288152Y-49484770D01*
X122262542Y-49503562D01*
X122241319Y-49528123D01*
X122224870Y-49556994D01*
X122212620Y-49590405D01*
X122205295Y-49625683D01*
X122202851Y-49661724D01*
X122091039Y-49661724D01*
X122090926Y-49660442D01*
X122096015Y-49616895D01*
X122111198Y-49576361D01*
X122135333Y-49539926D01*
X122167863Y-49508339D01*
X122206920Y-49482915D01*
X122253897Y-49462788D01*
X122305109Y-49450266D01*
X122362341Y-49445935D01*
X122413941Y-49448540D01*
G37*
G36*
X122996273Y-49226422D02*
G01*
X122990769Y-49197058D01*
X122974597Y-49173666D01*
X122950531Y-49158141D01*
X122920741Y-49152844D01*
X122890952Y-49158141D01*
X122866886Y-49173666D01*
X122850714Y-49197058D01*
X122845209Y-49226422D01*
X122850750Y-49254768D01*
X122867557Y-49279178D01*
X122892140Y-49295836D01*
X122920741Y-49301344D01*
X122950478Y-49295897D01*
X122974597Y-49279850D01*
X122990796Y-49255860D01*
X122996273Y-49226422D01*
G37*
G36*
X123074614Y-50122000D02*
G01*
X123074614Y-50108017D01*
X123045916Y-50104536D01*
X123018683Y-50100995D01*
X122997006Y-50091897D01*
X122989680Y-50084019D01*
X122985099Y-50071624D01*
X122985099Y-49446302D01*
X122976734Y-49446302D01*
X122787873Y-49507851D01*
X122787873Y-49516216D01*
X122824876Y-49531665D01*
X122854979Y-49548395D01*
X122866886Y-49563844D01*
X122868962Y-49583383D01*
X122868962Y-50063259D01*
X122866679Y-50074819D01*
X122859864Y-50084264D01*
X122837516Y-50097514D01*
X122807413Y-50104536D01*
X122773829Y-50108017D01*
X122773829Y-50122000D01*
X123074614Y-50122000D01*
G37*
G36*
X123595340Y-49461567D02*
G01*
X123336504Y-49461567D01*
X123336504Y-49340422D01*
X123325330Y-49340422D01*
X123122486Y-49532153D01*
X123122486Y-49547540D01*
X123224579Y-49547540D01*
X123223175Y-49757833D01*
X123221832Y-50007144D01*
X123225039Y-50028972D01*
X123235082Y-50051169D01*
X123250157Y-50071627D01*
X123269337Y-50090309D01*
X123291762Y-50105597D01*
X123317636Y-50116870D01*
X123345376Y-50123637D01*
X123374300Y-50125907D01*
X123417403Y-50123148D01*
X123451908Y-50115588D01*
X123483122Y-50103002D01*
X123509306Y-50086706D01*
X123531623Y-50066736D01*
X123548445Y-50045185D01*
X123571587Y-50001282D01*
X123563161Y-49997069D01*
X123541420Y-50021728D01*
X123516999Y-50038346D01*
X123488280Y-50048055D01*
X123449832Y-50051658D01*
X123418563Y-50047919D01*
X123392372Y-50037208D01*
X123370087Y-50019479D01*
X123354081Y-49995965D01*
X123343373Y-49962524D01*
X123339312Y-49915797D01*
X123339312Y-49547540D01*
X123551987Y-49547540D01*
X123595340Y-49461567D01*
G37*
G36*
X124276717Y-50122000D02*
G01*
X124276717Y-50109421D01*
X124250094Y-50105941D01*
X124223533Y-50100323D01*
X124202528Y-50089821D01*
X124196193Y-50081988D01*
X124194162Y-50073029D01*
X124194162Y-49660075D01*
X124192167Y-49614863D01*
X124186469Y-49574712D01*
X124175717Y-49537504D01*
X124159846Y-49506813D01*
X124137909Y-49481355D01*
X124109471Y-49462055D01*
X124075671Y-49450246D01*
X124031863Y-49445935D01*
X123985680Y-49450066D01*
X123944424Y-49462055D01*
X123906292Y-49479993D01*
X123873777Y-49500524D01*
X123845091Y-49524122D01*
X123822669Y-49548151D01*
X123792627Y-49592969D01*
X123789818Y-49591565D01*
X123794032Y-49105949D01*
X123782857Y-49105949D01*
X123595401Y-49191312D01*
X123595401Y-49199739D01*
X123632404Y-49220011D01*
X123662507Y-49238939D01*
X123674414Y-49251518D01*
X123676551Y-49268310D01*
X123676551Y-50063198D01*
X123670106Y-50085052D01*
X123650661Y-50097514D01*
X123592592Y-50108017D01*
X123592592Y-50122000D01*
X123870968Y-50122000D01*
X123870968Y-50107956D01*
X123843002Y-50103742D01*
X123817784Y-50098857D01*
X123799588Y-50088294D01*
X123794481Y-50080182D01*
X123792627Y-50068632D01*
X123792627Y-49637544D01*
X123797512Y-49612997D01*
X123805206Y-49595412D01*
X123829508Y-49567837D01*
X123861137Y-49546258D01*
X123898648Y-49532854D01*
X123946500Y-49528001D01*
X123983465Y-49531797D01*
X124010858Y-49542045D01*
X124033405Y-49558868D01*
X124050731Y-49581368D01*
X124062906Y-49608363D01*
X124071003Y-49641757D01*
X124076621Y-49717594D01*
X124076621Y-50068632D01*
X124070600Y-50086760D01*
X124051464Y-50097453D01*
X123988510Y-50106551D01*
X123988510Y-50122000D01*
X124276717Y-50122000D01*
G37*
G36*
X124998210Y-50086645D02*
G01*
X124998210Y-50078463D01*
X124956994Y-50060328D01*
X124919869Y-50042193D01*
X124907962Y-50029615D01*
X124905886Y-50012884D01*
X124905886Y-49461567D01*
X124670863Y-49461567D01*
X124670863Y-49476893D01*
X124730337Y-49483915D01*
X124775766Y-49495089D01*
X124782449Y-49507878D01*
X124787001Y-49527879D01*
X124789810Y-49563477D01*
X124789810Y-49961227D01*
X124762516Y-49993345D01*
X124730337Y-50020578D01*
X124691136Y-50040117D01*
X124668341Y-50045719D01*
X124640089Y-50047750D01*
X124590986Y-50042039D01*
X124557452Y-50026993D01*
X124535125Y-50003786D01*
X124520838Y-49972997D01*
X124510950Y-49928999D01*
X124507160Y-49867682D01*
X124507160Y-49461567D01*
X124290333Y-49461567D01*
X124290333Y-49476893D01*
X124316894Y-49479030D01*
X124343456Y-49482511D01*
X124366598Y-49490876D01*
X124375714Y-49498020D01*
X124382657Y-49509011D01*
X124386137Y-49522322D01*
X124388274Y-49541862D01*
X124389679Y-49562073D01*
X124389679Y-49577399D01*
X124389679Y-49917935D01*
X124395162Y-49984712D01*
X124409925Y-50035142D01*
X124432360Y-50072907D01*
X124464432Y-50101375D01*
X124507319Y-50119335D01*
X124564557Y-50125907D01*
X124602844Y-50122723D01*
X124638013Y-50113390D01*
X124670815Y-50098486D01*
X124700234Y-50079196D01*
X124750609Y-50031019D01*
X124788405Y-49980766D01*
X124789810Y-49982170D01*
X124789810Y-50122000D01*
X124799579Y-50122000D01*
X124998210Y-50086645D01*
G37*
G36*
X125226333Y-49603472D02*
G01*
X125229142Y-49604815D01*
X125244477Y-49576507D01*
X125266877Y-49547724D01*
X125293780Y-49521251D01*
X125324946Y-49496860D01*
X125359268Y-49476189D01*
X125396997Y-49459918D01*
X125436475Y-49449379D01*
X125475338Y-49445935D01*
X125538208Y-49453159D01*
X125591476Y-49473901D01*
X125637914Y-49506473D01*
X125676778Y-49548639D01*
X125707300Y-49598368D01*
X125729961Y-49656167D01*
X125743571Y-49717883D01*
X125748158Y-49782563D01*
X125741940Y-49852069D01*
X125723672Y-49915981D01*
X125694094Y-49974430D01*
X125655101Y-50024241D01*
X125607204Y-50065155D01*
X125550870Y-50096171D01*
X125488622Y-50115406D01*
X125419407Y-50122000D01*
X125341841Y-50116604D01*
X125273899Y-50101178D01*
X125212263Y-50075513D01*
X125163379Y-50042560D01*
X125156357Y-50042560D01*
X125122774Y-50118092D01*
X125113004Y-50118092D01*
X125113004Y-49693903D01*
X125227737Y-49693903D01*
X125227737Y-49744278D01*
X125227737Y-49800210D01*
X125229142Y-49853393D01*
X125232978Y-49899310D01*
X125241720Y-49945046D01*
X125256071Y-49988521D01*
X125275975Y-50026195D01*
X125302432Y-50058376D01*
X125335448Y-50083531D01*
X125374571Y-50099510D01*
X125423620Y-50105208D01*
X125466410Y-50099535D01*
X125504037Y-50082860D01*
X125536746Y-50056434D01*
X125565586Y-50019906D01*
X125588075Y-49976652D01*
X125605459Y-49924041D01*
X125615839Y-49867410D01*
X125619442Y-49804423D01*
X125616065Y-49752102D01*
X125606130Y-49703001D01*
X125589160Y-49657071D01*
X125565586Y-49617638D01*
X125534764Y-49584369D01*
X125496343Y-49558226D01*
X125451705Y-49541687D01*
X125396997Y-49535817D01*
X125355517Y-49539519D01*
X125322137Y-49549800D01*
X125292707Y-49565322D01*
X125270419Y-49581979D01*
X125252072Y-49600789D01*
X125239644Y-49618371D01*
X125229142Y-49644932D01*
X125227737Y-49693903D01*
X125113004Y-49693903D01*
X125113004Y-49245839D01*
X125078016Y-49224834D01*
X125031854Y-49199616D01*
X125031854Y-49191251D01*
X125219372Y-49105949D01*
X125230546Y-49105949D01*
X125226333Y-49603472D01*
G37*
G36*
X126028976Y-50045490D02*
G01*
X126023290Y-50011724D01*
X126006566Y-49983636D01*
X125980957Y-49964420D01*
X125947826Y-49957868D01*
X125914322Y-49964064D01*
X125887620Y-49982232D01*
X125869903Y-50009263D01*
X125863868Y-50042743D01*
X125869993Y-50075693D01*
X125887620Y-50100445D01*
X125914097Y-50116437D01*
X125947826Y-50122000D01*
X125981426Y-50116712D01*
X126006566Y-50101849D01*
X126023104Y-50078320D01*
X126028976Y-50045490D01*
G37*
G36*
X126731296Y-49920499D02*
G01*
X126720122Y-49914882D01*
X126681724Y-49964624D01*
X126636163Y-49999512D01*
X126601346Y-50014577D01*
X126556464Y-50024538D01*
X126499082Y-50028210D01*
X126446400Y-50023009D01*
X126400408Y-50007999D01*
X126359664Y-49983520D01*
X126325609Y-49950724D01*
X126298721Y-49910622D01*
X126278042Y-49861392D01*
X126265588Y-49807341D01*
X126261251Y-49746171D01*
X126265179Y-49690087D01*
X126276638Y-49638643D01*
X126295161Y-49590820D01*
X126318587Y-49550715D01*
X126347942Y-49516535D01*
X126381540Y-49490632D01*
X126419599Y-49473891D01*
X126461286Y-49468284D01*
X126498879Y-49472555D01*
X126526749Y-49484168D01*
X126547320Y-49502478D01*
X126562189Y-49526577D01*
X126571381Y-49554862D01*
X126574614Y-49588390D01*
X126572721Y-49615115D01*
X126567592Y-49635834D01*
X126576399Y-49654861D01*
X126592078Y-49670761D01*
X126612184Y-49681193D01*
X126634759Y-49684683D01*
X126662069Y-49679336D01*
X126685806Y-49663067D01*
X126702169Y-49639372D01*
X126707543Y-49612081D01*
X126702023Y-49573711D01*
X126685867Y-49540885D01*
X126661144Y-49512871D01*
X126629203Y-49489227D01*
X126592381Y-49470972D01*
X126549457Y-49457109D01*
X126504344Y-49448730D01*
X126458477Y-49445935D01*
X126392108Y-49453046D01*
X126331898Y-49473962D01*
X126277649Y-49506621D01*
X126231819Y-49548090D01*
X126194591Y-49597627D01*
X126166057Y-49655129D01*
X126148283Y-49717314D01*
X126142304Y-49783113D01*
X126148163Y-49852896D01*
X126165385Y-49917446D01*
X126193137Y-49976910D01*
X126229011Y-50027294D01*
X126273710Y-50068826D01*
X126326952Y-50100018D01*
X126386301Y-50119332D01*
X126451516Y-50125907D01*
X126503333Y-50121919D01*
X126550129Y-50110337D01*
X126593496Y-50091317D01*
X126631950Y-50065763D01*
X126665674Y-50034532D01*
X126693500Y-49999573D01*
X126715613Y-49961125D01*
X126731296Y-49920499D01*
G37*
G36*
X127138552Y-49451076D02*
G01*
X127196151Y-49466940D01*
X127250772Y-49492886D01*
X127300382Y-49529161D01*
X127342583Y-49575045D01*
X127377318Y-49632720D01*
X127393632Y-49675237D01*
X127403843Y-49723621D01*
X127407421Y-49778899D01*
X127400711Y-49848631D01*
X127380799Y-49913966D01*
X127349454Y-49973941D01*
X127309480Y-50025157D01*
X127261029Y-50067498D01*
X127205249Y-50099346D01*
X127144277Y-50119252D01*
X127080014Y-50125907D01*
X127025317Y-50121162D01*
X126966685Y-50106307D01*
X126910571Y-50081162D01*
X126858241Y-50044086D01*
X126813714Y-49996246D01*
X126777092Y-49934971D01*
X126760061Y-49889617D01*
X126749388Y-49837955D01*
X126746198Y-49787631D01*
X126875766Y-49787631D01*
X126878626Y-49850974D01*
X126886940Y-49909386D01*
X126901975Y-49964296D01*
X126923332Y-50010808D01*
X126952302Y-50050626D01*
X126987690Y-50080722D01*
X127029846Y-50099895D01*
X127081418Y-50106612D01*
X127116558Y-50102804D01*
X127146747Y-50091841D01*
X127173070Y-50073762D01*
X127206271Y-50037170D01*
X127233215Y-49991207D01*
X127253026Y-49939996D01*
X127266799Y-49884168D01*
X127274793Y-49827715D01*
X127277301Y-49777861D01*
X127274779Y-49729574D01*
X127266799Y-49675768D01*
X127252827Y-49622872D01*
X127232482Y-49575018D01*
X127204672Y-49532603D01*
X127169529Y-49498753D01*
X127142053Y-49482315D01*
X127110253Y-49472193D01*
X127073053Y-49468650D01*
X127029308Y-49475665D01*
X126990499Y-49496677D01*
X126957239Y-49528428D01*
X126928217Y-49570133D01*
X126905731Y-49617697D01*
X126889016Y-49672226D01*
X126879086Y-49729345D01*
X126875766Y-49787631D01*
X126746198Y-49787631D01*
X126745645Y-49778899D01*
X126751753Y-49715662D01*
X126770131Y-49654397D01*
X126799587Y-49597637D01*
X126838702Y-49548090D01*
X126886892Y-49506777D01*
X126945009Y-49473962D01*
X127009751Y-49453116D01*
X127082823Y-49445935D01*
X127138552Y-49451076D01*
G37*
G36*
X128528252Y-50122000D02*
G01*
X128528252Y-50109421D01*
X128501690Y-50105941D01*
X128475801Y-50100323D01*
X128455467Y-50089821D01*
X128449132Y-50081988D01*
X128447102Y-50073029D01*
X128447102Y-49655923D01*
X128442079Y-49595556D01*
X128428028Y-49545839D01*
X128405825Y-49504737D01*
X128374346Y-49472408D01*
X128334448Y-49452875D01*
X128283398Y-49445935D01*
X128246301Y-49449754D01*
X128209942Y-49461323D01*
X128175798Y-49479035D01*
X128144913Y-49501256D01*
X128117130Y-49526952D01*
X128093133Y-49554440D01*
X128058206Y-49608296D01*
X128053993Y-49608296D01*
X128043433Y-49560475D01*
X128026288Y-49521579D01*
X128002946Y-49490021D01*
X127972954Y-49465767D01*
X127937366Y-49451079D01*
X127894503Y-49445935D01*
X127857532Y-49449626D01*
X127822451Y-49460651D01*
X127789333Y-49477116D01*
X127758765Y-49497043D01*
X127731032Y-49520221D01*
X127706985Y-49546014D01*
X127670654Y-49598526D01*
X127667845Y-49597122D01*
X127667845Y-49445935D01*
X127659480Y-49445935D01*
X127476176Y-49511698D01*
X127476176Y-49522933D01*
X127509759Y-49538992D01*
X127539129Y-49555112D01*
X127551036Y-49567751D01*
X127553173Y-49584482D01*
X127553173Y-50063198D01*
X127547576Y-50082197D01*
X127530031Y-50095438D01*
X127505583Y-50103259D01*
X127474771Y-50108017D01*
X127474771Y-50122000D01*
X127746186Y-50122000D01*
X127746186Y-50108017D01*
X127719625Y-50104597D01*
X127696544Y-50101056D01*
X127679019Y-50092019D01*
X127669250Y-50071747D01*
X127669250Y-49613974D01*
X127705677Y-49578194D01*
X127735012Y-49555356D01*
X127767281Y-49541045D01*
X127810544Y-49535817D01*
X127856542Y-49541678D01*
X127889160Y-49557476D01*
X127911966Y-49582589D01*
X127927025Y-49615047D01*
X127936985Y-49657251D01*
X127940665Y-49711672D01*
X127940665Y-50068938D01*
X127935130Y-50087185D01*
X127918255Y-50097575D01*
X127858110Y-50106673D01*
X127858110Y-50122000D01*
X128133739Y-50122000D01*
X128133739Y-50109421D01*
X128107849Y-50105941D01*
X128083363Y-50100384D01*
X128065167Y-50089943D01*
X128058206Y-50073151D01*
X128058206Y-49622340D01*
X128092154Y-49586952D01*
X128122564Y-49560241D01*
X128156397Y-49542176D01*
X128199501Y-49535817D01*
X128245361Y-49541813D01*
X128277998Y-49558036D01*
X128300923Y-49583994D01*
X128316074Y-49617326D01*
X128325991Y-49659640D01*
X128329621Y-49713076D01*
X128329621Y-50068938D01*
X128324602Y-50087443D01*
X128310021Y-50097575D01*
X128252685Y-50106673D01*
X128252685Y-50122000D01*
X128528252Y-50122000D01*
G37*
G36*
X129038903Y-49077251D02*
G01*
X128992741Y-49059055D01*
X128475068Y-50304510D01*
X128521230Y-50321302D01*
X129038903Y-49077251D01*
G37*
G36*
X129206453Y-49602495D02*
G01*
X129207857Y-49605243D01*
X129251211Y-49550777D01*
X129304394Y-49499791D01*
X129334966Y-49478645D01*
X129368020Y-49461323D01*
X129403549Y-49449853D01*
X129442880Y-49445935D01*
X129505529Y-49452875D01*
X129556881Y-49472497D01*
X129601106Y-49503379D01*
X129636626Y-49542411D01*
X129663942Y-49588177D01*
X129683520Y-49640230D01*
X129695072Y-49695141D01*
X129698908Y-49750628D01*
X129691955Y-49826801D01*
X129671614Y-49896014D01*
X129638373Y-49958617D01*
X129593944Y-50011296D01*
X129538842Y-50053743D01*
X129470846Y-50086767D01*
X129395183Y-50106922D01*
X129307203Y-50114001D01*
X129257500Y-50112596D01*
X129206453Y-50105635D01*
X129207125Y-50162910D01*
X129208529Y-50242594D01*
X129209262Y-50325026D01*
X129209262Y-50390728D01*
X129214378Y-50401623D01*
X129224588Y-50409595D01*
X129254691Y-50419365D01*
X129291083Y-50424250D01*
X129323934Y-50427059D01*
X129323934Y-50442446D01*
X128979796Y-50442446D01*
X128979796Y-50427059D01*
X129013379Y-50422113D01*
X129050443Y-50413015D01*
X129079813Y-50399032D01*
X129088953Y-50389613D01*
X129091720Y-50379493D01*
X129091720Y-49756856D01*
X129206453Y-49756856D01*
X129206453Y-49846371D01*
X129207857Y-49910729D01*
X129217627Y-49971607D01*
X129227154Y-50001814D01*
X129241441Y-50028943D01*
X129261144Y-50052177D01*
X129287603Y-50070953D01*
X129319605Y-50082656D01*
X129363135Y-50087012D01*
X129402649Y-50081531D01*
X129441476Y-50064663D01*
X129476721Y-50038478D01*
X129508643Y-50003114D01*
X129534578Y-49960995D01*
X129555476Y-49909386D01*
X129568494Y-49853203D01*
X129573001Y-49790440D01*
X129569773Y-49738364D01*
X129560422Y-49691094D01*
X129544259Y-49647375D01*
X129521954Y-49610677D01*
X129492728Y-49580005D01*
X129456191Y-49556089D01*
X129413998Y-49541107D01*
X129363135Y-49535817D01*
X129328154Y-49539260D01*
X129298105Y-49549128D01*
X129271003Y-49563768D01*
X129249135Y-49579903D01*
X129230828Y-49598105D01*
X129218360Y-49615562D01*
X129207857Y-49642123D01*
X129207125Y-49701596D01*
X129206453Y-49756856D01*
X129091720Y-49756856D01*
X129091720Y-49604388D01*
X129089583Y-49587596D01*
X129077737Y-49574957D01*
X129037132Y-49554745D01*
X128992374Y-49534412D01*
X128992374Y-49526108D01*
X129198027Y-49445935D01*
X129206453Y-49445935D01*
X129206453Y-49602495D01*
G37*
G36*
X130144345Y-49450638D02*
G01*
X130177685Y-49464864D01*
X130205827Y-49486529D01*
X130223847Y-49511698D01*
X130227996Y-49523424D01*
X130230808Y-49545953D01*
X130232212Y-49594252D01*
X130231479Y-49685171D01*
X130230808Y-49763512D01*
X130230075Y-49841181D01*
X130229403Y-49928620D01*
X130232549Y-49970392D01*
X130240329Y-49996495D01*
X130251080Y-50011846D01*
X130274569Y-50027129D01*
X130300783Y-50032118D01*
X130330182Y-50028326D01*
X130348349Y-50018624D01*
X130361196Y-50003277D01*
X130369354Y-49983697D01*
X130377720Y-49983697D01*
X130373899Y-50009800D01*
X130365141Y-50035415D01*
X130352197Y-50059328D01*
X130335771Y-50080784D01*
X130315945Y-50098655D01*
X130293090Y-50111558D01*
X130267708Y-50119326D01*
X130239234Y-50122000D01*
X130194151Y-50114981D01*
X130154543Y-50094095D01*
X130135047Y-50072606D01*
X130122302Y-50041222D01*
X130117479Y-49996275D01*
X130114731Y-49994871D01*
X130084628Y-50035843D01*
X130039871Y-50078219D01*
X130012696Y-50095998D01*
X129982474Y-50110032D01*
X129949935Y-50118921D01*
X129913231Y-50122000D01*
X129867741Y-50115710D01*
X129845805Y-50106967D01*
X129825792Y-50093240D01*
X129808887Y-50075083D01*
X129795017Y-50051780D01*
X129786294Y-50024757D01*
X129783110Y-49990047D01*
X129790566Y-49952420D01*
X129797842Y-49940832D01*
X129893691Y-49940832D01*
X129899882Y-49975225D01*
X129918848Y-50006656D01*
X129937342Y-50022959D01*
X129958929Y-50032664D01*
X129984611Y-50036026D01*
X130019756Y-50033815D01*
X130048908Y-50027661D01*
X130075417Y-50015665D01*
X130100687Y-49995421D01*
X130113232Y-49978040D01*
X130117479Y-49956220D01*
X130117479Y-49740675D01*
X130054525Y-49779205D01*
X129981130Y-49823290D01*
X129947522Y-49848613D01*
X129919581Y-49875742D01*
X129900065Y-49906614D01*
X129893691Y-49940832D01*
X129797842Y-49940832D01*
X129814557Y-49914210D01*
X129849115Y-49879973D01*
X129892226Y-49848203D01*
X129974047Y-49797706D01*
X130036329Y-49761924D01*
X130083163Y-49736645D01*
X130117479Y-49717655D01*
X130117479Y-49573064D01*
X130112594Y-49559752D01*
X130095802Y-49537954D01*
X130062891Y-49517621D01*
X130040160Y-49510989D01*
X130008363Y-49508461D01*
X129964339Y-49516155D01*
X129925870Y-49535756D01*
X129899248Y-49559569D01*
X129891542Y-49571372D01*
X129889478Y-49579841D01*
X129889478Y-49642795D01*
X129884749Y-49660721D01*
X129869145Y-49677783D01*
X129847811Y-49689390D01*
X129825120Y-49693170D01*
X129804321Y-49689171D01*
X129786591Y-49677111D01*
X129774464Y-49659578D01*
X129770532Y-49639986D01*
X129772639Y-49623840D01*
X129778897Y-49609212D01*
X129799902Y-49584055D01*
X129827196Y-49564454D01*
X129853086Y-49549067D01*
X129927214Y-49508767D01*
X129999265Y-49475855D01*
X130062219Y-49454117D01*
X130109114Y-49445935D01*
X130144345Y-49450638D01*
G37*
G36*
X130581052Y-49602495D02*
G01*
X130582456Y-49605243D01*
X130625809Y-49550777D01*
X130678993Y-49499791D01*
X130709565Y-49478645D01*
X130742618Y-49461323D01*
X130778148Y-49449853D01*
X130817479Y-49445935D01*
X130880128Y-49452875D01*
X130931479Y-49472497D01*
X130975705Y-49503379D01*
X131011225Y-49542411D01*
X131038541Y-49588177D01*
X131058119Y-49640230D01*
X131069671Y-49695141D01*
X131073506Y-49750628D01*
X131066553Y-49826801D01*
X131046212Y-49896014D01*
X131012972Y-49958617D01*
X130968543Y-50011296D01*
X130913441Y-50053743D01*
X130845445Y-50086767D01*
X130769781Y-50106922D01*
X130681802Y-50114001D01*
X130632099Y-50112596D01*
X130581052Y-50105635D01*
X130581724Y-50162910D01*
X130583128Y-50242594D01*
X130583861Y-50325026D01*
X130583861Y-50390728D01*
X130588977Y-50401623D01*
X130599187Y-50409595D01*
X130629290Y-50419365D01*
X130665682Y-50424250D01*
X130698533Y-50427059D01*
X130698533Y-50442446D01*
X130354394Y-50442446D01*
X130354394Y-50427059D01*
X130387978Y-50422113D01*
X130425042Y-50413015D01*
X130454412Y-50399032D01*
X130463552Y-50389613D01*
X130466319Y-50379493D01*
X130466319Y-49756856D01*
X130581052Y-49756856D01*
X130581052Y-49846371D01*
X130582456Y-49910729D01*
X130592226Y-49971607D01*
X130601753Y-50001814D01*
X130616040Y-50028943D01*
X130635742Y-50052177D01*
X130662202Y-50070953D01*
X130694204Y-50082656D01*
X130737734Y-50087012D01*
X130777248Y-50081531D01*
X130816075Y-50064663D01*
X130851320Y-50038478D01*
X130883241Y-50003114D01*
X130909177Y-49960995D01*
X130930075Y-49909386D01*
X130943092Y-49853203D01*
X130947599Y-49790440D01*
X130944372Y-49738364D01*
X130935021Y-49691094D01*
X130918858Y-49647375D01*
X130896553Y-49610677D01*
X130867327Y-49580005D01*
X130830790Y-49556089D01*
X130788597Y-49541107D01*
X130737734Y-49535817D01*
X130702753Y-49539260D01*
X130672704Y-49549128D01*
X130645602Y-49563768D01*
X130623733Y-49579903D01*
X130605427Y-49598105D01*
X130592959Y-49615562D01*
X130582456Y-49642123D01*
X130581724Y-49701596D01*
X130581052Y-49756856D01*
X130466319Y-49756856D01*
X130466319Y-49604388D01*
X130464182Y-49587596D01*
X130452336Y-49574957D01*
X130411730Y-49554745D01*
X130366973Y-49534412D01*
X130366973Y-49526108D01*
X130572625Y-49445935D01*
X130581052Y-49445935D01*
X130581052Y-49602495D01*
G37*
G36*
X131328435Y-49602495D02*
G01*
X131329839Y-49605243D01*
X131373192Y-49550777D01*
X131426376Y-49499791D01*
X131456948Y-49478645D01*
X131490002Y-49461323D01*
X131525531Y-49449853D01*
X131564862Y-49445935D01*
X131627511Y-49452875D01*
X131678862Y-49472497D01*
X131723088Y-49503379D01*
X131758608Y-49542411D01*
X131785924Y-49588177D01*
X131805502Y-49640230D01*
X131817054Y-49695141D01*
X131820890Y-49750628D01*
X131813936Y-49826801D01*
X131793595Y-49896014D01*
X131760355Y-49958617D01*
X131715926Y-50011296D01*
X131660824Y-50053743D01*
X131592828Y-50086767D01*
X131517165Y-50106922D01*
X131429185Y-50114001D01*
X131379482Y-50112596D01*
X131328435Y-50105635D01*
X131329107Y-50162910D01*
X131330511Y-50242594D01*
X131331244Y-50325026D01*
X131331244Y-50390728D01*
X131336360Y-50401623D01*
X131346570Y-50409595D01*
X131376673Y-50419365D01*
X131413065Y-50424250D01*
X131445916Y-50427059D01*
X131445916Y-50442446D01*
X131101778Y-50442446D01*
X131101778Y-50427059D01*
X131135361Y-50422113D01*
X131172425Y-50413015D01*
X131201795Y-50399032D01*
X131210935Y-50389613D01*
X131213702Y-50379493D01*
X131213702Y-49756856D01*
X131328435Y-49756856D01*
X131328435Y-49846371D01*
X131329839Y-49910729D01*
X131339609Y-49971607D01*
X131349136Y-50001814D01*
X131363423Y-50028943D01*
X131383125Y-50052177D01*
X131409585Y-50070953D01*
X131441587Y-50082656D01*
X131485117Y-50087012D01*
X131524631Y-50081531D01*
X131563458Y-50064663D01*
X131598703Y-50038478D01*
X131630624Y-50003114D01*
X131656560Y-49960995D01*
X131677458Y-49909386D01*
X131690476Y-49853203D01*
X131694982Y-49790440D01*
X131691755Y-49738364D01*
X131682404Y-49691094D01*
X131666241Y-49647375D01*
X131643936Y-49610677D01*
X131614710Y-49580005D01*
X131578173Y-49556089D01*
X131535980Y-49541107D01*
X131485117Y-49535817D01*
X131450136Y-49539260D01*
X131420087Y-49549128D01*
X131392985Y-49563768D01*
X131371116Y-49579903D01*
X131352810Y-49598105D01*
X131340342Y-49615562D01*
X131329839Y-49642123D01*
X131329107Y-49701596D01*
X131328435Y-49756856D01*
X131213702Y-49756856D01*
X131213702Y-49604388D01*
X131211565Y-49587596D01*
X131199719Y-49574957D01*
X131159114Y-49554745D01*
X131114356Y-49534412D01*
X131114356Y-49526108D01*
X131320009Y-49445935D01*
X131328435Y-49445935D01*
X131328435Y-49602495D01*
G37*
G36*
X132266326Y-49450638D02*
G01*
X132299667Y-49464864D01*
X132327808Y-49486529D01*
X132345829Y-49511698D01*
X132349978Y-49523424D01*
X132352789Y-49545953D01*
X132354194Y-49594252D01*
X132353461Y-49685171D01*
X132352789Y-49763512D01*
X132352057Y-49841181D01*
X132351385Y-49928620D01*
X132354531Y-49970392D01*
X132362310Y-49996495D01*
X132373062Y-50011846D01*
X132396551Y-50027129D01*
X132422765Y-50032118D01*
X132452164Y-50028326D01*
X132470331Y-50018624D01*
X132483178Y-50003277D01*
X132491336Y-49983697D01*
X132499702Y-49983697D01*
X132495881Y-50009800D01*
X132487123Y-50035415D01*
X132474179Y-50059328D01*
X132457753Y-50080784D01*
X132437927Y-50098655D01*
X132415071Y-50111558D01*
X132389690Y-50119326D01*
X132361216Y-50122000D01*
X132316133Y-50114981D01*
X132276525Y-50094095D01*
X132257029Y-50072606D01*
X132244284Y-50041222D01*
X132239461Y-49996275D01*
X132236713Y-49994871D01*
X132206610Y-50035843D01*
X132161853Y-50078219D01*
X132134677Y-50095998D01*
X132104456Y-50110032D01*
X132071917Y-50118921D01*
X132035213Y-50122000D01*
X131989722Y-50115710D01*
X131967787Y-50106967D01*
X131947774Y-50093240D01*
X131930869Y-50075083D01*
X131916999Y-50051780D01*
X131908276Y-50024757D01*
X131905092Y-49990047D01*
X131912548Y-49952420D01*
X131919824Y-49940832D01*
X132015673Y-49940832D01*
X132021864Y-49975225D01*
X132040830Y-50006656D01*
X132059324Y-50022959D01*
X132080911Y-50032664D01*
X132106593Y-50036026D01*
X132141737Y-50033815D01*
X132170890Y-50027661D01*
X132197399Y-50015665D01*
X132222669Y-49995421D01*
X132235214Y-49978040D01*
X132239461Y-49956220D01*
X132239461Y-49740675D01*
X132176507Y-49779205D01*
X132103112Y-49823290D01*
X132069504Y-49848613D01*
X132041563Y-49875742D01*
X132022046Y-49906614D01*
X132015673Y-49940832D01*
X131919824Y-49940832D01*
X131936539Y-49914210D01*
X131971097Y-49879973D01*
X132014208Y-49848203D01*
X132096029Y-49797706D01*
X132158311Y-49761924D01*
X132205145Y-49736645D01*
X132239461Y-49717655D01*
X132239461Y-49573064D01*
X132234576Y-49559752D01*
X132217784Y-49537954D01*
X132184872Y-49517621D01*
X132162142Y-49510989D01*
X132130345Y-49508461D01*
X132086321Y-49516155D01*
X132047852Y-49535756D01*
X132021230Y-49559569D01*
X132013524Y-49571372D01*
X132011460Y-49579841D01*
X132011460Y-49642795D01*
X132006730Y-49660721D01*
X131991127Y-49677783D01*
X131969793Y-49689390D01*
X131947102Y-49693170D01*
X131926303Y-49689171D01*
X131908573Y-49677111D01*
X131896446Y-49659578D01*
X131892514Y-49639986D01*
X131894621Y-49623840D01*
X131900879Y-49609212D01*
X131921884Y-49584055D01*
X131949178Y-49564454D01*
X131975068Y-49549067D01*
X132049196Y-49508767D01*
X132121247Y-49475855D01*
X132184201Y-49454117D01*
X132231095Y-49445935D01*
X132266326Y-49450638D01*
G37*
G36*
X133166118Y-49476893D02*
G01*
X133166118Y-49461567D01*
X132894703Y-49461567D01*
X132894703Y-49475489D01*
X132924073Y-49476893D01*
X132956252Y-49481106D01*
X132970536Y-49486897D01*
X132982142Y-49495700D01*
X132989827Y-49507865D01*
X132992645Y-49525620D01*
X132975120Y-49589672D01*
X132932439Y-49709473D01*
X132879255Y-49848753D01*
X132830345Y-49971302D01*
X132799571Y-49893327D01*
X132762446Y-49801431D01*
X132725382Y-49706726D01*
X132692470Y-49620386D01*
X132668718Y-49554929D01*
X132659620Y-49521467D01*
X132662662Y-49507939D01*
X132671526Y-49498509D01*
X132700225Y-49486663D01*
X132735884Y-49480374D01*
X132767392Y-49476893D01*
X132767392Y-49461567D01*
X132430214Y-49461567D01*
X132430214Y-49476954D01*
X132472553Y-49482379D01*
X132493840Y-49490204D01*
X132519729Y-49509072D01*
X132535117Y-49541190D01*
X132551908Y-49581734D01*
X132568028Y-49621546D01*
X132579874Y-49651527D01*
X132633058Y-49789829D01*
X132677816Y-49905112D01*
X132718421Y-50009831D01*
X132760370Y-50118092D01*
X132764583Y-50123099D01*
X132772948Y-50125907D01*
X132781461Y-50123896D01*
X132786931Y-50118092D01*
X132801647Y-50086035D01*
X132814897Y-50056787D01*
X132829613Y-50023997D01*
X132848541Y-49981499D01*
X132891162Y-49874154D01*
X132937995Y-49757101D01*
X132983486Y-49645604D01*
X133022015Y-49553585D01*
X133035208Y-49530571D01*
X133051385Y-49513163D01*
X133070421Y-49499656D01*
X133090525Y-49490143D01*
X133131802Y-49479702D01*
X133166118Y-49476893D01*
G37*
G36*
X133343377Y-49226422D02*
G01*
X133337873Y-49197058D01*
X133321701Y-49173666D01*
X133297635Y-49158141D01*
X133267845Y-49152844D01*
X133238056Y-49158141D01*
X133213990Y-49173666D01*
X133197818Y-49197058D01*
X133192313Y-49226422D01*
X133197854Y-49254768D01*
X133214661Y-49279178D01*
X133239244Y-49295836D01*
X133267845Y-49301344D01*
X133297582Y-49295897D01*
X133321701Y-49279850D01*
X133337900Y-49255860D01*
X133343377Y-49226422D01*
G37*
G36*
X133421718Y-50122000D02*
G01*
X133421718Y-50108017D01*
X133393020Y-50104536D01*
X133365787Y-50100995D01*
X133344110Y-50091897D01*
X133336784Y-50084019D01*
X133332203Y-50071624D01*
X133332203Y-49446302D01*
X133323838Y-49446302D01*
X133134977Y-49507851D01*
X133134977Y-49516216D01*
X133171980Y-49531665D01*
X133202083Y-49548395D01*
X133213990Y-49563844D01*
X133216066Y-49583383D01*
X133216066Y-50063259D01*
X133213783Y-50074819D01*
X133206968Y-50084264D01*
X133184620Y-50097514D01*
X133154517Y-50104536D01*
X133120933Y-50108017D01*
X133120933Y-50122000D01*
X133421718Y-50122000D01*
G37*
G36*
X133967662Y-49918423D02*
G01*
X133962578Y-49872452D01*
X133947896Y-49832742D01*
X133923576Y-49797889D01*
X133891881Y-49768743D01*
X133856421Y-49747391D01*
X133816537Y-49733348D01*
X133753583Y-49718632D01*
X133686478Y-49703917D01*
X133644469Y-49689408D01*
X133612289Y-49670272D01*
X133596665Y-49653148D01*
X133586647Y-49629173D01*
X133582919Y-49595961D01*
X133585838Y-49565011D01*
X133594093Y-49539175D01*
X133607063Y-49516418D01*
X133622730Y-49498509D01*
X133641566Y-49484359D01*
X133663336Y-49473962D01*
X133686688Y-49467626D01*
X133710230Y-49465536D01*
X133747811Y-49469194D01*
X133779412Y-49479580D01*
X133807739Y-49496461D01*
X133833267Y-49519575D01*
X133855620Y-49547360D01*
X133876682Y-49581246D01*
X133915883Y-49659037D01*
X133927057Y-49656228D01*
X133910265Y-49482389D01*
X133824902Y-49456438D01*
X133778313Y-49448733D01*
X133721404Y-49445935D01*
X133676224Y-49449326D01*
X133634637Y-49459247D01*
X133596236Y-49475712D01*
X133563318Y-49497837D01*
X133535666Y-49525540D01*
X133514347Y-49558104D01*
X133500809Y-49594794D01*
X133496151Y-49636628D01*
X133499985Y-49677598D01*
X133511007Y-49713233D01*
X133529002Y-49744583D01*
X133553235Y-49771547D01*
X133581733Y-49792442D01*
X133615098Y-49807659D01*
X133678051Y-49825916D01*
X133750774Y-49841303D01*
X133794235Y-49856367D01*
X133825635Y-49879894D01*
X133845941Y-49911854D01*
X133852929Y-49952068D01*
X133847848Y-50003857D01*
X133834158Y-50042260D01*
X133813056Y-50070525D01*
X133784338Y-50091456D01*
X133749255Y-50104436D01*
X133706017Y-50109055D01*
X133662186Y-50103777D01*
X133626272Y-50088782D01*
X133595156Y-50065663D01*
X133568875Y-50036881D01*
X133546937Y-50004051D01*
X133528330Y-49968188D01*
X133500364Y-49897357D01*
X133489190Y-49897357D01*
X133489190Y-50082432D01*
X133536869Y-50100856D01*
X133589879Y-50114733D01*
X133645490Y-50123044D01*
X133706017Y-50125907D01*
X133756996Y-50123064D01*
X133804630Y-50114733D01*
X133849333Y-50099812D01*
X133887917Y-50078280D01*
X133920541Y-50049437D01*
X133945986Y-50013067D01*
X133961990Y-49970497D01*
X133967662Y-49918423D01*
G37*
X173420693Y-96837038D02*
X173325455Y-96789419D01*
X173325455Y-96789419D02*
X173182598Y-96789419D01*
X173182598Y-96789419D02*
X173039741Y-96837038D01*
X173039741Y-96837038D02*
X172944503Y-96932276D01*
X172944503Y-96932276D02*
X172896884Y-97027514D01*
X172896884Y-97027514D02*
X172849265Y-97217990D01*
X172849265Y-97217990D02*
X172849265Y-97360847D01*
X172849265Y-97360847D02*
X172896884Y-97551323D01*
X172896884Y-97551323D02*
X172944503Y-97646561D01*
X172944503Y-97646561D02*
X173039741Y-97741800D01*
X173039741Y-97741800D02*
X173182598Y-97789419D01*
X173182598Y-97789419D02*
X173277836Y-97789419D01*
X173277836Y-97789419D02*
X173420693Y-97741800D01*
X173420693Y-97741800D02*
X173468312Y-97694180D01*
X173468312Y-97694180D02*
X173468312Y-97360847D01*
X173468312Y-97360847D02*
X173277836Y-97360847D01*
X173896884Y-97789419D02*
X173896884Y-96789419D01*
X173896884Y-96789419D02*
X174468312Y-97789419D01*
X174468312Y-97789419D02*
X174468312Y-96789419D01*
X174944503Y-97789419D02*
X174944503Y-96789419D01*
X174944503Y-96789419D02*
X175182598Y-96789419D01*
X175182598Y-96789419D02*
X175325455Y-96837038D01*
X175325455Y-96837038D02*
X175420693Y-96932276D01*
X175420693Y-96932276D02*
X175468312Y-97027514D01*
X175468312Y-97027514D02*
X175515931Y-97217990D01*
X175515931Y-97217990D02*
X175515931Y-97360847D01*
X175515931Y-97360847D02*
X175468312Y-97551323D01*
X175468312Y-97551323D02*
X175420693Y-97646561D01*
X175420693Y-97646561D02*
X175325455Y-97741800D01*
X175325455Y-97741800D02*
X175182598Y-97789419D01*
X175182598Y-97789419D02*
X174944503Y-97789419D01*
X176278265Y-99773800D02*
X176421122Y-99821419D01*
X176421122Y-99821419D02*
X176659217Y-99821419D01*
X176659217Y-99821419D02*
X176754455Y-99773800D01*
X176754455Y-99773800D02*
X176802074Y-99726180D01*
X176802074Y-99726180D02*
X176849693Y-99630942D01*
X176849693Y-99630942D02*
X176849693Y-99535704D01*
X176849693Y-99535704D02*
X176802074Y-99440466D01*
X176802074Y-99440466D02*
X176754455Y-99392847D01*
X176754455Y-99392847D02*
X176659217Y-99345228D01*
X176659217Y-99345228D02*
X176468741Y-99297609D01*
X176468741Y-99297609D02*
X176373503Y-99249990D01*
X176373503Y-99249990D02*
X176325884Y-99202371D01*
X176325884Y-99202371D02*
X176278265Y-99107133D01*
X176278265Y-99107133D02*
X176278265Y-99011895D01*
X176278265Y-99011895D02*
X176325884Y-98916657D01*
X176325884Y-98916657D02*
X176373503Y-98869038D01*
X176373503Y-98869038D02*
X176468741Y-98821419D01*
X176468741Y-98821419D02*
X176706836Y-98821419D01*
X176706836Y-98821419D02*
X176849693Y-98869038D01*
X118604312Y-38476587D02*
X118270979Y-38000396D01*
X118032884Y-38476587D02*
X118032884Y-37476587D01*
X118032884Y-37476587D02*
X118413836Y-37476587D01*
X118413836Y-37476587D02*
X118509074Y-37524206D01*
X118509074Y-37524206D02*
X118556693Y-37571825D01*
X118556693Y-37571825D02*
X118604312Y-37667063D01*
X118604312Y-37667063D02*
X118604312Y-37809920D01*
X118604312Y-37809920D02*
X118556693Y-37905158D01*
X118556693Y-37905158D02*
X118509074Y-37952777D01*
X118509074Y-37952777D02*
X118413836Y-38000396D01*
X118413836Y-38000396D02*
X118032884Y-38000396D01*
X119413836Y-38428968D02*
X119318598Y-38476587D01*
X119318598Y-38476587D02*
X119128122Y-38476587D01*
X119128122Y-38476587D02*
X119032884Y-38428968D01*
X119032884Y-38428968D02*
X118985265Y-38333729D01*
X118985265Y-38333729D02*
X118985265Y-37952777D01*
X118985265Y-37952777D02*
X119032884Y-37857539D01*
X119032884Y-37857539D02*
X119128122Y-37809920D01*
X119128122Y-37809920D02*
X119318598Y-37809920D01*
X119318598Y-37809920D02*
X119413836Y-37857539D01*
X119413836Y-37857539D02*
X119461455Y-37952777D01*
X119461455Y-37952777D02*
X119461455Y-38048015D01*
X119461455Y-38048015D02*
X118985265Y-38143253D01*
X119747170Y-37809920D02*
X120128122Y-37809920D01*
X119890027Y-37476587D02*
X119890027Y-38333729D01*
X119890027Y-38333729D02*
X119937646Y-38428968D01*
X119937646Y-38428968D02*
X120032884Y-38476587D01*
X120032884Y-38476587D02*
X120128122Y-38476587D01*
X120461456Y-38476587D02*
X120461456Y-37809920D01*
X120461456Y-38000396D02*
X120509075Y-37905158D01*
X120509075Y-37905158D02*
X120556694Y-37857539D01*
X120556694Y-37857539D02*
X120651932Y-37809920D01*
X120651932Y-37809920D02*
X120747170Y-37809920D01*
X121223361Y-38476587D02*
X121128123Y-38428968D01*
X121128123Y-38428968D02*
X121080504Y-38381348D01*
X121080504Y-38381348D02*
X121032885Y-38286110D01*
X121032885Y-38286110D02*
X121032885Y-38000396D01*
X121032885Y-38000396D02*
X121080504Y-37905158D01*
X121080504Y-37905158D02*
X121128123Y-37857539D01*
X121128123Y-37857539D02*
X121223361Y-37809920D01*
X121223361Y-37809920D02*
X121366218Y-37809920D01*
X121366218Y-37809920D02*
X121461456Y-37857539D01*
X121461456Y-37857539D02*
X121509075Y-37905158D01*
X121509075Y-37905158D02*
X121556694Y-38000396D01*
X121556694Y-38000396D02*
X121556694Y-38286110D01*
X121556694Y-38286110D02*
X121509075Y-38381348D01*
X121509075Y-38381348D02*
X121461456Y-38428968D01*
X121461456Y-38428968D02*
X121366218Y-38476587D01*
X121366218Y-38476587D02*
X121223361Y-38476587D01*
X122699552Y-38428968D02*
X122842409Y-38476587D01*
X122842409Y-38476587D02*
X123080504Y-38476587D01*
X123080504Y-38476587D02*
X123175742Y-38428968D01*
X123175742Y-38428968D02*
X123223361Y-38381348D01*
X123223361Y-38381348D02*
X123270980Y-38286110D01*
X123270980Y-38286110D02*
X123270980Y-38190872D01*
X123270980Y-38190872D02*
X123223361Y-38095634D01*
X123223361Y-38095634D02*
X123175742Y-38048015D01*
X123175742Y-38048015D02*
X123080504Y-38000396D01*
X123080504Y-38000396D02*
X122890028Y-37952777D01*
X122890028Y-37952777D02*
X122794790Y-37905158D01*
X122794790Y-37905158D02*
X122747171Y-37857539D01*
X122747171Y-37857539D02*
X122699552Y-37762301D01*
X122699552Y-37762301D02*
X122699552Y-37667063D01*
X122699552Y-37667063D02*
X122747171Y-37571825D01*
X122747171Y-37571825D02*
X122794790Y-37524206D01*
X122794790Y-37524206D02*
X122890028Y-37476587D01*
X122890028Y-37476587D02*
X123128123Y-37476587D01*
X123128123Y-37476587D02*
X123270980Y-37524206D01*
X123604314Y-37809920D02*
X123842409Y-38476587D01*
X124080504Y-37809920D02*
X123842409Y-38476587D01*
X123842409Y-38476587D02*
X123747171Y-38714682D01*
X123747171Y-38714682D02*
X123699552Y-38762301D01*
X123699552Y-38762301D02*
X123604314Y-38809920D01*
X124461457Y-37809920D02*
X124461457Y-38476587D01*
X124461457Y-37905158D02*
X124509076Y-37857539D01*
X124509076Y-37857539D02*
X124604314Y-37809920D01*
X124604314Y-37809920D02*
X124747171Y-37809920D01*
X124747171Y-37809920D02*
X124842409Y-37857539D01*
X124842409Y-37857539D02*
X124890028Y-37952777D01*
X124890028Y-37952777D02*
X124890028Y-38476587D01*
X125223362Y-37809920D02*
X125604314Y-37809920D01*
X125366219Y-37476587D02*
X125366219Y-38333729D01*
X125366219Y-38333729D02*
X125413838Y-38428968D01*
X125413838Y-38428968D02*
X125509076Y-38476587D01*
X125509076Y-38476587D02*
X125604314Y-38476587D01*
X125937648Y-38476587D02*
X125937648Y-37476587D01*
X126366219Y-38476587D02*
X126366219Y-37952777D01*
X126366219Y-37952777D02*
X126318600Y-37857539D01*
X126318600Y-37857539D02*
X126223362Y-37809920D01*
X126223362Y-37809920D02*
X126080505Y-37809920D01*
X126080505Y-37809920D02*
X125985267Y-37857539D01*
X125985267Y-37857539D02*
X125937648Y-37905158D01*
X118794789Y-39705578D02*
X119556694Y-39705578D01*
X120794789Y-39562721D02*
X121128122Y-39562721D01*
X121270979Y-40086531D02*
X120794789Y-40086531D01*
X120794789Y-40086531D02*
X120794789Y-39086531D01*
X120794789Y-39086531D02*
X121270979Y-39086531D01*
X121651932Y-40038912D02*
X121794789Y-40086531D01*
X121794789Y-40086531D02*
X122032884Y-40086531D01*
X122032884Y-40086531D02*
X122128122Y-40038912D01*
X122128122Y-40038912D02*
X122175741Y-39991292D01*
X122175741Y-39991292D02*
X122223360Y-39896054D01*
X122223360Y-39896054D02*
X122223360Y-39800816D01*
X122223360Y-39800816D02*
X122175741Y-39705578D01*
X122175741Y-39705578D02*
X122128122Y-39657959D01*
X122128122Y-39657959D02*
X122032884Y-39610340D01*
X122032884Y-39610340D02*
X121842408Y-39562721D01*
X121842408Y-39562721D02*
X121747170Y-39515102D01*
X121747170Y-39515102D02*
X121699551Y-39467483D01*
X121699551Y-39467483D02*
X121651932Y-39372245D01*
X121651932Y-39372245D02*
X121651932Y-39277007D01*
X121651932Y-39277007D02*
X121699551Y-39181769D01*
X121699551Y-39181769D02*
X121747170Y-39134150D01*
X121747170Y-39134150D02*
X121842408Y-39086531D01*
X121842408Y-39086531D02*
X122080503Y-39086531D01*
X122080503Y-39086531D02*
X122223360Y-39134150D01*
X122651932Y-40086531D02*
X122651932Y-39086531D01*
X122651932Y-39086531D02*
X123032884Y-39086531D01*
X123032884Y-39086531D02*
X123128122Y-39134150D01*
X123128122Y-39134150D02*
X123175741Y-39181769D01*
X123175741Y-39181769D02*
X123223360Y-39277007D01*
X123223360Y-39277007D02*
X123223360Y-39419864D01*
X123223360Y-39419864D02*
X123175741Y-39515102D01*
X123175741Y-39515102D02*
X123128122Y-39562721D01*
X123128122Y-39562721D02*
X123032884Y-39610340D01*
X123032884Y-39610340D02*
X122651932Y-39610340D01*
X123556694Y-39086531D02*
X124175741Y-39086531D01*
X124175741Y-39086531D02*
X123842408Y-39467483D01*
X123842408Y-39467483D02*
X123985265Y-39467483D01*
X123985265Y-39467483D02*
X124080503Y-39515102D01*
X124080503Y-39515102D02*
X124128122Y-39562721D01*
X124128122Y-39562721D02*
X124175741Y-39657959D01*
X124175741Y-39657959D02*
X124175741Y-39896054D01*
X124175741Y-39896054D02*
X124128122Y-39991292D01*
X124128122Y-39991292D02*
X124080503Y-40038912D01*
X124080503Y-40038912D02*
X123985265Y-40086531D01*
X123985265Y-40086531D02*
X123699551Y-40086531D01*
X123699551Y-40086531D02*
X123604313Y-40038912D01*
X123604313Y-40038912D02*
X123556694Y-39991292D01*
X124556694Y-39181769D02*
X124604313Y-39134150D01*
X124604313Y-39134150D02*
X124699551Y-39086531D01*
X124699551Y-39086531D02*
X124937646Y-39086531D01*
X124937646Y-39086531D02*
X125032884Y-39134150D01*
X125032884Y-39134150D02*
X125080503Y-39181769D01*
X125080503Y-39181769D02*
X125128122Y-39277007D01*
X125128122Y-39277007D02*
X125128122Y-39372245D01*
X125128122Y-39372245D02*
X125080503Y-39515102D01*
X125080503Y-39515102D02*
X124509075Y-40086531D01*
X124509075Y-40086531D02*
X125128122Y-40086531D01*
X126270980Y-40038912D02*
X126413837Y-40086531D01*
X126413837Y-40086531D02*
X126651932Y-40086531D01*
X126651932Y-40086531D02*
X126747170Y-40038912D01*
X126747170Y-40038912D02*
X126794789Y-39991292D01*
X126794789Y-39991292D02*
X126842408Y-39896054D01*
X126842408Y-39896054D02*
X126842408Y-39800816D01*
X126842408Y-39800816D02*
X126794789Y-39705578D01*
X126794789Y-39705578D02*
X126747170Y-39657959D01*
X126747170Y-39657959D02*
X126651932Y-39610340D01*
X126651932Y-39610340D02*
X126461456Y-39562721D01*
X126461456Y-39562721D02*
X126366218Y-39515102D01*
X126366218Y-39515102D02*
X126318599Y-39467483D01*
X126318599Y-39467483D02*
X126270980Y-39372245D01*
X126270980Y-39372245D02*
X126270980Y-39277007D01*
X126270980Y-39277007D02*
X126318599Y-39181769D01*
X126318599Y-39181769D02*
X126366218Y-39134150D01*
X126366218Y-39134150D02*
X126461456Y-39086531D01*
X126461456Y-39086531D02*
X126699551Y-39086531D01*
X126699551Y-39086531D02*
X126842408Y-39134150D01*
X127223361Y-39181769D02*
X127270980Y-39134150D01*
X127270980Y-39134150D02*
X127366218Y-39086531D01*
X127366218Y-39086531D02*
X127604313Y-39086531D01*
X127604313Y-39086531D02*
X127699551Y-39134150D01*
X127699551Y-39134150D02*
X127747170Y-39181769D01*
X127747170Y-39181769D02*
X127794789Y-39277007D01*
X127794789Y-39277007D02*
X127794789Y-39372245D01*
X127794789Y-39372245D02*
X127747170Y-39515102D01*
X127747170Y-39515102D02*
X127175742Y-40086531D01*
X127175742Y-40086531D02*
X127794789Y-40086531D01*
X129556694Y-39991292D02*
X129509075Y-40038912D01*
X129509075Y-40038912D02*
X129366218Y-40086531D01*
X129366218Y-40086531D02*
X129270980Y-40086531D01*
X129270980Y-40086531D02*
X129128123Y-40038912D01*
X129128123Y-40038912D02*
X129032885Y-39943673D01*
X129032885Y-39943673D02*
X128985266Y-39848435D01*
X128985266Y-39848435D02*
X128937647Y-39657959D01*
X128937647Y-39657959D02*
X128937647Y-39515102D01*
X128937647Y-39515102D02*
X128985266Y-39324626D01*
X128985266Y-39324626D02*
X129032885Y-39229388D01*
X129032885Y-39229388D02*
X129128123Y-39134150D01*
X129128123Y-39134150D02*
X129270980Y-39086531D01*
X129270980Y-39086531D02*
X129366218Y-39086531D01*
X129366218Y-39086531D02*
X129509075Y-39134150D01*
X129509075Y-39134150D02*
X129556694Y-39181769D01*
X129985266Y-40086531D02*
X129985266Y-39419864D01*
X129985266Y-39086531D02*
X129937647Y-39134150D01*
X129937647Y-39134150D02*
X129985266Y-39181769D01*
X129985266Y-39181769D02*
X130032885Y-39134150D01*
X130032885Y-39134150D02*
X129985266Y-39086531D01*
X129985266Y-39086531D02*
X129985266Y-39181769D01*
X130461456Y-40086531D02*
X130461456Y-39419864D01*
X130461456Y-39610340D02*
X130509075Y-39515102D01*
X130509075Y-39515102D02*
X130556694Y-39467483D01*
X130556694Y-39467483D02*
X130651932Y-39419864D01*
X130651932Y-39419864D02*
X130747170Y-39419864D01*
X131509075Y-40038912D02*
X131413837Y-40086531D01*
X131413837Y-40086531D02*
X131223361Y-40086531D01*
X131223361Y-40086531D02*
X131128123Y-40038912D01*
X131128123Y-40038912D02*
X131080504Y-39991292D01*
X131080504Y-39991292D02*
X131032885Y-39896054D01*
X131032885Y-39896054D02*
X131032885Y-39610340D01*
X131032885Y-39610340D02*
X131080504Y-39515102D01*
X131080504Y-39515102D02*
X131128123Y-39467483D01*
X131128123Y-39467483D02*
X131223361Y-39419864D01*
X131223361Y-39419864D02*
X131413837Y-39419864D01*
X131413837Y-39419864D02*
X131509075Y-39467483D01*
X132366218Y-39419864D02*
X132366218Y-40086531D01*
X131937647Y-39419864D02*
X131937647Y-39943673D01*
X131937647Y-39943673D02*
X131985266Y-40038912D01*
X131985266Y-40038912D02*
X132080504Y-40086531D01*
X132080504Y-40086531D02*
X132223361Y-40086531D01*
X132223361Y-40086531D02*
X132318599Y-40038912D01*
X132318599Y-40038912D02*
X132366218Y-39991292D01*
X132842409Y-40086531D02*
X132842409Y-39419864D01*
X132842409Y-39086531D02*
X132794790Y-39134150D01*
X132794790Y-39134150D02*
X132842409Y-39181769D01*
X132842409Y-39181769D02*
X132890028Y-39134150D01*
X132890028Y-39134150D02*
X132842409Y-39086531D01*
X132842409Y-39086531D02*
X132842409Y-39181769D01*
X133175742Y-39419864D02*
X133556694Y-39419864D01*
X133318599Y-39086531D02*
X133318599Y-39943673D01*
X133318599Y-39943673D02*
X133366218Y-40038912D01*
X133366218Y-40038912D02*
X133461456Y-40086531D01*
X133461456Y-40086531D02*
X133556694Y-40086531D01*
X133890028Y-40086531D02*
X133890028Y-39086531D01*
X133890028Y-39086531D02*
X134270980Y-39086531D01*
X134270980Y-39086531D02*
X134366218Y-39134150D01*
X134366218Y-39134150D02*
X134413837Y-39181769D01*
X134413837Y-39181769D02*
X134461456Y-39277007D01*
X134461456Y-39277007D02*
X134461456Y-39419864D01*
X134461456Y-39419864D02*
X134413837Y-39515102D01*
X134413837Y-39515102D02*
X134366218Y-39562721D01*
X134366218Y-39562721D02*
X134270980Y-39610340D01*
X134270980Y-39610340D02*
X133890028Y-39610340D01*
X134794790Y-39419864D02*
X135032885Y-40086531D01*
X135270980Y-39419864D02*
X135032885Y-40086531D01*
X135032885Y-40086531D02*
X134937647Y-40324626D01*
X134937647Y-40324626D02*
X134890028Y-40372245D01*
X134890028Y-40372245D02*
X134794790Y-40419864D01*
X135509076Y-39419864D02*
X135890028Y-39419864D01*
X135651933Y-39086531D02*
X135651933Y-39943673D01*
X135651933Y-39943673D02*
X135699552Y-40038912D01*
X135699552Y-40038912D02*
X135794790Y-40086531D01*
X135794790Y-40086531D02*
X135890028Y-40086531D01*
X136223362Y-40086531D02*
X136223362Y-39086531D01*
X136651933Y-40086531D02*
X136651933Y-39562721D01*
X136651933Y-39562721D02*
X136604314Y-39467483D01*
X136604314Y-39467483D02*
X136509076Y-39419864D01*
X136509076Y-39419864D02*
X136366219Y-39419864D01*
X136366219Y-39419864D02*
X136270981Y-39467483D01*
X136270981Y-39467483D02*
X136223362Y-39515102D01*
X137270981Y-40086531D02*
X137175743Y-40038912D01*
X137175743Y-40038912D02*
X137128124Y-39991292D01*
X137128124Y-39991292D02*
X137080505Y-39896054D01*
X137080505Y-39896054D02*
X137080505Y-39610340D01*
X137080505Y-39610340D02*
X137128124Y-39515102D01*
X137128124Y-39515102D02*
X137175743Y-39467483D01*
X137175743Y-39467483D02*
X137270981Y-39419864D01*
X137270981Y-39419864D02*
X137413838Y-39419864D01*
X137413838Y-39419864D02*
X137509076Y-39467483D01*
X137509076Y-39467483D02*
X137556695Y-39515102D01*
X137556695Y-39515102D02*
X137604314Y-39610340D01*
X137604314Y-39610340D02*
X137604314Y-39896054D01*
X137604314Y-39896054D02*
X137556695Y-39991292D01*
X137556695Y-39991292D02*
X137509076Y-40038912D01*
X137509076Y-40038912D02*
X137413838Y-40086531D01*
X137413838Y-40086531D02*
X137270981Y-40086531D01*
X138032886Y-39419864D02*
X138032886Y-40086531D01*
X138032886Y-39515102D02*
X138080505Y-39467483D01*
X138080505Y-39467483D02*
X138175743Y-39419864D01*
X138175743Y-39419864D02*
X138318600Y-39419864D01*
X138318600Y-39419864D02*
X138413838Y-39467483D01*
X138413838Y-39467483D02*
X138461457Y-39562721D01*
X138461457Y-39562721D02*
X138461457Y-40086531D01*
X118794789Y-41315522D02*
X119556694Y-41315522D01*
X120747170Y-41648856D02*
X120890027Y-41696475D01*
X120890027Y-41696475D02*
X121128122Y-41696475D01*
X121128122Y-41696475D02*
X121223360Y-41648856D01*
X121223360Y-41648856D02*
X121270979Y-41601236D01*
X121270979Y-41601236D02*
X121318598Y-41505998D01*
X121318598Y-41505998D02*
X121318598Y-41410760D01*
X121318598Y-41410760D02*
X121270979Y-41315522D01*
X121270979Y-41315522D02*
X121223360Y-41267903D01*
X121223360Y-41267903D02*
X121128122Y-41220284D01*
X121128122Y-41220284D02*
X120937646Y-41172665D01*
X120937646Y-41172665D02*
X120842408Y-41125046D01*
X120842408Y-41125046D02*
X120794789Y-41077427D01*
X120794789Y-41077427D02*
X120747170Y-40982189D01*
X120747170Y-40982189D02*
X120747170Y-40886951D01*
X120747170Y-40886951D02*
X120794789Y-40791713D01*
X120794789Y-40791713D02*
X120842408Y-40744094D01*
X120842408Y-40744094D02*
X120937646Y-40696475D01*
X120937646Y-40696475D02*
X121175741Y-40696475D01*
X121175741Y-40696475D02*
X121318598Y-40744094D01*
X121747170Y-41696475D02*
X121747170Y-40696475D01*
X121747170Y-40696475D02*
X122318598Y-41696475D01*
X122318598Y-41696475D02*
X122318598Y-40696475D01*
X122699551Y-40696475D02*
X123366217Y-40696475D01*
X123366217Y-40696475D02*
X122937646Y-41696475D01*
X124175741Y-40696475D02*
X123985265Y-40696475D01*
X123985265Y-40696475D02*
X123890027Y-40744094D01*
X123890027Y-40744094D02*
X123842408Y-40791713D01*
X123842408Y-40791713D02*
X123747170Y-40934570D01*
X123747170Y-40934570D02*
X123699551Y-41125046D01*
X123699551Y-41125046D02*
X123699551Y-41505998D01*
X123699551Y-41505998D02*
X123747170Y-41601236D01*
X123747170Y-41601236D02*
X123794789Y-41648856D01*
X123794789Y-41648856D02*
X123890027Y-41696475D01*
X123890027Y-41696475D02*
X124080503Y-41696475D01*
X124080503Y-41696475D02*
X124175741Y-41648856D01*
X124175741Y-41648856D02*
X124223360Y-41601236D01*
X124223360Y-41601236D02*
X124270979Y-41505998D01*
X124270979Y-41505998D02*
X124270979Y-41267903D01*
X124270979Y-41267903D02*
X124223360Y-41172665D01*
X124223360Y-41172665D02*
X124175741Y-41125046D01*
X124175741Y-41125046D02*
X124080503Y-41077427D01*
X124080503Y-41077427D02*
X123890027Y-41077427D01*
X123890027Y-41077427D02*
X123794789Y-41125046D01*
X123794789Y-41125046D02*
X123747170Y-41172665D01*
X123747170Y-41172665D02*
X123699551Y-41267903D01*
X125128122Y-41029808D02*
X125128122Y-41696475D01*
X124890027Y-40648856D02*
X124651932Y-41363141D01*
X124651932Y-41363141D02*
X125270979Y-41363141D01*
X125794789Y-41125046D02*
X125699551Y-41077427D01*
X125699551Y-41077427D02*
X125651932Y-41029808D01*
X125651932Y-41029808D02*
X125604313Y-40934570D01*
X125604313Y-40934570D02*
X125604313Y-40886951D01*
X125604313Y-40886951D02*
X125651932Y-40791713D01*
X125651932Y-40791713D02*
X125699551Y-40744094D01*
X125699551Y-40744094D02*
X125794789Y-40696475D01*
X125794789Y-40696475D02*
X125985265Y-40696475D01*
X125985265Y-40696475D02*
X126080503Y-40744094D01*
X126080503Y-40744094D02*
X126128122Y-40791713D01*
X126128122Y-40791713D02*
X126175741Y-40886951D01*
X126175741Y-40886951D02*
X126175741Y-40934570D01*
X126175741Y-40934570D02*
X126128122Y-41029808D01*
X126128122Y-41029808D02*
X126080503Y-41077427D01*
X126080503Y-41077427D02*
X125985265Y-41125046D01*
X125985265Y-41125046D02*
X125794789Y-41125046D01*
X125794789Y-41125046D02*
X125699551Y-41172665D01*
X125699551Y-41172665D02*
X125651932Y-41220284D01*
X125651932Y-41220284D02*
X125604313Y-41315522D01*
X125604313Y-41315522D02*
X125604313Y-41505998D01*
X125604313Y-41505998D02*
X125651932Y-41601236D01*
X125651932Y-41601236D02*
X125699551Y-41648856D01*
X125699551Y-41648856D02*
X125794789Y-41696475D01*
X125794789Y-41696475D02*
X125985265Y-41696475D01*
X125985265Y-41696475D02*
X126080503Y-41648856D01*
X126080503Y-41648856D02*
X126128122Y-41601236D01*
X126128122Y-41601236D02*
X126175741Y-41505998D01*
X126175741Y-41505998D02*
X126175741Y-41315522D01*
X126175741Y-41315522D02*
X126128122Y-41220284D01*
X126128122Y-41220284D02*
X126080503Y-41172665D01*
X126080503Y-41172665D02*
X125985265Y-41125046D01*
X126651932Y-41696475D02*
X126842408Y-41696475D01*
X126842408Y-41696475D02*
X126937646Y-41648856D01*
X126937646Y-41648856D02*
X126985265Y-41601236D01*
X126985265Y-41601236D02*
X127080503Y-41458379D01*
X127080503Y-41458379D02*
X127128122Y-41267903D01*
X127128122Y-41267903D02*
X127128122Y-40886951D01*
X127128122Y-40886951D02*
X127080503Y-40791713D01*
X127080503Y-40791713D02*
X127032884Y-40744094D01*
X127032884Y-40744094D02*
X126937646Y-40696475D01*
X126937646Y-40696475D02*
X126747170Y-40696475D01*
X126747170Y-40696475D02*
X126651932Y-40744094D01*
X126651932Y-40744094D02*
X126604313Y-40791713D01*
X126604313Y-40791713D02*
X126556694Y-40886951D01*
X126556694Y-40886951D02*
X126556694Y-41125046D01*
X126556694Y-41125046D02*
X126604313Y-41220284D01*
X126604313Y-41220284D02*
X126651932Y-41267903D01*
X126651932Y-41267903D02*
X126747170Y-41315522D01*
X126747170Y-41315522D02*
X126937646Y-41315522D01*
X126937646Y-41315522D02*
X127032884Y-41267903D01*
X127032884Y-41267903D02*
X127080503Y-41220284D01*
X127080503Y-41220284D02*
X127128122Y-41125046D01*
X128747170Y-41029808D02*
X128747170Y-41839332D01*
X128747170Y-41839332D02*
X128699551Y-41934570D01*
X128699551Y-41934570D02*
X128651932Y-41982189D01*
X128651932Y-41982189D02*
X128556694Y-42029808D01*
X128556694Y-42029808D02*
X128413837Y-42029808D01*
X128413837Y-42029808D02*
X128318599Y-41982189D01*
X128747170Y-41648856D02*
X128651932Y-41696475D01*
X128651932Y-41696475D02*
X128461456Y-41696475D01*
X128461456Y-41696475D02*
X128366218Y-41648856D01*
X128366218Y-41648856D02*
X128318599Y-41601236D01*
X128318599Y-41601236D02*
X128270980Y-41505998D01*
X128270980Y-41505998D02*
X128270980Y-41220284D01*
X128270980Y-41220284D02*
X128318599Y-41125046D01*
X128318599Y-41125046D02*
X128366218Y-41077427D01*
X128366218Y-41077427D02*
X128461456Y-41029808D01*
X128461456Y-41029808D02*
X128651932Y-41029808D01*
X128651932Y-41029808D02*
X128747170Y-41077427D01*
X129604313Y-41648856D02*
X129509075Y-41696475D01*
X129509075Y-41696475D02*
X129318599Y-41696475D01*
X129318599Y-41696475D02*
X129223361Y-41648856D01*
X129223361Y-41648856D02*
X129175742Y-41553617D01*
X129175742Y-41553617D02*
X129175742Y-41172665D01*
X129175742Y-41172665D02*
X129223361Y-41077427D01*
X129223361Y-41077427D02*
X129318599Y-41029808D01*
X129318599Y-41029808D02*
X129509075Y-41029808D01*
X129509075Y-41029808D02*
X129604313Y-41077427D01*
X129604313Y-41077427D02*
X129651932Y-41172665D01*
X129651932Y-41172665D02*
X129651932Y-41267903D01*
X129651932Y-41267903D02*
X129175742Y-41363141D01*
X130223361Y-41696475D02*
X130128123Y-41648856D01*
X130128123Y-41648856D02*
X130080504Y-41553617D01*
X130080504Y-41553617D02*
X130080504Y-40696475D01*
X131032885Y-41029808D02*
X131032885Y-41696475D01*
X130604314Y-41029808D02*
X130604314Y-41553617D01*
X130604314Y-41553617D02*
X130651933Y-41648856D01*
X130651933Y-41648856D02*
X130747171Y-41696475D01*
X130747171Y-41696475D02*
X130890028Y-41696475D01*
X130890028Y-41696475D02*
X130985266Y-41648856D01*
X130985266Y-41648856D02*
X131032885Y-41601236D01*
X131509076Y-41696475D02*
X131509076Y-41029808D01*
X131509076Y-40696475D02*
X131461457Y-40744094D01*
X131461457Y-40744094D02*
X131509076Y-40791713D01*
X131509076Y-40791713D02*
X131556695Y-40744094D01*
X131556695Y-40744094D02*
X131509076Y-40696475D01*
X131509076Y-40696475D02*
X131509076Y-40791713D01*
X132413837Y-41696475D02*
X132413837Y-40696475D01*
X132413837Y-41648856D02*
X132318599Y-41696475D01*
X132318599Y-41696475D02*
X132128123Y-41696475D01*
X132128123Y-41696475D02*
X132032885Y-41648856D01*
X132032885Y-41648856D02*
X131985266Y-41601236D01*
X131985266Y-41601236D02*
X131937647Y-41505998D01*
X131937647Y-41505998D02*
X131937647Y-41220284D01*
X131937647Y-41220284D02*
X131985266Y-41125046D01*
X131985266Y-41125046D02*
X132032885Y-41077427D01*
X132032885Y-41077427D02*
X132128123Y-41029808D01*
X132128123Y-41029808D02*
X132318599Y-41029808D01*
X132318599Y-41029808D02*
X132413837Y-41077427D01*
X132842409Y-41648856D02*
X132937647Y-41696475D01*
X132937647Y-41696475D02*
X133128123Y-41696475D01*
X133128123Y-41696475D02*
X133223361Y-41648856D01*
X133223361Y-41648856D02*
X133270980Y-41553617D01*
X133270980Y-41553617D02*
X133270980Y-41505998D01*
X133270980Y-41505998D02*
X133223361Y-41410760D01*
X133223361Y-41410760D02*
X133128123Y-41363141D01*
X133128123Y-41363141D02*
X132985266Y-41363141D01*
X132985266Y-41363141D02*
X132890028Y-41315522D01*
X132890028Y-41315522D02*
X132842409Y-41220284D01*
X132842409Y-41220284D02*
X132842409Y-41172665D01*
X132842409Y-41172665D02*
X132890028Y-41077427D01*
X132890028Y-41077427D02*
X132985266Y-41029808D01*
X132985266Y-41029808D02*
X133128123Y-41029808D01*
X133128123Y-41029808D02*
X133223361Y-41077427D01*
X134128123Y-41648856D02*
X134032885Y-41696475D01*
X134032885Y-41696475D02*
X133842409Y-41696475D01*
X133842409Y-41696475D02*
X133747171Y-41648856D01*
X133747171Y-41648856D02*
X133699552Y-41601236D01*
X133699552Y-41601236D02*
X133651933Y-41505998D01*
X133651933Y-41505998D02*
X133651933Y-41220284D01*
X133651933Y-41220284D02*
X133699552Y-41125046D01*
X133699552Y-41125046D02*
X133747171Y-41077427D01*
X133747171Y-41077427D02*
X133842409Y-41029808D01*
X133842409Y-41029808D02*
X134032885Y-41029808D01*
X134032885Y-41029808D02*
X134128123Y-41077427D01*
X134556695Y-41696475D02*
X134556695Y-40696475D01*
X134985266Y-41696475D02*
X134985266Y-41172665D01*
X134985266Y-41172665D02*
X134937647Y-41077427D01*
X134937647Y-41077427D02*
X134842409Y-41029808D01*
X134842409Y-41029808D02*
X134699552Y-41029808D01*
X134699552Y-41029808D02*
X134604314Y-41077427D01*
X134604314Y-41077427D02*
X134556695Y-41125046D01*
X135461457Y-41696475D02*
X135461457Y-41029808D01*
X135461457Y-40696475D02*
X135413838Y-40744094D01*
X135413838Y-40744094D02*
X135461457Y-40791713D01*
X135461457Y-40791713D02*
X135509076Y-40744094D01*
X135509076Y-40744094D02*
X135461457Y-40696475D01*
X135461457Y-40696475D02*
X135461457Y-40791713D01*
X135937647Y-41029808D02*
X135937647Y-42029808D01*
X135937647Y-41077427D02*
X136032885Y-41029808D01*
X136032885Y-41029808D02*
X136223361Y-41029808D01*
X136223361Y-41029808D02*
X136318599Y-41077427D01*
X136318599Y-41077427D02*
X136366218Y-41125046D01*
X136366218Y-41125046D02*
X136413837Y-41220284D01*
X136413837Y-41220284D02*
X136413837Y-41505998D01*
X136413837Y-41505998D02*
X136366218Y-41601236D01*
X136366218Y-41601236D02*
X136318599Y-41648856D01*
X136318599Y-41648856D02*
X136223361Y-41696475D01*
X136223361Y-41696475D02*
X136032885Y-41696475D01*
X136032885Y-41696475D02*
X135937647Y-41648856D01*
X118794789Y-42925466D02*
X119556694Y-42925466D01*
X120651932Y-42306419D02*
X120985265Y-43306419D01*
X120985265Y-43306419D02*
X121318598Y-42306419D01*
X121794789Y-43306419D02*
X121699551Y-43258800D01*
X121699551Y-43258800D02*
X121651932Y-43211180D01*
X121651932Y-43211180D02*
X121604313Y-43115942D01*
X121604313Y-43115942D02*
X121604313Y-42830228D01*
X121604313Y-42830228D02*
X121651932Y-42734990D01*
X121651932Y-42734990D02*
X121699551Y-42687371D01*
X121699551Y-42687371D02*
X121794789Y-42639752D01*
X121794789Y-42639752D02*
X121937646Y-42639752D01*
X121937646Y-42639752D02*
X122032884Y-42687371D01*
X122032884Y-42687371D02*
X122080503Y-42734990D01*
X122080503Y-42734990D02*
X122128122Y-42830228D01*
X122128122Y-42830228D02*
X122128122Y-43115942D01*
X122128122Y-43115942D02*
X122080503Y-43211180D01*
X122080503Y-43211180D02*
X122032884Y-43258800D01*
X122032884Y-43258800D02*
X121937646Y-43306419D01*
X121937646Y-43306419D02*
X121794789Y-43306419D01*
X122699551Y-43306419D02*
X122604313Y-43258800D01*
X122604313Y-43258800D02*
X122556694Y-43163561D01*
X122556694Y-43163561D02*
X122556694Y-42306419D01*
X123509075Y-42639752D02*
X123509075Y-43306419D01*
X123080504Y-42639752D02*
X123080504Y-43163561D01*
X123080504Y-43163561D02*
X123128123Y-43258800D01*
X123128123Y-43258800D02*
X123223361Y-43306419D01*
X123223361Y-43306419D02*
X123366218Y-43306419D01*
X123366218Y-43306419D02*
X123461456Y-43258800D01*
X123461456Y-43258800D02*
X123509075Y-43211180D01*
X123985266Y-43306419D02*
X123985266Y-42639752D01*
X123985266Y-42734990D02*
X124032885Y-42687371D01*
X124032885Y-42687371D02*
X124128123Y-42639752D01*
X124128123Y-42639752D02*
X124270980Y-42639752D01*
X124270980Y-42639752D02*
X124366218Y-42687371D01*
X124366218Y-42687371D02*
X124413837Y-42782609D01*
X124413837Y-42782609D02*
X124413837Y-43306419D01*
X124413837Y-42782609D02*
X124461456Y-42687371D01*
X124461456Y-42687371D02*
X124556694Y-42639752D01*
X124556694Y-42639752D02*
X124699551Y-42639752D01*
X124699551Y-42639752D02*
X124794790Y-42687371D01*
X124794790Y-42687371D02*
X124842409Y-42782609D01*
X124842409Y-42782609D02*
X124842409Y-43306419D01*
X125699551Y-43258800D02*
X125604313Y-43306419D01*
X125604313Y-43306419D02*
X125413837Y-43306419D01*
X125413837Y-43306419D02*
X125318599Y-43258800D01*
X125318599Y-43258800D02*
X125270980Y-43163561D01*
X125270980Y-43163561D02*
X125270980Y-42782609D01*
X125270980Y-42782609D02*
X125318599Y-42687371D01*
X125318599Y-42687371D02*
X125413837Y-42639752D01*
X125413837Y-42639752D02*
X125604313Y-42639752D01*
X125604313Y-42639752D02*
X125699551Y-42687371D01*
X125699551Y-42687371D02*
X125747170Y-42782609D01*
X125747170Y-42782609D02*
X125747170Y-42877847D01*
X125747170Y-42877847D02*
X125270980Y-42973085D01*
X126937647Y-43306419D02*
X126937647Y-42306419D01*
X126937647Y-42687371D02*
X127032885Y-42639752D01*
X127032885Y-42639752D02*
X127223361Y-42639752D01*
X127223361Y-42639752D02*
X127318599Y-42687371D01*
X127318599Y-42687371D02*
X127366218Y-42734990D01*
X127366218Y-42734990D02*
X127413837Y-42830228D01*
X127413837Y-42830228D02*
X127413837Y-43115942D01*
X127413837Y-43115942D02*
X127366218Y-43211180D01*
X127366218Y-43211180D02*
X127318599Y-43258800D01*
X127318599Y-43258800D02*
X127223361Y-43306419D01*
X127223361Y-43306419D02*
X127032885Y-43306419D01*
X127032885Y-43306419D02*
X126937647Y-43258800D01*
X127985266Y-43306419D02*
X127890028Y-43258800D01*
X127890028Y-43258800D02*
X127842409Y-43211180D01*
X127842409Y-43211180D02*
X127794790Y-43115942D01*
X127794790Y-43115942D02*
X127794790Y-42830228D01*
X127794790Y-42830228D02*
X127842409Y-42734990D01*
X127842409Y-42734990D02*
X127890028Y-42687371D01*
X127890028Y-42687371D02*
X127985266Y-42639752D01*
X127985266Y-42639752D02*
X128128123Y-42639752D01*
X128128123Y-42639752D02*
X128223361Y-42687371D01*
X128223361Y-42687371D02*
X128270980Y-42734990D01*
X128270980Y-42734990D02*
X128318599Y-42830228D01*
X128318599Y-42830228D02*
X128318599Y-43115942D01*
X128318599Y-43115942D02*
X128270980Y-43211180D01*
X128270980Y-43211180D02*
X128223361Y-43258800D01*
X128223361Y-43258800D02*
X128128123Y-43306419D01*
X128128123Y-43306419D02*
X127985266Y-43306419D01*
X128890028Y-43306419D02*
X128794790Y-43258800D01*
X128794790Y-43258800D02*
X128747171Y-43211180D01*
X128747171Y-43211180D02*
X128699552Y-43115942D01*
X128699552Y-43115942D02*
X128699552Y-42830228D01*
X128699552Y-42830228D02*
X128747171Y-42734990D01*
X128747171Y-42734990D02*
X128794790Y-42687371D01*
X128794790Y-42687371D02*
X128890028Y-42639752D01*
X128890028Y-42639752D02*
X129032885Y-42639752D01*
X129032885Y-42639752D02*
X129128123Y-42687371D01*
X129128123Y-42687371D02*
X129175742Y-42734990D01*
X129175742Y-42734990D02*
X129223361Y-42830228D01*
X129223361Y-42830228D02*
X129223361Y-43115942D01*
X129223361Y-43115942D02*
X129175742Y-43211180D01*
X129175742Y-43211180D02*
X129128123Y-43258800D01*
X129128123Y-43258800D02*
X129032885Y-43306419D01*
X129032885Y-43306419D02*
X128890028Y-43306419D01*
X129604314Y-43258800D02*
X129699552Y-43306419D01*
X129699552Y-43306419D02*
X129890028Y-43306419D01*
X129890028Y-43306419D02*
X129985266Y-43258800D01*
X129985266Y-43258800D02*
X130032885Y-43163561D01*
X130032885Y-43163561D02*
X130032885Y-43115942D01*
X130032885Y-43115942D02*
X129985266Y-43020704D01*
X129985266Y-43020704D02*
X129890028Y-42973085D01*
X129890028Y-42973085D02*
X129747171Y-42973085D01*
X129747171Y-42973085D02*
X129651933Y-42925466D01*
X129651933Y-42925466D02*
X129604314Y-42830228D01*
X129604314Y-42830228D02*
X129604314Y-42782609D01*
X129604314Y-42782609D02*
X129651933Y-42687371D01*
X129651933Y-42687371D02*
X129747171Y-42639752D01*
X129747171Y-42639752D02*
X129890028Y-42639752D01*
X129890028Y-42639752D02*
X129985266Y-42687371D01*
X130318600Y-42639752D02*
X130699552Y-42639752D01*
X130461457Y-42306419D02*
X130461457Y-43163561D01*
X130461457Y-43163561D02*
X130509076Y-43258800D01*
X130509076Y-43258800D02*
X130604314Y-43306419D01*
X130604314Y-43306419D02*
X130699552Y-43306419D01*
X131413838Y-43258800D02*
X131318600Y-43306419D01*
X131318600Y-43306419D02*
X131128124Y-43306419D01*
X131128124Y-43306419D02*
X131032886Y-43258800D01*
X131032886Y-43258800D02*
X130985267Y-43163561D01*
X130985267Y-43163561D02*
X130985267Y-42782609D01*
X130985267Y-42782609D02*
X131032886Y-42687371D01*
X131032886Y-42687371D02*
X131128124Y-42639752D01*
X131128124Y-42639752D02*
X131318600Y-42639752D01*
X131318600Y-42639752D02*
X131413838Y-42687371D01*
X131413838Y-42687371D02*
X131461457Y-42782609D01*
X131461457Y-42782609D02*
X131461457Y-42877847D01*
X131461457Y-42877847D02*
X130985267Y-42973085D01*
X131890029Y-43306419D02*
X131890029Y-42639752D01*
X131890029Y-42830228D02*
X131937648Y-42734990D01*
X131937648Y-42734990D02*
X131985267Y-42687371D01*
X131985267Y-42687371D02*
X132080505Y-42639752D01*
X132080505Y-42639752D02*
X132175743Y-42639752D01*
D11*
X114069905Y-84870819D02*
X114069905Y-83870819D01*
X114069905Y-83870819D02*
X114308000Y-83870819D01*
X114308000Y-83870819D02*
X114450857Y-83918438D01*
X114450857Y-83918438D02*
X114546095Y-84013676D01*
X114546095Y-84013676D02*
X114593714Y-84108914D01*
X114593714Y-84108914D02*
X114641333Y-84299390D01*
X114641333Y-84299390D02*
X114641333Y-84442247D01*
X114641333Y-84442247D02*
X114593714Y-84632723D01*
X114593714Y-84632723D02*
X114546095Y-84727961D01*
X114546095Y-84727961D02*
X114450857Y-84823200D01*
X114450857Y-84823200D02*
X114308000Y-84870819D01*
X114308000Y-84870819D02*
X114069905Y-84870819D01*
X115593714Y-84870819D02*
X115022286Y-84870819D01*
X115308000Y-84870819D02*
X115308000Y-83870819D01*
X115308000Y-83870819D02*
X115212762Y-84013676D01*
X115212762Y-84013676D02*
X115117524Y-84108914D01*
X115117524Y-84108914D02*
X115022286Y-84156533D01*
X158583333Y-83241819D02*
X158250000Y-82765628D01*
X158011905Y-83241819D02*
X158011905Y-82241819D01*
X158011905Y-82241819D02*
X158392857Y-82241819D01*
X158392857Y-82241819D02*
X158488095Y-82289438D01*
X158488095Y-82289438D02*
X158535714Y-82337057D01*
X158535714Y-82337057D02*
X158583333Y-82432295D01*
X158583333Y-82432295D02*
X158583333Y-82575152D01*
X158583333Y-82575152D02*
X158535714Y-82670390D01*
X158535714Y-82670390D02*
X158488095Y-82718009D01*
X158488095Y-82718009D02*
X158392857Y-82765628D01*
X158392857Y-82765628D02*
X158011905Y-82765628D01*
X158964286Y-82337057D02*
X159011905Y-82289438D01*
X159011905Y-82289438D02*
X159107143Y-82241819D01*
X159107143Y-82241819D02*
X159345238Y-82241819D01*
X159345238Y-82241819D02*
X159440476Y-82289438D01*
X159440476Y-82289438D02*
X159488095Y-82337057D01*
X159488095Y-82337057D02*
X159535714Y-82432295D01*
X159535714Y-82432295D02*
X159535714Y-82527533D01*
X159535714Y-82527533D02*
X159488095Y-82670390D01*
X159488095Y-82670390D02*
X158916667Y-83241819D01*
X158916667Y-83241819D02*
X159535714Y-83241819D01*
X125222095Y-78912819D02*
X125222095Y-79722342D01*
X125222095Y-79722342D02*
X125269714Y-79817580D01*
X125269714Y-79817580D02*
X125317333Y-79865200D01*
X125317333Y-79865200D02*
X125412571Y-79912819D01*
X125412571Y-79912819D02*
X125603047Y-79912819D01*
X125603047Y-79912819D02*
X125698285Y-79865200D01*
X125698285Y-79865200D02*
X125745904Y-79817580D01*
X125745904Y-79817580D02*
X125793523Y-79722342D01*
X125793523Y-79722342D02*
X125793523Y-78912819D01*
X126222095Y-79008057D02*
X126269714Y-78960438D01*
X126269714Y-78960438D02*
X126364952Y-78912819D01*
X126364952Y-78912819D02*
X126603047Y-78912819D01*
X126603047Y-78912819D02*
X126698285Y-78960438D01*
X126698285Y-78960438D02*
X126745904Y-79008057D01*
X126745904Y-79008057D02*
X126793523Y-79103295D01*
X126793523Y-79103295D02*
X126793523Y-79198533D01*
X126793523Y-79198533D02*
X126745904Y-79341390D01*
X126745904Y-79341390D02*
X126174476Y-79912819D01*
X126174476Y-79912819D02*
X126793523Y-79912819D01*
X158583333Y-80091819D02*
X158250000Y-79615628D01*
X158011905Y-80091819D02*
X158011905Y-79091819D01*
X158011905Y-79091819D02*
X158392857Y-79091819D01*
X158392857Y-79091819D02*
X158488095Y-79139438D01*
X158488095Y-79139438D02*
X158535714Y-79187057D01*
X158535714Y-79187057D02*
X158583333Y-79282295D01*
X158583333Y-79282295D02*
X158583333Y-79425152D01*
X158583333Y-79425152D02*
X158535714Y-79520390D01*
X158535714Y-79520390D02*
X158488095Y-79568009D01*
X158488095Y-79568009D02*
X158392857Y-79615628D01*
X158392857Y-79615628D02*
X158011905Y-79615628D01*
X159535714Y-80091819D02*
X158964286Y-80091819D01*
X159250000Y-80091819D02*
X159250000Y-79091819D01*
X159250000Y-79091819D02*
X159154762Y-79234676D01*
X159154762Y-79234676D02*
X159059524Y-79329914D01*
X159059524Y-79329914D02*
X158964286Y-79377533D01*
X91043381Y-88831200D02*
X91186238Y-88878819D01*
X91186238Y-88878819D02*
X91424333Y-88878819D01*
X91424333Y-88878819D02*
X91519571Y-88831200D01*
X91519571Y-88831200D02*
X91567190Y-88783580D01*
X91567190Y-88783580D02*
X91614809Y-88688342D01*
X91614809Y-88688342D02*
X91614809Y-88593104D01*
X91614809Y-88593104D02*
X91567190Y-88497866D01*
X91567190Y-88497866D02*
X91519571Y-88450247D01*
X91519571Y-88450247D02*
X91424333Y-88402628D01*
X91424333Y-88402628D02*
X91233857Y-88355009D01*
X91233857Y-88355009D02*
X91138619Y-88307390D01*
X91138619Y-88307390D02*
X91091000Y-88259771D01*
X91091000Y-88259771D02*
X91043381Y-88164533D01*
X91043381Y-88164533D02*
X91043381Y-88069295D01*
X91043381Y-88069295D02*
X91091000Y-87974057D01*
X91091000Y-87974057D02*
X91138619Y-87926438D01*
X91138619Y-87926438D02*
X91233857Y-87878819D01*
X91233857Y-87878819D02*
X91471952Y-87878819D01*
X91471952Y-87878819D02*
X91614809Y-87926438D01*
X91948143Y-87878819D02*
X92186238Y-88878819D01*
X92186238Y-88878819D02*
X92376714Y-88164533D01*
X92376714Y-88164533D02*
X92567190Y-88878819D01*
X92567190Y-88878819D02*
X92805286Y-87878819D01*
X93376714Y-87878819D02*
X93471952Y-87878819D01*
X93471952Y-87878819D02*
X93567190Y-87926438D01*
X93567190Y-87926438D02*
X93614809Y-87974057D01*
X93614809Y-87974057D02*
X93662428Y-88069295D01*
X93662428Y-88069295D02*
X93710047Y-88259771D01*
X93710047Y-88259771D02*
X93710047Y-88497866D01*
X93710047Y-88497866D02*
X93662428Y-88688342D01*
X93662428Y-88688342D02*
X93614809Y-88783580D01*
X93614809Y-88783580D02*
X93567190Y-88831200D01*
X93567190Y-88831200D02*
X93471952Y-88878819D01*
X93471952Y-88878819D02*
X93376714Y-88878819D01*
X93376714Y-88878819D02*
X93281476Y-88831200D01*
X93281476Y-88831200D02*
X93233857Y-88783580D01*
X93233857Y-88783580D02*
X93186238Y-88688342D01*
X93186238Y-88688342D02*
X93138619Y-88497866D01*
X93138619Y-88497866D02*
X93138619Y-88259771D01*
X93138619Y-88259771D02*
X93186238Y-88069295D01*
X93186238Y-88069295D02*
X93233857Y-87974057D01*
X93233857Y-87974057D02*
X93281476Y-87926438D01*
X93281476Y-87926438D02*
X93376714Y-87878819D01*
X94186238Y-88831200D02*
X94186238Y-88878819D01*
X94186238Y-88878819D02*
X94138619Y-88974057D01*
X94138619Y-88974057D02*
X94091000Y-89021676D01*
X94662428Y-88878819D02*
X94852904Y-88878819D01*
X94852904Y-88878819D02*
X94948142Y-88831200D01*
X94948142Y-88831200D02*
X94995761Y-88783580D01*
X94995761Y-88783580D02*
X95090999Y-88640723D01*
X95090999Y-88640723D02*
X95138618Y-88450247D01*
X95138618Y-88450247D02*
X95138618Y-88069295D01*
X95138618Y-88069295D02*
X95090999Y-87974057D01*
X95090999Y-87974057D02*
X95043380Y-87926438D01*
X95043380Y-87926438D02*
X94948142Y-87878819D01*
X94948142Y-87878819D02*
X94757666Y-87878819D01*
X94757666Y-87878819D02*
X94662428Y-87926438D01*
X94662428Y-87926438D02*
X94614809Y-87974057D01*
X94614809Y-87974057D02*
X94567190Y-88069295D01*
X94567190Y-88069295D02*
X94567190Y-88307390D01*
X94567190Y-88307390D02*
X94614809Y-88402628D01*
X94614809Y-88402628D02*
X94662428Y-88450247D01*
X94662428Y-88450247D02*
X94757666Y-88497866D01*
X94757666Y-88497866D02*
X94948142Y-88497866D01*
X94948142Y-88497866D02*
X95043380Y-88450247D01*
X95043380Y-88450247D02*
X95090999Y-88402628D01*
X95090999Y-88402628D02*
X95138618Y-88307390D01*
X158583333Y-86391819D02*
X158250000Y-85915628D01*
X158011905Y-86391819D02*
X158011905Y-85391819D01*
X158011905Y-85391819D02*
X158392857Y-85391819D01*
X158392857Y-85391819D02*
X158488095Y-85439438D01*
X158488095Y-85439438D02*
X158535714Y-85487057D01*
X158535714Y-85487057D02*
X158583333Y-85582295D01*
X158583333Y-85582295D02*
X158583333Y-85725152D01*
X158583333Y-85725152D02*
X158535714Y-85820390D01*
X158535714Y-85820390D02*
X158488095Y-85868009D01*
X158488095Y-85868009D02*
X158392857Y-85915628D01*
X158392857Y-85915628D02*
X158011905Y-85915628D01*
X158916667Y-85391819D02*
X159535714Y-85391819D01*
X159535714Y-85391819D02*
X159202381Y-85772771D01*
X159202381Y-85772771D02*
X159345238Y-85772771D01*
X159345238Y-85772771D02*
X159440476Y-85820390D01*
X159440476Y-85820390D02*
X159488095Y-85868009D01*
X159488095Y-85868009D02*
X159535714Y-85963247D01*
X159535714Y-85963247D02*
X159535714Y-86201342D01*
X159535714Y-86201342D02*
X159488095Y-86296580D01*
X159488095Y-86296580D02*
X159440476Y-86344200D01*
X159440476Y-86344200D02*
X159345238Y-86391819D01*
X159345238Y-86391819D02*
X159059524Y-86391819D01*
X159059524Y-86391819D02*
X158964286Y-86344200D01*
X158964286Y-86344200D02*
X158916667Y-86296580D01*
X166745819Y-94492333D02*
X167460104Y-94492333D01*
X167460104Y-94492333D02*
X167602961Y-94539952D01*
X167602961Y-94539952D02*
X167698200Y-94635190D01*
X167698200Y-94635190D02*
X167745819Y-94778047D01*
X167745819Y-94778047D02*
X167745819Y-94873285D01*
X167745819Y-93492333D02*
X167745819Y-94063761D01*
X167745819Y-93778047D02*
X166745819Y-93778047D01*
X166745819Y-93778047D02*
X166888676Y-93873285D01*
X166888676Y-93873285D02*
X166983914Y-93968523D01*
X166983914Y-93968523D02*
X167031533Y-94063761D01*
X141859095Y-79039819D02*
X141859095Y-79849342D01*
X141859095Y-79849342D02*
X141906714Y-79944580D01*
X141906714Y-79944580D02*
X141954333Y-79992200D01*
X141954333Y-79992200D02*
X142049571Y-80039819D01*
X142049571Y-80039819D02*
X142240047Y-80039819D01*
X142240047Y-80039819D02*
X142335285Y-79992200D01*
X142335285Y-79992200D02*
X142382904Y-79944580D01*
X142382904Y-79944580D02*
X142430523Y-79849342D01*
X142430523Y-79849342D02*
X142430523Y-79039819D01*
X143335285Y-79373152D02*
X143335285Y-80039819D01*
X143097190Y-78992200D02*
X142859095Y-79706485D01*
X142859095Y-79706485D02*
X143478142Y-79706485D01*
X123384333Y-75879580D02*
X123336714Y-75927200D01*
X123336714Y-75927200D02*
X123193857Y-75974819D01*
X123193857Y-75974819D02*
X123098619Y-75974819D01*
X123098619Y-75974819D02*
X122955762Y-75927200D01*
X122955762Y-75927200D02*
X122860524Y-75831961D01*
X122860524Y-75831961D02*
X122812905Y-75736723D01*
X122812905Y-75736723D02*
X122765286Y-75546247D01*
X122765286Y-75546247D02*
X122765286Y-75403390D01*
X122765286Y-75403390D02*
X122812905Y-75212914D01*
X122812905Y-75212914D02*
X122860524Y-75117676D01*
X122860524Y-75117676D02*
X122955762Y-75022438D01*
X122955762Y-75022438D02*
X123098619Y-74974819D01*
X123098619Y-74974819D02*
X123193857Y-74974819D01*
X123193857Y-74974819D02*
X123336714Y-75022438D01*
X123336714Y-75022438D02*
X123384333Y-75070057D01*
X124336714Y-75974819D02*
X123765286Y-75974819D01*
X124051000Y-75974819D02*
X124051000Y-74974819D01*
X124051000Y-74974819D02*
X123955762Y-75117676D01*
X123955762Y-75117676D02*
X123860524Y-75212914D01*
X123860524Y-75212914D02*
X123765286Y-75260533D01*
X158583333Y-95841819D02*
X158250000Y-95365628D01*
X158011905Y-95841819D02*
X158011905Y-94841819D01*
X158011905Y-94841819D02*
X158392857Y-94841819D01*
X158392857Y-94841819D02*
X158488095Y-94889438D01*
X158488095Y-94889438D02*
X158535714Y-94937057D01*
X158535714Y-94937057D02*
X158583333Y-95032295D01*
X158583333Y-95032295D02*
X158583333Y-95175152D01*
X158583333Y-95175152D02*
X158535714Y-95270390D01*
X158535714Y-95270390D02*
X158488095Y-95318009D01*
X158488095Y-95318009D02*
X158392857Y-95365628D01*
X158392857Y-95365628D02*
X158011905Y-95365628D01*
X159440476Y-94841819D02*
X159250000Y-94841819D01*
X159250000Y-94841819D02*
X159154762Y-94889438D01*
X159154762Y-94889438D02*
X159107143Y-94937057D01*
X159107143Y-94937057D02*
X159011905Y-95079914D01*
X159011905Y-95079914D02*
X158964286Y-95270390D01*
X158964286Y-95270390D02*
X158964286Y-95651342D01*
X158964286Y-95651342D02*
X159011905Y-95746580D01*
X159011905Y-95746580D02*
X159059524Y-95794200D01*
X159059524Y-95794200D02*
X159154762Y-95841819D01*
X159154762Y-95841819D02*
X159345238Y-95841819D01*
X159345238Y-95841819D02*
X159440476Y-95794200D01*
X159440476Y-95794200D02*
X159488095Y-95746580D01*
X159488095Y-95746580D02*
X159535714Y-95651342D01*
X159535714Y-95651342D02*
X159535714Y-95413247D01*
X159535714Y-95413247D02*
X159488095Y-95318009D01*
X159488095Y-95318009D02*
X159440476Y-95270390D01*
X159440476Y-95270390D02*
X159345238Y-95222771D01*
X159345238Y-95222771D02*
X159154762Y-95222771D01*
X159154762Y-95222771D02*
X159059524Y-95270390D01*
X159059524Y-95270390D02*
X159011905Y-95318009D01*
X159011905Y-95318009D02*
X158964286Y-95413247D01*
X158583333Y-89541819D02*
X158250000Y-89065628D01*
X158011905Y-89541819D02*
X158011905Y-88541819D01*
X158011905Y-88541819D02*
X158392857Y-88541819D01*
X158392857Y-88541819D02*
X158488095Y-88589438D01*
X158488095Y-88589438D02*
X158535714Y-88637057D01*
X158535714Y-88637057D02*
X158583333Y-88732295D01*
X158583333Y-88732295D02*
X158583333Y-88875152D01*
X158583333Y-88875152D02*
X158535714Y-88970390D01*
X158535714Y-88970390D02*
X158488095Y-89018009D01*
X158488095Y-89018009D02*
X158392857Y-89065628D01*
X158392857Y-89065628D02*
X158011905Y-89065628D01*
X159440476Y-88875152D02*
X159440476Y-89541819D01*
X159202381Y-88494200D02*
X158964286Y-89208485D01*
X158964286Y-89208485D02*
X159583333Y-89208485D01*
X166163666Y-37250819D02*
X166163666Y-37965104D01*
X166163666Y-37965104D02*
X166116047Y-38107961D01*
X166116047Y-38107961D02*
X166020809Y-38203200D01*
X166020809Y-38203200D02*
X165877952Y-38250819D01*
X165877952Y-38250819D02*
X165782714Y-38250819D01*
X166592238Y-37346057D02*
X166639857Y-37298438D01*
X166639857Y-37298438D02*
X166735095Y-37250819D01*
X166735095Y-37250819D02*
X166973190Y-37250819D01*
X166973190Y-37250819D02*
X167068428Y-37298438D01*
X167068428Y-37298438D02*
X167116047Y-37346057D01*
X167116047Y-37346057D02*
X167163666Y-37441295D01*
X167163666Y-37441295D02*
X167163666Y-37536533D01*
X167163666Y-37536533D02*
X167116047Y-37679390D01*
X167116047Y-37679390D02*
X166544619Y-38250819D01*
X166544619Y-38250819D02*
X167163666Y-38250819D01*
X117134819Y-99520333D02*
X117849104Y-99520333D01*
X117849104Y-99520333D02*
X117991961Y-99567952D01*
X117991961Y-99567952D02*
X118087200Y-99663190D01*
X118087200Y-99663190D02*
X118134819Y-99806047D01*
X118134819Y-99806047D02*
X118134819Y-99901285D01*
X117468152Y-98615571D02*
X118134819Y-98615571D01*
X117087200Y-98853666D02*
X117801485Y-99091761D01*
X117801485Y-99091761D02*
X117801485Y-98472714D01*
X100649095Y-56569819D02*
X100649095Y-57379342D01*
X100649095Y-57379342D02*
X100696714Y-57474580D01*
X100696714Y-57474580D02*
X100744333Y-57522200D01*
X100744333Y-57522200D02*
X100839571Y-57569819D01*
X100839571Y-57569819D02*
X101030047Y-57569819D01*
X101030047Y-57569819D02*
X101125285Y-57522200D01*
X101125285Y-57522200D02*
X101172904Y-57474580D01*
X101172904Y-57474580D02*
X101220523Y-57379342D01*
X101220523Y-57379342D02*
X101220523Y-56569819D01*
X102172904Y-56569819D02*
X101696714Y-56569819D01*
X101696714Y-56569819D02*
X101649095Y-57046009D01*
X101649095Y-57046009D02*
X101696714Y-56998390D01*
X101696714Y-56998390D02*
X101791952Y-56950771D01*
X101791952Y-56950771D02*
X102030047Y-56950771D01*
X102030047Y-56950771D02*
X102125285Y-56998390D01*
X102125285Y-56998390D02*
X102172904Y-57046009D01*
X102172904Y-57046009D02*
X102220523Y-57141247D01*
X102220523Y-57141247D02*
X102220523Y-57379342D01*
X102220523Y-57379342D02*
X102172904Y-57474580D01*
X102172904Y-57474580D02*
X102125285Y-57522200D01*
X102125285Y-57522200D02*
X102030047Y-57569819D01*
X102030047Y-57569819D02*
X101791952Y-57569819D01*
X101791952Y-57569819D02*
X101696714Y-57522200D01*
X101696714Y-57522200D02*
X101649095Y-57474580D01*
X100981191Y-88831200D02*
X101124048Y-88878819D01*
X101124048Y-88878819D02*
X101362143Y-88878819D01*
X101362143Y-88878819D02*
X101457381Y-88831200D01*
X101457381Y-88831200D02*
X101505000Y-88783580D01*
X101505000Y-88783580D02*
X101552619Y-88688342D01*
X101552619Y-88688342D02*
X101552619Y-88593104D01*
X101552619Y-88593104D02*
X101505000Y-88497866D01*
X101505000Y-88497866D02*
X101457381Y-88450247D01*
X101457381Y-88450247D02*
X101362143Y-88402628D01*
X101362143Y-88402628D02*
X101171667Y-88355009D01*
X101171667Y-88355009D02*
X101076429Y-88307390D01*
X101076429Y-88307390D02*
X101028810Y-88259771D01*
X101028810Y-88259771D02*
X100981191Y-88164533D01*
X100981191Y-88164533D02*
X100981191Y-88069295D01*
X100981191Y-88069295D02*
X101028810Y-87974057D01*
X101028810Y-87974057D02*
X101076429Y-87926438D01*
X101076429Y-87926438D02*
X101171667Y-87878819D01*
X101171667Y-87878819D02*
X101409762Y-87878819D01*
X101409762Y-87878819D02*
X101552619Y-87926438D01*
X101885953Y-87878819D02*
X102124048Y-88878819D01*
X102124048Y-88878819D02*
X102314524Y-88164533D01*
X102314524Y-88164533D02*
X102505000Y-88878819D01*
X102505000Y-88878819D02*
X102743096Y-87878819D01*
X103314524Y-87878819D02*
X103409762Y-87878819D01*
X103409762Y-87878819D02*
X103505000Y-87926438D01*
X103505000Y-87926438D02*
X103552619Y-87974057D01*
X103552619Y-87974057D02*
X103600238Y-88069295D01*
X103600238Y-88069295D02*
X103647857Y-88259771D01*
X103647857Y-88259771D02*
X103647857Y-88497866D01*
X103647857Y-88497866D02*
X103600238Y-88688342D01*
X103600238Y-88688342D02*
X103552619Y-88783580D01*
X103552619Y-88783580D02*
X103505000Y-88831200D01*
X103505000Y-88831200D02*
X103409762Y-88878819D01*
X103409762Y-88878819D02*
X103314524Y-88878819D01*
X103314524Y-88878819D02*
X103219286Y-88831200D01*
X103219286Y-88831200D02*
X103171667Y-88783580D01*
X103171667Y-88783580D02*
X103124048Y-88688342D01*
X103124048Y-88688342D02*
X103076429Y-88497866D01*
X103076429Y-88497866D02*
X103076429Y-88259771D01*
X103076429Y-88259771D02*
X103124048Y-88069295D01*
X103124048Y-88069295D02*
X103171667Y-87974057D01*
X103171667Y-87974057D02*
X103219286Y-87926438D01*
X103219286Y-87926438D02*
X103314524Y-87878819D01*
X104124048Y-88831200D02*
X104124048Y-88878819D01*
X104124048Y-88878819D02*
X104076429Y-88974057D01*
X104076429Y-88974057D02*
X104028810Y-89021676D01*
X105076428Y-88878819D02*
X104505000Y-88878819D01*
X104790714Y-88878819D02*
X104790714Y-87878819D01*
X104790714Y-87878819D02*
X104695476Y-88021676D01*
X104695476Y-88021676D02*
X104600238Y-88116914D01*
X104600238Y-88116914D02*
X104505000Y-88164533D01*
X105695476Y-87878819D02*
X105790714Y-87878819D01*
X105790714Y-87878819D02*
X105885952Y-87926438D01*
X105885952Y-87926438D02*
X105933571Y-87974057D01*
X105933571Y-87974057D02*
X105981190Y-88069295D01*
X105981190Y-88069295D02*
X106028809Y-88259771D01*
X106028809Y-88259771D02*
X106028809Y-88497866D01*
X106028809Y-88497866D02*
X105981190Y-88688342D01*
X105981190Y-88688342D02*
X105933571Y-88783580D01*
X105933571Y-88783580D02*
X105885952Y-88831200D01*
X105885952Y-88831200D02*
X105790714Y-88878819D01*
X105790714Y-88878819D02*
X105695476Y-88878819D01*
X105695476Y-88878819D02*
X105600238Y-88831200D01*
X105600238Y-88831200D02*
X105552619Y-88783580D01*
X105552619Y-88783580D02*
X105505000Y-88688342D01*
X105505000Y-88688342D02*
X105457381Y-88497866D01*
X105457381Y-88497866D02*
X105457381Y-88259771D01*
X105457381Y-88259771D02*
X105505000Y-88069295D01*
X105505000Y-88069295D02*
X105552619Y-87974057D01*
X105552619Y-87974057D02*
X105600238Y-87926438D01*
X105600238Y-87926438D02*
X105695476Y-87878819D01*
X158583333Y-92691819D02*
X158250000Y-92215628D01*
X158011905Y-92691819D02*
X158011905Y-91691819D01*
X158011905Y-91691819D02*
X158392857Y-91691819D01*
X158392857Y-91691819D02*
X158488095Y-91739438D01*
X158488095Y-91739438D02*
X158535714Y-91787057D01*
X158535714Y-91787057D02*
X158583333Y-91882295D01*
X158583333Y-91882295D02*
X158583333Y-92025152D01*
X158583333Y-92025152D02*
X158535714Y-92120390D01*
X158535714Y-92120390D02*
X158488095Y-92168009D01*
X158488095Y-92168009D02*
X158392857Y-92215628D01*
X158392857Y-92215628D02*
X158011905Y-92215628D01*
X159488095Y-91691819D02*
X159011905Y-91691819D01*
X159011905Y-91691819D02*
X158964286Y-92168009D01*
X158964286Y-92168009D02*
X159011905Y-92120390D01*
X159011905Y-92120390D02*
X159107143Y-92072771D01*
X159107143Y-92072771D02*
X159345238Y-92072771D01*
X159345238Y-92072771D02*
X159440476Y-92120390D01*
X159440476Y-92120390D02*
X159488095Y-92168009D01*
X159488095Y-92168009D02*
X159535714Y-92263247D01*
X159535714Y-92263247D02*
X159535714Y-92501342D01*
X159535714Y-92501342D02*
X159488095Y-92596580D01*
X159488095Y-92596580D02*
X159440476Y-92644200D01*
X159440476Y-92644200D02*
X159345238Y-92691819D01*
X159345238Y-92691819D02*
X159107143Y-92691819D01*
X159107143Y-92691819D02*
X159011905Y-92644200D01*
X159011905Y-92644200D02*
X158964286Y-92596580D01*
X158154761Y-98991819D02*
X157821428Y-98515628D01*
X157583333Y-98991819D02*
X157583333Y-97991819D01*
X157583333Y-97991819D02*
X157964285Y-97991819D01*
X157964285Y-97991819D02*
X158059523Y-98039438D01*
X158059523Y-98039438D02*
X158107142Y-98087057D01*
X158107142Y-98087057D02*
X158154761Y-98182295D01*
X158154761Y-98182295D02*
X158154761Y-98325152D01*
X158154761Y-98325152D02*
X158107142Y-98420390D01*
X158107142Y-98420390D02*
X158059523Y-98468009D01*
X158059523Y-98468009D02*
X157964285Y-98515628D01*
X157964285Y-98515628D02*
X157583333Y-98515628D01*
X158440476Y-97991819D02*
X158773809Y-98991819D01*
X158773809Y-98991819D02*
X159107142Y-97991819D01*
X159964285Y-98991819D02*
X159392857Y-98991819D01*
X159678571Y-98991819D02*
X159678571Y-97991819D01*
X159678571Y-97991819D02*
X159583333Y-98134676D01*
X159583333Y-98134676D02*
X159488095Y-98229914D01*
X159488095Y-98229914D02*
X159392857Y-98277533D01*
X169672095Y-69895819D02*
X169672095Y-70705342D01*
X169672095Y-70705342D02*
X169719714Y-70800580D01*
X169719714Y-70800580D02*
X169767333Y-70848200D01*
X169767333Y-70848200D02*
X169862571Y-70895819D01*
X169862571Y-70895819D02*
X170053047Y-70895819D01*
X170053047Y-70895819D02*
X170148285Y-70848200D01*
X170148285Y-70848200D02*
X170195904Y-70800580D01*
X170195904Y-70800580D02*
X170243523Y-70705342D01*
X170243523Y-70705342D02*
X170243523Y-69895819D01*
X170624476Y-69895819D02*
X171243523Y-69895819D01*
X171243523Y-69895819D02*
X170910190Y-70276771D01*
X170910190Y-70276771D02*
X171053047Y-70276771D01*
X171053047Y-70276771D02*
X171148285Y-70324390D01*
X171148285Y-70324390D02*
X171195904Y-70372009D01*
X171195904Y-70372009D02*
X171243523Y-70467247D01*
X171243523Y-70467247D02*
X171243523Y-70705342D01*
X171243523Y-70705342D02*
X171195904Y-70800580D01*
X171195904Y-70800580D02*
X171148285Y-70848200D01*
X171148285Y-70848200D02*
X171053047Y-70895819D01*
X171053047Y-70895819D02*
X170767333Y-70895819D01*
X170767333Y-70895819D02*
X170672095Y-70848200D01*
X170672095Y-70848200D02*
X170624476Y-70800580D01*
D12*
%TO.C,D1*%
X113248000Y-86140000D02*
X113248000Y-86296000D01*
X113248000Y-88456000D02*
X113248000Y-88612000D01*
X113248000Y-86140484D02*
G75*
G02*
X116479397Y-86295939I1560000J-1235516D01*
G01*
X113767039Y-86296000D02*
G75*
G02*
X115848910Y-86295951I1040961J-1080000D01*
G01*
X115848910Y-88456049D02*
G75*
G02*
X113767039Y-88456000I-1040910J1080049D01*
G01*
X116479397Y-88456061D02*
G75*
G02*
X113248000Y-88611516I-1671397J1080061D01*
G01*
%TO.C,R2*%
X155880000Y-84707000D02*
X156830000Y-84707000D01*
X156830000Y-83787000D02*
X156830000Y-85627000D01*
X156830000Y-85627000D02*
X160670000Y-85627000D01*
X160670000Y-83787000D02*
X156830000Y-83787000D01*
X160670000Y-85627000D02*
X160670000Y-83787000D01*
X161620000Y-84707000D02*
X160670000Y-84707000D01*
%TO.C,U2*%
X123334000Y-80458000D02*
X123334000Y-100898000D01*
X123334000Y-100898000D02*
X128634000Y-100898000D01*
X124984000Y-80458000D02*
X123334000Y-80458000D01*
X128634000Y-80458000D02*
X126984000Y-80458000D01*
X128634000Y-100898000D02*
X128634000Y-80458000D01*
X126984000Y-80458000D02*
G75*
G02*
X124984000Y-80458000I-1000000J0D01*
G01*
%TO.C,R1*%
X155880000Y-81557000D02*
X156830000Y-81557000D01*
X156830000Y-80637000D02*
X156830000Y-82477000D01*
X156830000Y-82477000D02*
X160670000Y-82477000D01*
X160670000Y-80637000D02*
X156830000Y-80637000D01*
X160670000Y-82477000D02*
X160670000Y-80637000D01*
X161620000Y-81557000D02*
X160670000Y-81557000D01*
%TO.C,SW0\u002C9*%
X89281000Y-89154000D02*
X89281000Y-99314000D01*
X89281000Y-89154000D02*
X96901000Y-89154000D01*
X89281000Y-99314000D02*
X96901000Y-99314000D01*
X96901000Y-99314000D02*
X96901000Y-89154000D01*
X95091000Y-94234000D02*
G75*
G02*
X91091000Y-94234000I-2000000J0D01*
G01*
X91091000Y-94234000D02*
G75*
G02*
X95091000Y-94234000I2000000J0D01*
G01*
%TO.C,R3*%
X155880000Y-87857000D02*
X156830000Y-87857000D01*
X156830000Y-86937000D02*
X156830000Y-88777000D01*
X156830000Y-88777000D02*
X160670000Y-88777000D01*
X160670000Y-86937000D02*
X156830000Y-86937000D01*
X160670000Y-88777000D02*
X160670000Y-86937000D01*
X161620000Y-87857000D02*
X160670000Y-87857000D01*
%TO.C,J1*%
X168431000Y-87049000D02*
X168431000Y-89559000D01*
X168431000Y-87049000D02*
X176991000Y-87049000D01*
X168431000Y-92559000D02*
X168431000Y-100578200D01*
X180151000Y-89359000D02*
X180151000Y-100578200D01*
%TO.C,U4*%
X139971000Y-80585000D02*
X139971000Y-101025000D01*
X139971000Y-101025000D02*
X145271000Y-101025000D01*
X141621000Y-80585000D02*
X139971000Y-80585000D01*
X145271000Y-80585000D02*
X143621000Y-80585000D01*
X145271000Y-101025000D02*
X145271000Y-80585000D01*
X143621000Y-80585000D02*
G75*
G02*
X141621000Y-80585000I-1000000J0D01*
G01*
%TO.C,C1*%
X126821000Y-71120000D02*
G75*
G02*
X120281000Y-71120000I-3270000J0D01*
G01*
X120281000Y-71120000D02*
G75*
G02*
X126821000Y-71120000I3270000J0D01*
G01*
%TO.C,R6*%
X155880000Y-97307000D02*
X156830000Y-97307000D01*
X156830000Y-96387000D02*
X156830000Y-98227000D01*
X156830000Y-98227000D02*
X160670000Y-98227000D01*
X160670000Y-96387000D02*
X156830000Y-96387000D01*
X160670000Y-98227000D02*
X160670000Y-96387000D01*
X161620000Y-97307000D02*
X160670000Y-97307000D01*
%TO.C,R4*%
X155880000Y-91007000D02*
X156830000Y-91007000D01*
X156830000Y-90087000D02*
X156830000Y-91927000D01*
X156830000Y-91927000D02*
X160670000Y-91927000D01*
X160670000Y-90087000D02*
X156830000Y-90087000D01*
X160670000Y-91927000D02*
X160670000Y-90087000D01*
X161620000Y-91007000D02*
X160670000Y-91007000D01*
%TO.C,J2*%
X148861000Y-42796000D02*
X148861000Y-72260000D01*
X151909000Y-48274000D02*
X151909000Y-62972000D01*
X151909000Y-48274000D02*
X181085000Y-48274000D01*
X151909000Y-62972000D02*
X181085000Y-62972000D01*
X153369000Y-75418000D02*
X152017000Y-75418000D01*
X155177000Y-69322000D02*
X155177000Y-73610000D01*
X155177000Y-69322000D02*
X177817000Y-69322000D01*
X177817000Y-69322000D02*
X177817000Y-73610000D01*
X179625000Y-75418000D02*
X180977000Y-75418000D01*
X180975000Y-39638000D02*
X152019000Y-39638000D01*
X181085000Y-48274000D02*
X181085000Y-62972000D01*
X184133000Y-42796000D02*
X184133000Y-72260000D01*
X148861000Y-42796000D02*
G75*
G02*
X152019000Y-39638000I3158001J-1D01*
G01*
X152019000Y-75418000D02*
G75*
G02*
X148861000Y-72260000I1J3158001D01*
G01*
X155177000Y-73608000D02*
G75*
G02*
X153371000Y-75418000I-1808000J-2000D01*
G01*
X179623000Y-75418000D02*
G75*
G02*
X177817000Y-73608000I2000J1808000D01*
G01*
X180975000Y-39638000D02*
G75*
G02*
X184133000Y-42796000I0J-3158000D01*
G01*
X184133000Y-72260000D02*
G75*
G02*
X180975000Y-75418000I-3158000J0D01*
G01*
%TO.C,J4*%
X112460000Y-98077000D02*
X112460000Y-100297000D01*
X114570000Y-98077000D02*
X112460000Y-98077000D01*
X114570000Y-98077000D02*
X114570000Y-100297000D01*
X114570000Y-100297000D02*
X112460000Y-100297000D01*
X115570000Y-98077000D02*
X116680000Y-98077000D01*
X116680000Y-98077000D02*
X116680000Y-99187000D01*
%TO.C,U5*%
X88011000Y-43467969D02*
X88011000Y-66265000D01*
X90011000Y-66865000D02*
X88011000Y-66265000D01*
X90011000Y-66865000D02*
X90011000Y-72662031D01*
X91161000Y-73812030D02*
X112561000Y-73812030D01*
X109611000Y-39215000D02*
X92161000Y-39215000D01*
X113711000Y-72662031D02*
X113711000Y-43362031D01*
X88011000Y-43465000D02*
G75*
G02*
X92161000Y-39210753I4150000J102970D01*
G01*
X91161000Y-73815000D02*
G75*
G02*
X90008030Y-72662030I0J1152970D01*
G01*
X109561000Y-39215000D02*
G75*
G02*
X113708000Y-43362031I0J-4147000D01*
G01*
X113711000Y-72662031D02*
G75*
G02*
X112561000Y-73812030I-1150000J1D01*
G01*
X87506000Y-47115000D02*
X86871000Y-47750000D01*
X86871000Y-46480000D01*
X87506000Y-47115000D01*
G36*
X87506000Y-47115000D02*
G01*
X86871000Y-47750000D01*
X86871000Y-46480000D01*
X87506000Y-47115000D01*
G37*
%TO.C,SW0\u002C10*%
X99695000Y-89154000D02*
X99695000Y-99314000D01*
X99695000Y-89154000D02*
X107315000Y-89154000D01*
X99695000Y-99314000D02*
X107315000Y-99314000D01*
X107315000Y-99314000D02*
X107315000Y-89154000D01*
X105505000Y-94234000D02*
G75*
G02*
X101505000Y-94234000I-2000000J0D01*
G01*
X101505000Y-94234000D02*
G75*
G02*
X105505000Y-94234000I2000000J0D01*
G01*
%TO.C,R5*%
X155880000Y-94157000D02*
X156830000Y-94157000D01*
X156830000Y-93237000D02*
X156830000Y-95077000D01*
X156830000Y-95077000D02*
X160670000Y-95077000D01*
X160670000Y-93237000D02*
X156830000Y-93237000D01*
X160670000Y-95077000D02*
X160670000Y-93237000D01*
X161620000Y-94157000D02*
X160670000Y-94157000D01*
%TO.C,RV1*%
X155880000Y-100457000D02*
X156830000Y-100457000D01*
X156830000Y-99537000D02*
X156830000Y-101377000D01*
X156830000Y-101377000D02*
X160670000Y-101377000D01*
X160670000Y-99537000D02*
X156830000Y-99537000D01*
X160670000Y-101377000D02*
X160670000Y-99537000D01*
X161620000Y-100457000D02*
X160670000Y-100457000D01*
%TO.C,U3*%
X167784000Y-71441000D02*
X167784000Y-81721000D01*
X167784000Y-81721000D02*
X173084000Y-81721000D01*
X169434000Y-71441000D02*
X167784000Y-71441000D01*
X173084000Y-71441000D02*
X171434000Y-71441000D01*
X173084000Y-81721000D02*
X173084000Y-71441000D01*
X171434000Y-71441000D02*
G75*
G02*
X169434000Y-71441000I-1000000J0D01*
G01*
%TD*%
M02*
